{"glyphs":{"0":{"ha":826,"x_min":67,"x_max":760,"o":"m 414 -17 q 263 9 328 -17 q 153 92 197 35 q 88 244 110 150 q 67 476 67 339 q 88 709 67 615 q 153 861 110 803 q 263 944 197 919 q 414 969 328 969 q 565 944 501 969 q 673 861 629 919 q 738 709 717 803 q 760 476 760 615 q 738 244 760 339 q 673 92 717 150 q 565 9 629 35 q 414 -17 501 -17 m 414 133 q 507 166 475 133 q 551 265 539 199 q 564 432 564 332 l 564 518 q 551 687 564 619 q 507 788 539 754 q 414 821 475 821 q 320 788 353 821 q 275 688 288 754 q 263 521 263 622 l 263 435 q 275 266 263 333 q 320 166 288 199 q 414 133 353 133 z "},"1":{"ha":828,"x_min":138,"x_max":774,"o":"m 139 0 l 139 156 l 367 156 l 367 718 l 138 718 l 138 835 q 244 856 183 839 q 365 899 304 874 q 475 954 426 925 l 561 954 l 561 156 l 774 156 l 774 0 l 139 0 z "},"2":{"ha":828,"x_min":71,"x_max":763,"o":"m 71 0 l 71 50 q 93 164 71 113 q 154 258 115 215 q 240 340 193 301 q 338 415 288 379 q 445 500 394 458 q 528 590 496 542 q 560 696 560 638 q 546 751 560 724 q 502 798 532 779 q 422 817 472 817 q 338 799 371 817 q 287 751 304 782 q 269 674 269 719 l 269 624 l 83 624 q 81 643 82 631 q 79 674 79 656 q 126 840 79 775 q 252 938 172 906 q 433 969 332 969 q 587 944 525 969 q 686 876 649 918 q 740 784 724 833 q 756 689 756 735 q 732 569 756 624 q 668 468 708 515 q 572 377 628 421 q 454 290 517 333 q 394 247 422 268 q 345 208 365 226 q 314 171 325 189 l 763 171 l 763 0 l 71 0 z "},"3":{"ha":828,"x_min":61,"x_max":764,"o":"m 417 -17 q 221 19 300 -17 q 101 119 142 56 q 61 267 61 183 l 61 290 l 249 290 l 249 264 q 290 168 249 203 q 408 133 331 133 q 525 168 483 133 q 567 275 567 203 q 544 358 567 329 q 487 400 522 388 q 410 413 451 413 l 325 413 l 325 558 l 408 558 q 478 573 447 558 q 528 617 510 588 q 547 692 547 646 q 530 763 547 735 q 481 806 513 792 q 410 819 450 819 q 337 806 369 819 q 286 764 304 792 q 268 694 268 736 l 268 674 l 83 674 l 83 708 q 124 845 83 786 q 240 937 165 904 q 414 969 315 969 q 587 939 513 969 q 702 849 661 908 q 743 710 743 790 q 723 614 743 656 q 669 544 703 572 q 593 496 636 515 l 593 490 q 716 409 668 468 q 764 257 764 350 q 720 113 763 174 q 600 17 678 51 q 417 -17 522 -17 z "},"4":{"ha":829,"x_min":40,"x_max":782,"o":"m 469 0 l 469 208 l 40 208 l 40 363 q 142 544 94 449 q 230 747 189 640 q 299 969 271 854 l 497 969 q 455 829 482 903 q 393 683 428 756 q 323 548 358 611 q 256 436 288 485 q 201 363 224 388 l 469 363 l 469 593 q 498 651 483 619 q 526 715 513 682 q 552 779 540 747 q 571 839 564 811 l 660 839 l 660 363 l 782 363 l 782 208 l 660 208 l 660 0 l 469 0 z "},"5":{"ha":826,"x_min":61,"x_max":761,"o":"m 415 -17 q 227 22 307 -17 q 104 131 147 60 q 61 299 61 201 l 251 299 q 270 212 251 250 q 325 153 289 174 q 410 133 361 133 q 491 154 457 133 q 544 215 525 175 q 564 313 564 254 q 545 403 564 367 q 492 459 526 440 q 413 478 458 478 q 349 466 376 478 q 303 438 322 454 q 269 401 283 421 l 96 424 l 135 953 l 707 953 l 707 782 l 296 782 l 281 567 q 321 590 296 578 q 383 613 346 603 q 468 624 419 624 q 617 589 551 624 q 722 485 683 554 q 761 311 761 417 q 719 136 761 210 q 599 23 676 63 q 415 -17 522 -17 z "},"6":{"ha":828,"x_min":68,"x_max":771,"o":"m 432 -17 q 277 8 344 -17 q 163 88 210 33 q 92 231 115 142 q 68 450 68 321 q 92 696 68 596 q 160 856 115 796 q 272 943 206 917 q 426 969 339 969 q 602 931 532 969 q 706 824 672 892 q 740 668 740 757 l 553 668 q 539 751 553 717 q 496 803 525 785 q 422 821 467 821 q 323 787 357 821 q 277 688 289 753 q 264 529 265 622 q 306 563 278 543 q 378 597 335 582 q 471 611 421 611 q 637 572 569 611 q 738 463 704 532 q 771 301 771 393 q 727 131 771 203 q 608 22 683 60 q 432 -17 532 -17 m 425 133 q 510 155 476 133 q 560 215 543 176 q 576 300 576 253 q 560 388 576 350 q 510 447 543 425 q 425 468 476 468 q 341 447 375 468 q 290 388 307 425 q 274 300 274 350 q 290 213 274 251 q 341 154 307 175 q 425 133 375 133 z "},"7":{"ha":828,"x_min":64,"x_max":771,"o":"m 207 0 q 234 221 207 113 q 308 429 261 329 q 415 619 356 529 q 536 781 474 708 l 64 781 l 64 953 l 771 953 l 771 839 q 672 713 722 781 q 577 569 622 644 q 496 412 532 493 q 439 245 460 331 q 418 74 418 160 l 418 0 l 207 0 z "},"8":{"ha":828,"x_min":60,"x_max":767,"o":"m 414 -17 q 215 19 293 -17 q 98 119 136 56 q 60 261 60 182 q 98 398 60 342 q 214 488 136 454 q 117 581 147 528 q 88 701 88 635 q 125 840 88 779 q 236 935 163 900 q 414 969 310 969 q 590 935 517 969 q 701 840 663 900 q 740 701 740 779 q 709 581 740 635 q 613 488 678 526 q 729 398 692 454 q 767 261 767 342 q 728 119 767 182 q 612 19 690 56 q 414 -17 533 -17 m 414 132 q 528 169 488 132 q 569 272 569 207 q 528 377 569 340 q 414 414 486 414 q 299 377 340 414 q 257 272 257 340 q 298 169 257 207 q 414 132 339 132 m 414 560 q 515 593 476 560 q 554 690 554 626 q 516 788 554 754 q 414 822 478 822 q 311 788 349 822 q 274 690 274 754 q 311 593 274 626 q 414 560 349 560 z "},"9":{"ha":826,"x_min":57,"x_max":760,"o":"m 401 -17 q 226 22 296 -17 q 121 129 156 61 q 86 286 86 197 l 275 286 q 289 203 275 238 q 332 151 303 168 q 406 133 361 133 q 504 167 471 133 q 549 267 538 201 q 563 425 561 333 q 522 392 550 411 q 451 358 493 372 q 357 343 408 343 q 192 382 258 343 q 91 492 125 421 q 57 651 57 563 q 100 822 57 751 q 219 931 143 893 q 394 969 296 969 q 550 945 482 969 q 665 867 618 921 q 735 723 711 813 q 760 504 760 633 q 736 258 760 358 q 667 98 713 158 q 555 10 622 38 q 401 -17 488 -17 m 401 485 q 487 506 453 485 q 537 566 521 528 q 553 653 553 604 q 537 740 553 703 q 487 799 521 778 q 401 821 453 821 q 318 799 351 821 q 268 739 285 776 q 251 653 251 701 q 268 565 251 603 q 318 506 285 528 q 401 485 351 485 z "},"A":{"ha":1006,"x_min":8,"x_max":997,"o":"m 8 0 l 375 953 l 631 953 l 997 0 l 774 0 l 706 188 l 290 188 l 222 0 l 8 0 m 350 354 l 646 354 l 561 589 q 548 626 556 604 q 532 674 540 647 q 516 726 524 700 q 501 772 508 751 l 493 772 q 475 710 486 746 q 453 642 464 675 q 435 589 442 610 l 350 354 z "},"Á":{"ha":1006,"x_min":8,"x_max":997,"o":"m 8 0 l 375 953 l 631 953 l 997 0 l 774 0 l 706 188 l 290 188 l 222 0 l 8 0 m 350 354 l 646 354 l 561 589 q 548 626 556 604 q 532 674 540 647 q 516 726 524 700 q 501 772 508 751 l 493 772 q 475 710 486 746 q 453 642 464 675 q 435 589 442 610 l 350 354 m 413 1026 l 528 1211 l 733 1211 l 736 1206 l 569 1026 l 413 1026 z "},"Ă":{"ha":1006,"x_min":8,"x_max":997,"o":"m 8 0 l 375 953 l 631 953 l 997 0 l 774 0 l 706 188 l 290 188 l 222 0 l 8 0 m 350 354 l 646 354 l 561 589 q 548 626 556 604 q 532 674 540 647 q 516 726 524 700 q 501 772 508 751 l 493 772 q 475 710 486 746 q 453 642 464 675 q 435 589 442 610 l 350 354 m 503 1025 q 374 1053 424 1025 q 301 1125 324 1082 q 278 1211 278 1168 l 396 1211 q 410 1181 399 1197 q 444 1153 421 1164 q 503 1142 468 1142 q 563 1153 539 1142 q 599 1181 586 1164 q 613 1211 611 1197 l 729 1211 q 706 1125 729 1168 q 633 1053 682 1082 q 503 1025 583 1025 z "},"Ắ":{"ha":1006,"x_min":8,"x_max":997,"o":"m 8 0 l 375 953 l 631 953 l 997 0 l 774 0 l 706 188 l 290 188 l 222 0 l 8 0 m 350 354 l 646 354 l 561 589 q 548 626 556 604 q 532 674 540 647 q 516 726 524 700 q 501 772 508 751 l 493 772 q 475 710 486 746 q 453 642 464 675 q 435 589 442 610 l 350 354 m 503 1025 q 374 1053 424 1025 q 301 1125 324 1082 q 278 1211 278 1168 l 396 1211 q 410 1181 399 1197 q 444 1153 421 1164 q 503 1142 468 1142 q 563 1153 539 1142 q 599 1181 586 1164 q 613 1211 611 1197 l 729 1211 q 706 1125 729 1168 q 633 1053 682 1082 q 503 1025 583 1025 m 413 1243 l 528 1426 l 733 1426 l 736 1422 l 569 1243 l 413 1243 z "},"Ặ":{"ha":1006,"x_min":8,"x_max":997,"o":"m 8 0 l 375 953 l 631 953 l 997 0 l 774 0 l 706 188 l 290 188 l 222 0 l 8 0 m 350 354 l 646 354 l 561 589 q 548 626 556 604 q 532 674 540 647 q 516 726 524 700 q 501 772 508 751 l 493 772 q 475 710 486 746 q 453 642 464 675 q 435 589 442 610 l 350 354 m 415 -272 l 415 -106 l 592 -106 l 592 -272 l 415 -272 m 503 1025 q 374 1053 424 1025 q 301 1125 324 1082 q 278 1211 278 1168 l 396 1211 q 410 1181 399 1197 q 444 1153 421 1164 q 503 1142 468 1142 q 563 1153 539 1142 q 599 1181 586 1164 q 613 1211 611 1197 l 729 1211 q 706 1125 729 1168 q 633 1053 682 1082 q 503 1025 583 1025 z "},"Ằ":{"ha":1006,"x_min":8,"x_max":997,"o":"m 8 0 l 375 953 l 631 953 l 997 0 l 774 0 l 706 188 l 290 188 l 222 0 l 8 0 m 350 354 l 646 354 l 561 589 q 548 626 556 604 q 532 674 540 647 q 516 726 524 700 q 501 772 508 751 l 493 772 q 475 710 486 746 q 453 642 464 675 q 435 589 442 610 l 350 354 m 503 1025 q 374 1053 424 1025 q 301 1125 324 1082 q 278 1211 278 1168 l 396 1211 q 410 1181 399 1197 q 444 1153 421 1164 q 503 1142 468 1142 q 563 1153 539 1142 q 599 1181 586 1164 q 613 1211 611 1197 l 729 1211 q 706 1125 729 1168 q 633 1053 682 1082 q 503 1025 583 1025 m 607 1243 l 449 1243 l 283 1422 l 285 1426 l 490 1426 l 607 1243 z "},"Ẳ":{"ha":1006,"x_min":8,"x_max":997,"o":"m 8 0 l 375 953 l 631 953 l 997 0 l 774 0 l 706 188 l 290 188 l 222 0 l 8 0 m 350 354 l 646 354 l 561 589 q 548 626 556 604 q 532 674 540 647 q 516 726 524 700 q 501 772 508 751 l 493 772 q 475 710 486 746 q 453 642 464 675 q 435 589 442 610 l 350 354 m 503 1025 q 374 1053 424 1025 q 301 1125 324 1082 q 278 1211 278 1168 l 396 1211 q 410 1181 399 1197 q 444 1153 421 1164 q 503 1142 468 1142 q 563 1153 539 1142 q 599 1181 586 1164 q 613 1211 611 1197 l 729 1211 q 706 1125 729 1168 q 633 1053 682 1082 q 503 1025 583 1025 m 457 1242 l 457 1319 l 475 1319 q 508 1326 499 1319 q 518 1346 518 1332 q 506 1366 518 1361 q 471 1371 494 1371 l 390 1371 l 390 1432 q 427 1438 407 1436 q 467 1442 447 1440 q 504 1443 488 1443 q 556 1440 529 1443 q 607 1427 583 1436 q 646 1401 631 1418 q 661 1357 661 1383 q 645 1314 661 1331 q 604 1289 629 1297 q 551 1278 579 1281 l 551 1242 l 457 1242 z "},"Ẵ":{"ha":1006,"x_min":8,"x_max":997,"o":"m 8 0 l 375 953 l 631 953 l 997 0 l 774 0 l 706 188 l 290 188 l 222 0 l 8 0 m 350 354 l 646 354 l 561 589 q 548 626 556 604 q 532 674 540 647 q 516 726 524 700 q 501 772 508 751 l 493 772 q 475 710 486 746 q 453 642 464 675 q 435 589 442 610 l 350 354 m 503 1025 q 374 1053 424 1025 q 301 1125 324 1082 q 278 1211 278 1168 l 396 1211 q 410 1181 399 1197 q 444 1153 421 1164 q 503 1142 468 1142 q 563 1153 539 1142 q 599 1181 586 1164 q 613 1211 611 1197 l 729 1211 q 706 1125 729 1168 q 633 1053 682 1082 q 503 1025 583 1025 m 254 1263 q 270 1347 254 1308 q 318 1408 286 1385 q 399 1432 350 1432 q 471 1420 438 1432 q 536 1395 504 1408 q 601 1382 568 1382 q 635 1394 622 1382 q 653 1432 649 1406 l 751 1432 q 735 1349 751 1388 q 688 1287 719 1311 q 607 1263 656 1263 q 535 1275 569 1263 q 470 1301 501 1288 q 406 1314 439 1314 q 372 1301 385 1314 q 354 1263 358 1289 l 254 1263 z "},"Ǎ":{"ha":1006,"x_min":8,"x_max":997,"o":"m 8 0 l 375 953 l 631 953 l 997 0 l 774 0 l 706 188 l 290 188 l 222 0 l 8 0 m 350 354 l 646 354 l 561 589 q 548 626 556 604 q 532 674 540 647 q 516 726 524 700 q 501 772 508 751 l 493 772 q 475 710 486 746 q 453 642 464 675 q 435 589 442 610 l 350 354 m 254 1211 l 419 1211 l 543 1071 l 464 1069 l 586 1211 l 753 1211 l 597 1026 l 410 1026 l 254 1211 z "},"Â":{"ha":1006,"x_min":8,"x_max":997,"o":"m 8 0 l 375 953 l 631 953 l 997 0 l 774 0 l 706 188 l 290 188 l 222 0 l 8 0 m 350 354 l 646 354 l 561 589 q 548 626 556 604 q 532 674 540 647 q 516 726 524 700 q 501 772 508 751 l 493 772 q 475 710 486 746 q 453 642 464 675 q 435 589 442 610 l 350 354 m 254 1026 l 410 1211 l 597 1211 l 753 1026 l 586 1026 l 464 1168 l 543 1167 l 419 1026 l 254 1026 z "},"Ấ":{"ha":1006,"x_min":8,"x_max":997,"o":"m 8 0 l 375 953 l 631 953 l 997 0 l 774 0 l 706 188 l 290 188 l 222 0 l 8 0 m 350 354 l 646 354 l 561 589 q 548 626 556 604 q 532 674 540 647 q 516 726 524 700 q 501 772 508 751 l 493 772 q 475 710 486 746 q 453 642 464 675 q 435 589 442 610 l 350 354 m 254 1026 l 410 1211 l 597 1211 l 753 1026 l 586 1026 l 464 1168 l 543 1167 l 419 1026 l 254 1026 m 413 1254 l 528 1438 l 733 1438 l 736 1433 l 569 1254 l 413 1254 z "},"Ậ":{"ha":1006,"x_min":8,"x_max":997,"o":"m 8 0 l 375 953 l 631 953 l 997 0 l 774 0 l 706 188 l 290 188 l 222 0 l 8 0 m 350 354 l 646 354 l 561 589 q 548 626 556 604 q 532 674 540 647 q 516 726 524 700 q 501 772 508 751 l 493 772 q 475 710 486 746 q 453 642 464 675 q 435 589 442 610 l 350 354 m 415 -272 l 415 -106 l 592 -106 l 592 -272 l 415 -272 m 254 1026 l 410 1211 l 597 1211 l 753 1026 l 586 1026 l 464 1168 l 543 1167 l 419 1026 l 254 1026 z "},"Ầ":{"ha":1006,"x_min":8,"x_max":997,"o":"m 8 0 l 375 953 l 631 953 l 997 0 l 774 0 l 706 188 l 290 188 l 222 0 l 8 0 m 350 354 l 646 354 l 561 589 q 548 626 556 604 q 532 674 540 647 q 516 726 524 700 q 501 772 508 751 l 493 772 q 475 710 486 746 q 453 642 464 675 q 435 589 442 610 l 350 354 m 254 1026 l 410 1211 l 597 1211 l 753 1026 l 586 1026 l 464 1168 l 543 1167 l 419 1026 l 254 1026 m 607 1254 l 449 1254 l 283 1433 l 285 1438 l 490 1438 l 607 1254 z "},"Ẩ":{"ha":1006,"x_min":8,"x_max":997,"o":"m 8 0 l 375 953 l 631 953 l 997 0 l 774 0 l 706 188 l 290 188 l 222 0 l 8 0 m 350 354 l 646 354 l 561 589 q 548 626 556 604 q 532 674 540 647 q 516 726 524 700 q 501 772 508 751 l 493 772 q 475 710 486 746 q 453 642 464 675 q 435 589 442 610 l 350 354 m 254 1026 l 410 1211 l 597 1211 l 753 1026 l 586 1026 l 464 1168 l 543 1167 l 419 1026 l 254 1026 m 457 1253 l 457 1331 l 475 1331 q 508 1337 499 1331 q 518 1357 518 1343 q 506 1377 518 1372 q 471 1382 494 1382 l 390 1382 l 390 1443 q 427 1449 407 1447 q 467 1453 447 1451 q 504 1454 488 1454 q 556 1451 529 1454 q 607 1438 583 1447 q 646 1411 631 1428 q 661 1368 661 1394 q 645 1325 661 1342 q 604 1300 629 1308 q 551 1289 579 1292 l 551 1253 l 457 1253 z "},"Ẫ":{"ha":1006,"x_min":8,"x_max":997,"o":"m 8 0 l 375 953 l 631 953 l 997 0 l 774 0 l 706 188 l 290 188 l 222 0 l 8 0 m 350 354 l 646 354 l 561 589 q 548 626 556 604 q 532 674 540 647 q 516 726 524 700 q 501 772 508 751 l 493 772 q 475 710 486 746 q 453 642 464 675 q 435 589 442 610 l 350 354 m 254 1026 l 410 1211 l 597 1211 l 753 1026 l 586 1026 l 464 1168 l 543 1167 l 419 1026 l 254 1026 m 254 1274 q 270 1357 254 1318 q 318 1419 286 1396 q 399 1443 350 1443 q 471 1431 438 1443 q 536 1406 504 1419 q 601 1393 568 1393 q 635 1405 622 1393 q 653 1443 649 1417 l 751 1443 q 735 1360 751 1399 q 688 1297 719 1321 q 607 1274 656 1274 q 535 1286 569 1274 q 470 1311 501 1299 q 406 1324 439 1324 q 372 1312 385 1324 q 354 1274 358 1300 l 254 1274 z "},"Ȁ":{"ha":1006,"x_min":8,"x_max":997,"o":"m 8 0 l 375 953 l 631 953 l 997 0 l 774 0 l 706 188 l 290 188 l 222 0 l 8 0 m 350 354 l 646 354 l 561 589 q 548 626 556 604 q 532 674 540 647 q 516 726 524 700 q 501 772 508 751 l 493 772 q 475 710 486 746 q 453 642 464 675 q 435 589 442 610 l 350 354 m 585 1026 l 431 1206 l 433 1211 l 633 1211 l 736 1026 l 585 1026 m 315 1026 l 161 1206 l 163 1211 l 364 1211 l 467 1026 l 315 1026 z "},"Ä":{"ha":1006,"x_min":8,"x_max":997,"o":"m 8 0 l 375 953 l 631 953 l 997 0 l 774 0 l 706 188 l 290 188 l 222 0 l 8 0 m 350 354 l 646 354 l 561 589 q 548 626 556 604 q 532 674 540 647 q 516 726 524 700 q 501 772 508 751 l 493 772 q 475 710 486 746 q 453 642 464 675 q 435 589 442 610 l 350 354 m 278 1049 l 278 1211 l 442 1211 l 442 1049 l 278 1049 m 565 1049 l 565 1211 l 729 1211 l 729 1049 l 565 1049 z "},"Ạ":{"ha":1006,"x_min":8,"x_max":997,"o":"m 8 0 l 375 953 l 631 953 l 997 0 l 774 0 l 706 188 l 290 188 l 222 0 l 8 0 m 350 354 l 646 354 l 561 589 q 548 626 556 604 q 532 674 540 647 q 516 726 524 700 q 501 772 508 751 l 493 772 q 475 710 486 746 q 453 642 464 675 q 435 589 442 610 l 350 354 m 415 -272 l 415 -106 l 592 -106 l 592 -272 l 415 -272 z "},"À":{"ha":1006,"x_min":8,"x_max":997,"o":"m 8 0 l 375 953 l 631 953 l 997 0 l 774 0 l 706 188 l 290 188 l 222 0 l 8 0 m 350 354 l 646 354 l 561 589 q 548 626 556 604 q 532 674 540 647 q 516 726 524 700 q 501 772 508 751 l 493 772 q 475 710 486 746 q 453 642 464 675 q 435 589 442 610 l 350 354 m 607 1026 l 449 1026 l 283 1206 l 285 1211 l 490 1211 l 607 1026 z "},"Ả":{"ha":1006,"x_min":8,"x_max":997,"o":"m 8 0 l 375 953 l 631 953 l 997 0 l 774 0 l 706 188 l 290 188 l 222 0 l 8 0 m 350 354 l 646 354 l 561 589 q 548 626 556 604 q 532 674 540 647 q 516 726 524 700 q 501 772 508 751 l 493 772 q 475 710 486 746 q 453 642 464 675 q 435 589 442 610 l 350 354 m 457 1026 l 457 1104 l 475 1104 q 508 1110 499 1104 q 518 1129 518 1115 q 506 1149 518 1144 q 471 1154 494 1154 l 390 1154 l 390 1217 q 427 1223 407 1221 q 467 1226 447 1225 q 504 1228 488 1228 q 556 1224 529 1228 q 607 1210 583 1219 q 646 1185 631 1201 q 661 1142 661 1168 q 645 1098 661 1115 q 604 1072 629 1081 q 551 1061 579 1064 l 551 1026 l 457 1026 z "},"Ȃ":{"ha":1006,"x_min":8,"x_max":997,"o":"m 8 0 l 375 953 l 631 953 l 997 0 l 774 0 l 706 188 l 290 188 l 222 0 l 8 0 m 350 354 l 646 354 l 561 589 q 548 626 556 604 q 532 674 540 647 q 516 726 524 700 q 501 772 508 751 l 493 772 q 475 710 486 746 q 453 642 464 675 q 435 589 442 610 l 350 354 m 278 1025 q 301 1112 278 1069 q 376 1183 325 1154 q 504 1211 426 1211 q 634 1183 585 1211 q 706 1112 683 1154 q 729 1025 729 1069 l 613 1025 q 598 1056 610 1040 q 563 1082 586 1071 q 504 1093 540 1093 q 445 1082 469 1093 q 409 1056 421 1071 q 394 1025 397 1040 l 278 1025 z "},"Ā":{"ha":1006,"x_min":8,"x_max":997,"o":"m 8 0 l 375 953 l 631 953 l 997 0 l 774 0 l 706 188 l 290 188 l 222 0 l 8 0 m 350 354 l 646 354 l 561 589 q 548 626 556 604 q 532 674 540 647 q 516 726 524 700 q 501 772 508 751 l 493 772 q 475 710 486 746 q 453 642 464 675 q 435 589 442 610 l 350 354 m 289 1049 l 289 1168 l 717 1168 l 717 1049 l 289 1049 z "},"Ą":{"ha":1006,"x_min":8,"x_max":997,"o":"m 8 0 l 375 953 l 631 953 l 997 0 l 774 0 l 706 188 l 290 188 l 222 0 l 8 0 m 350 354 l 646 354 l 561 589 q 548 626 556 604 q 532 674 540 647 q 516 726 524 700 q 501 772 508 751 l 493 772 q 475 710 486 746 q 453 642 464 675 q 435 589 442 610 l 350 354 m 867 -261 q 796 -249 831 -261 q 738 -208 761 -237 q 715 -131 715 -179 q 738 -44 715 -79 q 788 17 761 -10 l 904 17 l 904 11 q 873 -30 889 -3 q 857 -86 857 -57 q 874 -137 857 -115 q 926 -160 890 -160 l 988 -160 l 988 -242 q 927 -256 961 -251 q 867 -261 893 -261 z "},"Å":{"ha":1006,"x_min":8,"x_max":997,"o":"m 8 0 l 375 953 l 631 953 l 997 0 l 774 0 l 706 188 l 290 188 l 222 0 l 8 0 m 350 354 l 646 354 l 561 589 q 548 626 556 604 q 532 674 540 647 q 516 726 524 700 q 501 772 508 751 l 493 772 q 475 710 486 746 q 453 642 464 675 q 435 589 442 610 l 350 354 m 503 1013 q 397 1052 439 1013 q 354 1153 354 1092 q 397 1253 354 1214 q 503 1293 439 1293 q 610 1253 568 1293 q 653 1153 653 1214 q 610 1052 653 1092 q 503 1013 568 1013 m 503 1094 q 548 1110 531 1094 q 565 1153 565 1126 q 548 1194 565 1178 q 503 1211 531 1211 q 459 1194 476 1211 q 442 1151 442 1178 q 459 1110 442 1126 q 503 1094 476 1094 z "},"Ǻ":{"ha":1006,"x_min":8,"x_max":997,"o":"m 8 0 l 375 953 l 631 953 l 997 0 l 774 0 l 706 188 l 290 188 l 222 0 l 8 0 m 350 354 l 646 354 l 561 589 q 548 626 556 604 q 532 674 540 647 q 516 726 524 700 q 501 772 508 751 l 493 772 q 475 710 486 746 q 453 642 464 675 q 435 589 442 610 l 350 354 m 503 1013 q 397 1052 439 1013 q 354 1153 354 1092 q 397 1253 354 1214 q 503 1293 439 1293 q 610 1253 568 1293 q 653 1153 653 1214 q 610 1052 653 1092 q 503 1013 568 1013 m 503 1094 q 548 1110 531 1094 q 565 1153 565 1126 q 548 1194 565 1178 q 503 1211 531 1211 q 459 1194 476 1211 q 442 1151 442 1178 q 459 1110 442 1126 q 503 1094 476 1094 m 413 1338 l 528 1521 l 733 1521 l 736 1517 l 569 1338 l 413 1338 z "},"Ã":{"ha":1006,"x_min":8,"x_max":997,"o":"m 8 0 l 375 953 l 631 953 l 997 0 l 774 0 l 706 188 l 290 188 l 222 0 l 8 0 m 350 354 l 646 354 l 561 589 q 548 626 556 604 q 532 674 540 647 q 516 726 524 700 q 501 772 508 751 l 493 772 q 475 710 486 746 q 453 642 464 675 q 435 589 442 610 l 350 354 m 254 1046 q 270 1131 254 1092 q 318 1193 286 1169 q 399 1217 350 1217 q 471 1204 438 1217 q 536 1179 504 1192 q 601 1167 568 1167 q 635 1178 622 1167 q 653 1217 649 1189 l 751 1217 q 735 1133 751 1172 q 688 1070 719 1094 q 607 1046 656 1046 q 535 1058 569 1046 q 470 1084 501 1071 q 406 1097 439 1097 q 372 1085 385 1097 q 354 1046 358 1072 l 254 1046 z "},"Æ":{"ha":1394,"x_min":-6,"x_max":1321,"o":"m -6 0 l 447 953 l 1313 953 l 1313 783 l 763 783 l 819 571 l 1247 571 l 1247 403 l 864 403 l 925 171 l 1321 171 l 1321 0 l 761 0 l 713 189 l 293 189 l 208 0 l -6 0 m 365 354 l 671 354 l 579 710 q 576 726 578 718 q 572 743 574 735 q 567 759 569 751 q 563 775 565 767 l 556 775 q 549 759 553 767 q 542 743 544 751 q 535 726 539 735 q 528 710 531 718 l 365 354 z "},"Ǽ":{"ha":1394,"x_min":-6,"x_max":1321,"o":"m -6 0 l 447 953 l 1313 953 l 1313 783 l 763 783 l 819 571 l 1247 571 l 1247 403 l 864 403 l 925 171 l 1321 171 l 1321 0 l 761 0 l 713 189 l 293 189 l 208 0 l -6 0 m 365 354 l 671 354 l 579 710 q 576 726 578 718 q 572 743 574 735 q 567 759 569 751 q 563 775 565 767 l 556 775 q 549 759 553 767 q 542 743 544 751 q 535 726 539 735 q 528 710 531 718 l 365 354 m 590 1026 l 706 1211 l 913 1211 l 914 1206 l 749 1026 l 590 1026 z "},"B":{"ha":1003,"x_min":106,"x_max":942,"o":"m 106 0 l 106 953 l 650 953 q 785 924 725 953 q 881 842 846 894 q 915 718 915 789 q 894 617 915 661 q 838 543 874 572 q 758 500 803 514 l 758 494 q 852 453 811 483 q 917 374 893 422 q 942 261 942 326 q 902 117 942 175 q 797 29 863 58 q 651 0 732 0 l 106 0 m 313 169 l 611 169 q 695 199 663 169 q 728 289 728 228 q 714 351 728 325 q 672 392 700 378 q 601 407 644 407 l 313 407 l 313 169 m 313 568 l 588 568 q 651 583 625 568 q 690 622 676 597 q 703 678 703 646 q 673 760 703 732 q 594 788 643 788 l 313 788 l 313 568 z "},"C":{"ha":1018,"x_min":63,"x_max":961,"o":"m 532 -17 q 278 35 383 -17 q 117 197 172 88 q 63 476 63 307 q 185 848 63 726 q 532 969 308 969 q 751 928 654 969 q 905 803 849 886 q 961 593 961 719 l 753 593 q 726 706 753 660 q 649 776 699 751 q 535 800 600 800 q 388 765 446 800 q 303 663 331 731 q 276 499 276 596 l 276 456 q 304 288 276 356 q 388 187 332 221 q 533 153 444 153 q 654 176 603 153 q 733 246 706 200 q 761 358 761 292 l 961 358 q 906 149 961 232 q 754 24 851 65 q 532 -17 657 -17 z "},"Ć":{"ha":1018,"x_min":63,"x_max":961,"o":"m 532 -17 q 278 35 383 -17 q 117 197 172 88 q 63 476 63 307 q 185 848 63 726 q 532 969 308 969 q 751 928 654 969 q 905 803 849 886 q 961 593 961 719 l 753 593 q 726 706 753 660 q 649 776 699 751 q 535 800 600 800 q 388 765 446 800 q 303 663 331 731 q 276 499 276 596 l 276 456 q 304 288 276 356 q 388 187 332 221 q 533 153 444 153 q 654 176 603 153 q 733 246 706 200 q 761 358 761 292 l 961 358 q 906 149 961 232 q 754 24 851 65 q 532 -17 657 -17 m 440 1026 l 556 1211 l 763 1211 l 764 1206 l 599 1026 l 440 1026 z "},"Č":{"ha":1018,"x_min":63,"x_max":961,"o":"m 532 -17 q 278 35 383 -17 q 117 197 172 88 q 63 476 63 307 q 185 848 63 726 q 532 969 308 969 q 751 928 654 969 q 905 803 849 886 q 961 593 961 719 l 753 593 q 726 706 753 660 q 649 776 699 751 q 535 800 600 800 q 388 765 446 800 q 303 663 331 731 q 276 499 276 596 l 276 456 q 304 288 276 356 q 388 187 332 221 q 533 153 444 153 q 654 176 603 153 q 733 246 706 200 q 761 358 761 292 l 961 358 q 906 149 961 232 q 754 24 851 65 q 532 -17 657 -17 m 282 1211 l 447 1211 l 571 1071 l 492 1069 l 614 1211 l 781 1211 l 626 1026 l 438 1026 l 282 1211 z "},"Ç":{"ha":1018,"x_min":63,"x_max":961,"o":"m 532 -17 q 278 35 383 -17 q 117 197 172 88 q 63 476 63 307 q 185 848 63 726 q 532 969 308 969 q 751 928 654 969 q 905 803 849 886 q 961 593 961 719 l 753 593 q 726 706 753 660 q 649 776 699 751 q 535 800 600 800 q 388 765 446 800 q 303 663 331 731 q 276 499 276 596 l 276 456 q 304 288 276 356 q 388 187 332 221 q 533 153 444 153 q 654 176 603 153 q 733 246 706 200 q 761 358 761 292 l 961 358 q 906 149 961 232 q 754 24 851 65 q 532 -17 657 -17 m 529 -261 q 451 -258 492 -261 q 379 -249 410 -254 l 379 -178 l 511 -178 q 554 -172 539 -178 q 569 -144 569 -165 q 558 -119 569 -128 q 514 -111 547 -111 l 454 -111 l 475 24 l 589 24 l 579 -46 q 642 -58 613 -47 q 690 -90 672 -69 q 708 -146 708 -111 q 690 -203 708 -181 q 645 -239 672 -226 q 587 -256 618 -251 q 529 -261 556 -261 z "},"Ĉ":{"ha":1018,"x_min":63,"x_max":961,"o":"m 532 -17 q 278 35 383 -17 q 117 197 172 88 q 63 476 63 307 q 185 848 63 726 q 532 969 308 969 q 751 928 654 969 q 905 803 849 886 q 961 593 961 719 l 753 593 q 726 706 753 660 q 649 776 699 751 q 535 800 600 800 q 388 765 446 800 q 303 663 331 731 q 276 499 276 596 l 276 456 q 304 288 276 356 q 388 187 332 221 q 533 153 444 153 q 654 176 603 153 q 733 246 706 200 q 761 358 761 292 l 961 358 q 906 149 961 232 q 754 24 851 65 q 532 -17 657 -17 m 282 1026 l 438 1211 l 626 1211 l 781 1026 l 614 1026 l 492 1168 l 571 1167 l 447 1026 l 282 1026 z "},"Ċ":{"ha":1018,"x_min":63,"x_max":961,"o":"m 532 -17 q 278 35 383 -17 q 117 197 172 88 q 63 476 63 307 q 185 848 63 726 q 532 969 308 969 q 751 928 654 969 q 905 803 849 886 q 961 593 961 719 l 753 593 q 726 706 753 660 q 649 776 699 751 q 535 800 600 800 q 388 765 446 800 q 303 663 331 731 q 276 499 276 596 l 276 456 q 304 288 276 356 q 388 187 332 221 q 533 153 444 153 q 654 176 603 153 q 733 246 706 200 q 761 358 761 292 l 961 358 q 906 149 961 232 q 754 24 851 65 q 532 -17 657 -17 m 444 1049 l 444 1221 l 621 1221 l 621 1049 l 444 1049 z "},"D":{"ha":1026,"x_min":106,"x_max":964,"o":"m 106 0 l 106 953 l 494 953 q 747 901 643 953 q 908 745 851 850 q 964 476 964 640 q 908 208 964 314 q 747 51 851 103 q 494 0 643 0 l 106 0 m 313 171 l 493 171 q 604 189 556 171 q 685 242 653 207 q 733 331 717 278 q 750 456 750 385 l 750 497 q 733 622 750 568 q 685 710 717 675 q 604 765 653 746 q 493 783 556 783 l 313 783 l 313 171 z "},"Ǆ":{"ha":1919,"x_min":106,"x_max":1869,"o":"m 106 0 l 106 953 l 494 953 q 747 901 643 953 q 908 745 851 850 q 964 476 964 640 q 908 208 964 314 q 747 51 851 103 q 494 0 643 0 l 106 0 m 313 171 l 493 171 q 604 189 556 171 q 685 242 653 207 q 733 331 717 278 q 750 456 750 385 l 750 497 q 733 622 750 568 q 685 710 717 675 q 604 765 653 746 q 493 783 556 783 l 313 783 l 313 171 m 1051 0 l 1051 89 l 1546 783 l 1086 783 l 1086 953 l 1858 953 l 1858 864 l 1364 171 l 1869 171 l 1869 0 l 1051 0 m 1217 1211 l 1383 1211 l 1506 1071 l 1428 1069 l 1550 1211 l 1715 1211 l 1561 1026 l 1372 1026 l 1217 1211 z "},"Ð":{"ha":1026,"x_min":0,"x_max":964,"o":"m 0 408 l 0 558 l 525 558 l 525 408 l 0 408 m 106 0 l 106 953 l 494 953 q 747 901 643 953 q 908 745 851 850 q 964 476 964 640 q 908 208 964 314 q 747 51 851 103 q 494 0 643 0 l 106 0 m 313 171 l 493 171 q 604 189 556 171 q 685 242 653 207 q 733 331 717 278 q 750 456 750 385 l 750 497 q 733 622 750 568 q 685 710 717 675 q 604 765 653 746 q 493 783 556 783 l 313 783 l 313 171 z "},"Ď":{"ha":1026,"x_min":106,"x_max":964,"o":"m 106 0 l 106 953 l 494 953 q 747 901 643 953 q 908 745 851 850 q 964 476 964 640 q 908 208 964 314 q 747 51 851 103 q 494 0 643 0 l 106 0 m 313 171 l 493 171 q 604 189 556 171 q 685 242 653 207 q 733 331 717 278 q 750 456 750 385 l 750 497 q 733 622 750 568 q 685 710 717 675 q 604 765 653 746 q 493 783 556 783 l 313 783 l 313 171 m 260 1211 l 426 1211 l 549 1071 l 471 1069 l 592 1211 l 758 1211 l 604 1026 l 415 1026 l 260 1211 z "},"Đ":{"ha":1026,"x_min":0,"x_max":964,"o":"m 0 408 l 0 558 l 525 558 l 525 408 l 0 408 m 106 0 l 106 953 l 494 953 q 747 901 643 953 q 908 745 851 850 q 964 476 964 640 q 908 208 964 314 q 747 51 851 103 q 494 0 643 0 l 106 0 m 313 171 l 493 171 q 604 189 556 171 q 685 242 653 207 q 733 331 717 278 q 750 456 750 385 l 750 497 q 733 622 750 568 q 685 710 717 675 q 604 765 653 746 q 493 783 556 783 l 313 783 l 313 171 z "},"ǅ":{"ha":1747,"x_min":106,"x_max":1708,"o":"m 106 0 l 106 953 l 494 953 q 747 901 643 953 q 908 745 851 850 q 964 476 964 640 q 908 208 964 314 q 747 51 851 103 q 494 0 643 0 l 106 0 m 313 171 l 493 171 q 604 189 556 171 q 685 242 653 207 q 733 331 717 278 q 750 456 750 385 l 750 497 q 733 622 750 568 q 685 710 717 675 q 604 765 653 746 q 493 783 556 783 l 313 783 l 313 171 m 1058 0 l 1058 82 l 1414 582 l 1081 582 l 1081 731 l 1693 731 l 1693 651 l 1336 150 l 1708 150 l 1708 0 l 1058 0 m 1144 1004 l 1304 1004 l 1426 865 l 1349 864 l 1469 1004 l 1629 1004 l 1475 821 l 1300 821 l 1144 1004 z "},"E":{"ha":949,"x_min":106,"x_max":875,"o":"m 106 0 l 106 953 l 867 953 l 867 783 l 314 783 l 314 571 l 803 571 l 803 403 l 314 403 l 314 171 l 875 171 l 875 0 l 106 0 z "},"É":{"ha":949,"x_min":106,"x_max":875,"o":"m 106 0 l 106 953 l 867 953 l 867 783 l 314 783 l 314 571 l 803 571 l 803 403 l 314 403 l 314 171 l 875 171 l 875 0 l 106 0 m 399 1026 l 515 1211 l 721 1211 l 722 1206 l 557 1026 l 399 1026 z "},"Ĕ":{"ha":949,"x_min":106,"x_max":875,"o":"m 106 0 l 106 953 l 867 953 l 867 783 l 314 783 l 314 571 l 803 571 l 803 403 l 314 403 l 314 171 l 875 171 l 875 0 l 106 0 m 490 1025 q 361 1053 411 1025 q 288 1125 311 1082 q 265 1211 265 1168 l 382 1211 q 397 1181 385 1197 q 431 1153 408 1164 q 490 1142 454 1142 q 550 1153 526 1142 q 586 1181 574 1164 q 600 1211 599 1197 l 717 1211 q 693 1125 717 1168 q 620 1053 669 1082 q 490 1025 571 1025 z "},"Ě":{"ha":949,"x_min":106,"x_max":875,"o":"m 106 0 l 106 953 l 867 953 l 867 783 l 314 783 l 314 571 l 803 571 l 803 403 l 314 403 l 314 171 l 875 171 l 875 0 l 106 0 m 240 1211 l 407 1211 l 529 1071 l 451 1069 l 572 1211 l 739 1211 l 585 1026 l 396 1026 l 240 1211 z "},"Ê":{"ha":949,"x_min":106,"x_max":875,"o":"m 106 0 l 106 953 l 867 953 l 867 783 l 314 783 l 314 571 l 803 571 l 803 403 l 314 403 l 314 171 l 875 171 l 875 0 l 106 0 m 240 1026 l 396 1211 l 585 1211 l 739 1026 l 572 1026 l 451 1168 l 529 1167 l 407 1026 l 240 1026 z "},"Ế":{"ha":949,"x_min":106,"x_max":875,"o":"m 106 0 l 106 953 l 867 953 l 867 783 l 314 783 l 314 571 l 803 571 l 803 403 l 314 403 l 314 171 l 875 171 l 875 0 l 106 0 m 240 1026 l 396 1211 l 585 1211 l 739 1026 l 572 1026 l 451 1168 l 529 1167 l 407 1026 l 240 1026 m 399 1254 l 515 1438 l 721 1438 l 722 1433 l 557 1254 l 399 1254 z "},"Ệ":{"ha":949,"x_min":106,"x_max":875,"o":"m 106 0 l 106 953 l 867 953 l 867 783 l 314 783 l 314 571 l 803 571 l 803 403 l 314 403 l 314 171 l 875 171 l 875 0 l 106 0 m 403 -272 l 403 -106 l 579 -106 l 579 -272 l 403 -272 m 240 1026 l 396 1211 l 585 1211 l 739 1026 l 572 1026 l 451 1168 l 529 1167 l 407 1026 l 240 1026 z "},"Ề":{"ha":949,"x_min":106,"x_max":875,"o":"m 106 0 l 106 953 l 867 953 l 867 783 l 314 783 l 314 571 l 803 571 l 803 403 l 314 403 l 314 171 l 875 171 l 875 0 l 106 0 m 240 1026 l 396 1211 l 585 1211 l 739 1026 l 572 1026 l 451 1168 l 529 1167 l 407 1026 l 240 1026 m 593 1254 l 436 1254 l 269 1433 l 271 1438 l 478 1438 l 593 1254 z "},"Ể":{"ha":949,"x_min":106,"x_max":875,"o":"m 106 0 l 106 953 l 867 953 l 867 783 l 314 783 l 314 571 l 803 571 l 803 403 l 314 403 l 314 171 l 875 171 l 875 0 l 106 0 m 240 1026 l 396 1211 l 585 1211 l 739 1026 l 572 1026 l 451 1168 l 529 1167 l 407 1026 l 240 1026 m 444 1253 l 444 1331 l 463 1331 q 495 1337 486 1331 q 504 1357 504 1343 q 492 1377 504 1372 q 458 1382 481 1382 l 376 1382 l 376 1443 q 414 1449 393 1447 q 455 1453 435 1451 q 492 1454 475 1454 q 542 1451 515 1454 q 594 1438 569 1447 q 633 1411 618 1428 q 649 1368 649 1394 q 633 1325 649 1342 q 592 1300 617 1308 q 538 1289 567 1292 l 538 1253 l 444 1253 z "},"Ễ":{"ha":949,"x_min":106,"x_max":875,"o":"m 106 0 l 106 953 l 867 953 l 867 783 l 314 783 l 314 571 l 803 571 l 803 403 l 314 403 l 314 171 l 875 171 l 875 0 l 106 0 m 240 1026 l 396 1211 l 585 1211 l 739 1026 l 572 1026 l 451 1168 l 529 1167 l 407 1026 l 240 1026 m 242 1274 q 257 1357 242 1318 q 305 1419 272 1396 q 386 1443 338 1443 q 457 1431 424 1443 q 523 1406 490 1419 q 589 1393 556 1393 q 623 1405 610 1393 q 639 1443 636 1417 l 738 1443 q 722 1360 738 1399 q 675 1297 707 1321 q 593 1274 643 1274 q 523 1286 557 1274 q 457 1311 489 1299 q 392 1324 425 1324 q 358 1312 372 1324 q 342 1274 344 1300 l 242 1274 z "},"Ȅ":{"ha":949,"x_min":106,"x_max":875,"o":"m 106 0 l 106 953 l 867 953 l 867 783 l 314 783 l 314 571 l 803 571 l 803 403 l 314 403 l 314 171 l 875 171 l 875 0 l 106 0 m 572 1026 l 418 1206 l 419 1211 l 619 1211 l 724 1026 l 572 1026 m 303 1026 l 149 1206 l 150 1211 l 350 1211 l 454 1026 l 303 1026 z "},"Ë":{"ha":949,"x_min":106,"x_max":875,"o":"m 106 0 l 106 953 l 867 953 l 867 783 l 314 783 l 314 571 l 803 571 l 803 403 l 314 403 l 314 171 l 875 171 l 875 0 l 106 0 m 264 1049 l 264 1211 l 429 1211 l 429 1049 l 264 1049 m 551 1049 l 551 1211 l 715 1211 l 715 1049 l 551 1049 z "},"Ė":{"ha":949,"x_min":106,"x_max":875,"o":"m 106 0 l 106 953 l 867 953 l 867 783 l 314 783 l 314 571 l 803 571 l 803 403 l 314 403 l 314 171 l 875 171 l 875 0 l 106 0 m 403 1049 l 403 1221 l 579 1221 l 579 1049 l 403 1049 z "},"Ẹ":{"ha":949,"x_min":106,"x_max":875,"o":"m 106 0 l 106 953 l 867 953 l 867 783 l 314 783 l 314 571 l 803 571 l 803 403 l 314 403 l 314 171 l 875 171 l 875 0 l 106 0 m 403 -272 l 403 -106 l 579 -106 l 579 -272 l 403 -272 z "},"È":{"ha":949,"x_min":106,"x_max":875,"o":"m 106 0 l 106 953 l 867 953 l 867 783 l 314 783 l 314 571 l 803 571 l 803 403 l 314 403 l 314 171 l 875 171 l 875 0 l 106 0 m 593 1026 l 436 1026 l 269 1206 l 271 1211 l 478 1211 l 593 1026 z "},"Ẻ":{"ha":949,"x_min":106,"x_max":875,"o":"m 106 0 l 106 953 l 867 953 l 867 783 l 314 783 l 314 571 l 803 571 l 803 403 l 314 403 l 314 171 l 875 171 l 875 0 l 106 0 m 444 1026 l 444 1104 l 463 1104 q 495 1110 486 1104 q 504 1129 504 1115 q 492 1149 504 1144 q 458 1154 481 1154 l 376 1154 l 376 1217 q 414 1223 393 1221 q 455 1226 435 1225 q 492 1228 475 1228 q 542 1224 515 1228 q 594 1210 569 1219 q 633 1185 618 1201 q 649 1142 649 1168 q 633 1098 649 1115 q 592 1072 617 1081 q 538 1061 567 1064 l 538 1026 l 444 1026 z "},"Ȇ":{"ha":949,"x_min":106,"x_max":875,"o":"m 106 0 l 106 953 l 867 953 l 867 783 l 314 783 l 314 571 l 803 571 l 803 403 l 314 403 l 314 171 l 875 171 l 875 0 l 106 0 m 265 1025 q 289 1112 265 1069 q 363 1183 313 1154 q 492 1211 413 1211 q 622 1183 572 1211 q 694 1112 671 1154 q 717 1025 717 1069 l 600 1025 q 585 1056 597 1040 q 551 1082 574 1071 q 492 1093 528 1093 q 432 1082 456 1093 q 396 1056 408 1071 q 382 1025 383 1040 l 265 1025 z "},"Ē":{"ha":949,"x_min":106,"x_max":875,"o":"m 106 0 l 106 953 l 867 953 l 867 783 l 314 783 l 314 571 l 803 571 l 803 403 l 314 403 l 314 171 l 875 171 l 875 0 l 106 0 m 276 1049 l 276 1168 l 703 1168 l 703 1049 l 276 1049 z "},"Ę":{"ha":949,"x_min":106,"x_max":875,"o":"m 106 0 l 106 953 l 867 953 l 867 783 l 314 783 l 314 571 l 803 571 l 803 403 l 314 403 l 314 171 l 875 171 l 875 0 l 106 0 m 756 -261 q 684 -249 719 -261 q 626 -208 649 -237 q 603 -131 603 -179 q 626 -44 603 -79 q 676 17 649 -10 l 793 17 l 793 11 q 760 -30 776 -3 q 744 -86 744 -57 q 761 -137 744 -115 q 815 -160 778 -160 l 875 -160 l 875 -242 q 815 -256 849 -251 q 756 -261 782 -261 z "},"Ẽ":{"ha":949,"x_min":106,"x_max":875,"o":"m 106 0 l 106 953 l 867 953 l 867 783 l 314 783 l 314 571 l 803 571 l 803 403 l 314 403 l 314 171 l 875 171 l 875 0 l 106 0 m 242 1046 q 257 1131 242 1092 q 305 1193 272 1169 q 386 1217 338 1217 q 457 1204 424 1217 q 523 1179 490 1192 q 589 1167 556 1167 q 623 1178 610 1167 q 639 1217 636 1189 l 738 1217 q 722 1133 738 1172 q 675 1070 707 1094 q 593 1046 643 1046 q 523 1058 557 1046 q 457 1084 489 1071 q 392 1097 425 1097 q 358 1085 372 1097 q 342 1046 344 1072 l 242 1046 z "},"F":{"ha":864,"x_min":106,"x_max":808,"o":"m 106 0 l 106 953 l 808 953 l 808 783 l 313 783 l 313 547 l 756 547 l 756 379 l 313 379 l 313 0 l 106 0 z "},"G":{"ha":1114,"x_min":71,"x_max":1019,"o":"m 539 -17 q 192 103 314 -17 q 71 476 71 224 q 129 753 71 644 q 299 916 188 863 q 565 969 410 969 q 740 949 658 969 q 885 885 822 928 q 984 777 949 842 q 1019 624 1019 713 l 810 624 q 791 700 810 667 q 739 756 772 733 q 663 789 706 778 q 572 800 619 800 q 446 781 500 800 q 356 724 392 763 q 303 629 321 686 q 285 497 285 572 l 285 456 q 315 285 285 351 q 407 185 346 218 q 558 153 468 153 q 691 176 633 153 q 781 242 749 199 q 814 347 814 285 l 814 357 l 529 357 l 529 515 l 1019 515 l 1019 0 l 883 0 l 865 103 q 776 36 824 63 q 669 -3 728 10 q 539 -17 611 -17 z "},"Ğ":{"ha":1114,"x_min":71,"x_max":1019,"o":"m 539 -17 q 192 103 314 -17 q 71 476 71 224 q 129 753 71 644 q 299 916 188 863 q 565 969 410 969 q 740 949 658 969 q 885 885 822 928 q 984 777 949 842 q 1019 624 1019 713 l 810 624 q 791 700 810 667 q 739 756 772 733 q 663 789 706 778 q 572 800 619 800 q 446 781 500 800 q 356 724 392 763 q 303 629 321 686 q 285 497 285 572 l 285 456 q 315 285 285 351 q 407 185 346 218 q 558 153 468 153 q 691 176 633 153 q 781 242 749 199 q 814 347 814 285 l 814 357 l 529 357 l 529 515 l 1019 515 l 1019 0 l 883 0 l 865 103 q 776 36 824 63 q 669 -3 728 10 q 539 -17 611 -17 m 556 1025 q 426 1053 476 1025 q 353 1125 376 1082 q 331 1211 331 1168 l 447 1211 q 462 1181 450 1197 q 497 1153 474 1164 q 556 1142 519 1142 q 615 1153 592 1142 q 651 1181 639 1164 q 665 1211 664 1197 l 782 1211 q 758 1125 782 1168 q 685 1053 735 1082 q 556 1025 636 1025 z "},"Ǧ":{"ha":1114,"x_min":71,"x_max":1019,"o":"m 539 -17 q 192 103 314 -17 q 71 476 71 224 q 129 753 71 644 q 299 916 188 863 q 565 969 410 969 q 740 949 658 969 q 885 885 822 928 q 984 777 949 842 q 1019 624 1019 713 l 810 624 q 791 700 810 667 q 739 756 772 733 q 663 789 706 778 q 572 800 619 800 q 446 781 500 800 q 356 724 392 763 q 303 629 321 686 q 285 497 285 572 l 285 456 q 315 285 285 351 q 407 185 346 218 q 558 153 468 153 q 691 176 633 153 q 781 242 749 199 q 814 347 814 285 l 814 357 l 529 357 l 529 515 l 1019 515 l 1019 0 l 883 0 l 865 103 q 776 36 824 63 q 669 -3 728 10 q 539 -17 611 -17 m 306 1211 l 472 1211 l 594 1071 l 517 1069 l 639 1211 l 804 1211 l 650 1026 l 461 1026 l 306 1211 z "},"Ĝ":{"ha":1114,"x_min":71,"x_max":1019,"o":"m 539 -17 q 192 103 314 -17 q 71 476 71 224 q 129 753 71 644 q 299 916 188 863 q 565 969 410 969 q 740 949 658 969 q 885 885 822 928 q 984 777 949 842 q 1019 624 1019 713 l 810 624 q 791 700 810 667 q 739 756 772 733 q 663 789 706 778 q 572 800 619 800 q 446 781 500 800 q 356 724 392 763 q 303 629 321 686 q 285 497 285 572 l 285 456 q 315 285 285 351 q 407 185 346 218 q 558 153 468 153 q 691 176 633 153 q 781 242 749 199 q 814 347 814 285 l 814 357 l 529 357 l 529 515 l 1019 515 l 1019 0 l 883 0 l 865 103 q 776 36 824 63 q 669 -3 728 10 q 539 -17 611 -17 m 306 1026 l 461 1211 l 650 1211 l 804 1026 l 639 1026 l 517 1168 l 594 1167 l 472 1026 l 306 1026 z "},"Ģ":{"ha":1114,"x_min":71,"x_max":1019,"o":"m 539 -17 q 192 103 314 -17 q 71 476 71 224 q 129 753 71 644 q 299 916 188 863 q 565 969 410 969 q 740 949 658 969 q 885 885 822 928 q 984 777 949 842 q 1019 624 1019 713 l 810 624 q 791 700 810 667 q 739 756 772 733 q 663 789 706 778 q 572 800 619 800 q 446 781 500 800 q 356 724 392 763 q 303 629 321 686 q 285 497 285 572 l 285 456 q 315 285 285 351 q 407 185 346 218 q 558 153 468 153 q 691 176 633 153 q 781 242 749 199 q 814 347 814 285 l 814 357 l 529 357 l 529 515 l 1019 515 l 1019 0 l 883 0 l 865 103 q 776 36 824 63 q 669 -3 728 10 q 539 -17 611 -17 m 458 -436 l 458 -361 q 527 -335 506 -361 q 549 -272 549 -310 l 467 -272 l 467 -99 l 643 -99 l 643 -235 q 619 -353 643 -308 q 554 -417 596 -397 q 458 -436 513 -436 z "},"Ġ":{"ha":1114,"x_min":71,"x_max":1019,"o":"m 539 -17 q 192 103 314 -17 q 71 476 71 224 q 129 753 71 644 q 299 916 188 863 q 565 969 410 969 q 740 949 658 969 q 885 885 822 928 q 984 777 949 842 q 1019 624 1019 713 l 810 624 q 791 700 810 667 q 739 756 772 733 q 663 789 706 778 q 572 800 619 800 q 446 781 500 800 q 356 724 392 763 q 303 629 321 686 q 285 497 285 572 l 285 456 q 315 285 285 351 q 407 185 346 218 q 558 153 468 153 q 691 176 633 153 q 781 242 749 199 q 814 347 814 285 l 814 357 l 529 357 l 529 515 l 1019 515 l 1019 0 l 883 0 l 865 103 q 776 36 824 63 q 669 -3 728 10 q 539 -17 611 -17 m 468 1049 l 468 1221 l 644 1221 l 644 1049 l 468 1049 z "},"H":{"ha":1047,"x_min":106,"x_max":942,"o":"m 106 0 l 106 953 l 313 953 l 313 575 l 735 575 l 735 953 l 942 953 l 942 0 l 735 0 l 735 400 l 313 400 l 313 0 l 106 0 z "},"Ħ":{"ha":1047,"x_min":13,"x_max":1033,"o":"m 106 0 l 106 953 l 313 953 l 313 575 l 735 575 l 735 953 l 942 953 l 942 0 l 735 0 l 735 400 l 313 400 l 313 0 l 106 0 m 13 714 l 13 857 l 1033 857 l 1033 714 l 13 714 z "},"Ĥ":{"ha":1047,"x_min":106,"x_max":942,"o":"m 106 0 l 106 953 l 313 953 l 313 575 l 735 575 l 735 953 l 942 953 l 942 0 l 735 0 l 735 400 l 313 400 l 313 0 l 106 0 m 274 1026 l 429 1211 l 618 1211 l 772 1026 l 606 1026 l 485 1168 l 563 1167 l 440 1026 l 274 1026 z "},"Ḥ":{"ha":1047,"x_min":106,"x_max":942,"o":"m 106 0 l 106 953 l 313 953 l 313 575 l 735 575 l 735 953 l 942 953 l 942 0 l 735 0 l 735 400 l 313 400 l 313 0 l 106 0 m 435 -272 l 435 -106 l 611 -106 l 611 -272 l 435 -272 z "},"I":{"ha":418,"x_min":106,"x_max":313,"o":"m 106 0 l 106 953 l 313 953 l 313 0 l 106 0 z "},"Ĳ":{"ha":1256,"x_min":106,"x_max":1154,"o":"m 106 0 l 106 953 l 313 953 l 313 0 l 106 0 m 810 -17 q 623 16 700 -17 q 505 114 546 49 q 464 279 464 179 l 464 322 l 667 322 l 667 279 q 702 184 667 215 q 808 153 738 153 q 911 198 876 153 q 946 328 946 243 l 946 953 l 1154 953 l 1154 328 q 1114 135 1154 213 q 997 21 1074 58 q 810 -17 919 -17 z "},"Í":{"ha":418,"x_min":106,"x_max":442,"o":"m 106 0 l 106 953 l 313 953 l 313 0 l 106 0 m 118 1026 l 233 1211 l 440 1211 l 442 1206 l 276 1026 l 118 1026 z "},"Ĭ":{"ha":418,"x_min":-17,"x_max":436,"o":"m 106 0 l 106 953 l 313 953 l 313 0 l 106 0 m 210 1025 q 80 1053 129 1025 q 7 1125 31 1082 q -17 1211 -17 1168 l 101 1211 q 115 1181 104 1197 q 150 1153 126 1164 q 210 1142 174 1142 q 269 1153 244 1142 q 305 1181 293 1164 q 319 1211 317 1197 l 436 1211 q 413 1125 436 1168 q 339 1053 389 1082 q 210 1025 289 1025 z "},"Ǐ":{"ha":418,"x_min":-40,"x_max":458,"o":"m 106 0 l 106 953 l 313 953 l 313 0 l 106 0 m -40 1211 l 125 1211 l 249 1071 l 169 1069 l 292 1211 l 458 1211 l 304 1026 l 115 1026 l -40 1211 z "},"Î":{"ha":418,"x_min":-40,"x_max":458,"o":"m 106 0 l 106 953 l 313 953 l 313 0 l 106 0 m -40 1026 l 115 1211 l 304 1211 l 458 1026 l 292 1026 l 169 1168 l 249 1167 l 125 1026 l -40 1026 z "},"Ȉ":{"ha":418,"x_min":-133,"x_max":442,"o":"m 106 0 l 106 953 l 313 953 l 313 0 l 106 0 m 290 1026 l 138 1206 l 139 1211 l 339 1211 l 442 1026 l 290 1026 m 21 1026 l -133 1206 l -131 1211 l 69 1211 l 172 1026 l 21 1026 z "},"Ï":{"ha":418,"x_min":-17,"x_max":435,"o":"m 106 0 l 106 953 l 313 953 l 313 0 l 106 0 m -17 1049 l -17 1211 l 147 1211 l 147 1049 l -17 1049 m 271 1049 l 271 1211 l 435 1211 l 435 1049 l 271 1049 z "},"İ":{"ha":418,"x_min":106,"x_max":313,"o":"m 106 0 l 106 953 l 313 953 l 313 0 l 106 0 m 122 1049 l 122 1221 l 297 1221 l 297 1049 l 122 1049 z "},"Ị":{"ha":418,"x_min":106,"x_max":313,"o":"m 106 0 l 106 953 l 313 953 l 313 0 l 106 0 m 121 -272 l 121 -106 l 297 -106 l 297 -272 l 121 -272 z "},"Ì":{"ha":418,"x_min":-11,"x_max":313,"o":"m 106 0 l 106 953 l 313 953 l 313 0 l 106 0 m 313 1026 l 154 1026 l -11 1206 l -10 1211 l 197 1211 l 313 1026 z "},"Ỉ":{"ha":418,"x_min":96,"x_max":367,"o":"m 106 0 l 106 953 l 313 953 l 313 0 l 106 0 m 164 1026 l 164 1104 l 181 1104 q 214 1110 204 1104 q 224 1129 224 1115 q 212 1149 224 1144 q 178 1154 200 1154 l 96 1154 l 96 1217 q 133 1223 113 1221 q 174 1226 153 1225 q 211 1228 194 1228 q 262 1224 235 1228 q 313 1210 289 1219 q 351 1185 336 1201 q 367 1142 367 1168 q 351 1098 367 1115 q 311 1072 336 1081 q 257 1061 286 1064 l 257 1026 l 164 1026 z "},"Ȋ":{"ha":418,"x_min":-17,"x_max":436,"o":"m 106 0 l 106 953 l 313 953 l 313 0 l 106 0 m -17 1025 q 8 1112 -17 1069 q 82 1183 32 1154 q 211 1211 132 1211 q 341 1183 292 1211 q 413 1112 390 1154 q 436 1025 436 1069 l 318 1025 q 303 1056 315 1040 q 269 1082 292 1071 q 211 1093 246 1093 q 151 1082 175 1093 q 115 1056 126 1071 q 101 1025 103 1040 l -17 1025 z "},"Ī":{"ha":418,"x_min":-6,"x_max":422,"o":"m 106 0 l 106 953 l 313 953 l 313 0 l 106 0 m -6 1049 l -6 1168 l 422 1168 l 422 1049 l -6 1049 z "},"Į":{"ha":418,"x_min":44,"x_max":317,"o":"m 106 0 l 106 953 l 313 953 l 313 0 l 106 0 m 197 -261 q 126 -249 161 -261 q 67 -208 90 -237 q 44 -131 44 -179 q 67 -44 44 -79 q 118 17 90 -10 l 235 17 l 235 11 q 202 -30 218 -3 q 186 -86 186 -57 q 203 -137 186 -115 q 257 -160 219 -160 l 317 -160 l 317 -242 q 257 -256 290 -251 q 197 -261 224 -261 z "},"Ĩ":{"ha":418,"x_min":-39,"x_max":457,"o":"m 106 0 l 106 953 l 313 953 l 313 0 l 106 0 m -39 1046 q -24 1131 -39 1092 q 24 1193 -8 1169 q 106 1217 57 1217 q 176 1204 143 1217 q 242 1179 210 1192 q 307 1167 274 1167 q 341 1178 328 1167 q 358 1217 354 1189 l 457 1217 q 441 1133 457 1172 q 393 1070 425 1094 q 313 1046 361 1046 q 241 1058 275 1046 q 176 1084 207 1071 q 111 1097 144 1097 q 78 1085 92 1097 q 60 1046 64 1072 l -39 1046 z "},"J":{"ha":838,"x_min":46,"x_max":736,"o":"m 392 -17 q 205 16 282 -17 q 87 114 128 49 q 46 279 46 179 l 46 322 l 249 322 l 249 279 q 284 184 249 215 q 390 153 319 153 q 493 198 458 153 q 528 328 528 243 l 528 953 l 736 953 l 736 328 q 696 135 736 213 q 578 21 656 58 q 392 -17 501 -17 z "},"Ĵ":{"ha":838,"x_min":46,"x_max":882,"o":"m 392 -17 q 205 16 282 -17 q 87 114 128 49 q 46 279 46 179 l 46 322 l 249 322 l 249 279 q 284 184 249 215 q 390 153 319 153 q 493 198 458 153 q 528 328 528 243 l 528 953 l 736 953 l 736 328 q 696 135 736 213 q 578 21 656 58 q 392 -17 501 -17 m 383 1026 l 539 1211 l 728 1211 l 882 1026 l 715 1026 l 593 1168 l 672 1167 l 549 1026 l 383 1026 z "},"K":{"ha":1007,"x_min":106,"x_max":981,"o":"m 106 0 l 106 953 l 313 953 l 313 519 l 718 953 l 974 953 l 610 565 l 981 0 l 733 0 l 467 422 l 313 283 l 313 0 l 106 0 z "},"Ķ":{"ha":1007,"x_min":106,"x_max":981,"o":"m 106 0 l 106 953 l 313 953 l 313 519 l 718 953 l 974 953 l 610 565 l 981 0 l 733 0 l 467 422 l 313 283 l 313 0 l 106 0 m 421 -436 l 421 -361 q 490 -335 468 -361 q 511 -272 511 -310 l 429 -272 l 429 -99 l 606 -99 l 606 -235 q 582 -353 606 -308 q 517 -417 558 -397 q 421 -436 475 -436 z "},"L":{"ha":821,"x_min":106,"x_max":793,"o":"m 106 0 l 106 953 l 313 953 l 313 176 l 793 176 l 793 0 l 106 0 z "},"Ǉ":{"ha":1631,"x_min":106,"x_max":1529,"o":"m 106 0 l 106 953 l 313 953 l 313 176 l 793 176 l 793 0 l 106 0 m 1185 -17 q 998 16 1075 -17 q 880 114 921 49 q 839 279 839 179 l 839 322 l 1042 322 l 1042 279 q 1077 184 1042 215 q 1183 153 1113 153 q 1286 198 1251 153 q 1321 328 1321 243 l 1321 953 l 1529 953 l 1529 328 q 1489 135 1529 213 q 1372 21 1449 58 q 1185 -17 1294 -17 z "},"Ĺ":{"ha":821,"x_min":106,"x_max":793,"o":"m 106 0 l 106 953 l 313 953 l 313 176 l 793 176 l 793 0 l 106 0 m 118 1026 l 233 1211 l 440 1211 l 442 1206 l 275 1026 l 118 1026 z "},"Ľ":{"ha":821,"x_min":106,"x_max":793,"o":"m 106 0 l 106 953 l 313 953 l 313 176 l 793 176 l 793 0 l 106 0 m 533 771 l 533 1004 l 707 1004 l 660 771 l 533 771 z "},"Ļ":{"ha":821,"x_min":106,"x_max":793,"o":"m 106 0 l 106 953 l 313 953 l 313 176 l 793 176 l 793 0 l 106 0 m 356 -436 l 356 -361 q 423 -335 401 -361 q 444 -272 444 -310 l 364 -272 l 364 -99 l 540 -99 l 540 -235 q 516 -353 540 -308 q 450 -417 492 -397 q 356 -436 408 -436 z "},"Ŀ":{"ha":821,"x_min":106,"x_max":793,"o":"m 106 0 l 106 953 l 313 953 l 313 176 l 793 176 l 793 0 l 106 0 m 522 443 l 522 606 l 707 606 l 707 443 l 522 443 z "},"ǈ":{"ha":1188,"x_min":106,"x_max":1103,"o":"m 106 0 l 106 953 l 313 953 l 313 176 l 793 176 l 793 0 l 106 0 m 910 838 l 910 1004 l 1103 1004 l 1103 838 l 910 838 m 906 -261 q 862 -258 886 -261 q 814 -251 838 -256 q 775 -239 790 -246 l 775 -112 l 844 -112 q 893 -95 876 -112 q 910 -44 910 -78 l 910 731 l 1103 731 l 1103 -60 q 1084 -161 1103 -115 q 1023 -234 1065 -207 q 906 -261 981 -261 z "},"Ł":{"ha":821,"x_min":0,"x_max":793,"o":"m 106 0 l 106 953 l 313 953 l 313 176 l 793 176 l 793 0 l 106 0 m 0 253 l 0 386 l 513 719 l 513 585 l 0 253 z "},"M":{"ha":1211,"x_min":106,"x_max":1106,"o":"m 106 0 l 106 953 l 421 953 l 557 465 q 574 403 565 439 q 591 331 582 367 q 606 268 600 296 l 617 268 q 626 324 619 292 q 642 394 633 357 q 660 467 650 432 l 796 953 l 1106 953 l 1106 0 l 901 0 l 901 451 q 902 577 901 514 q 905 688 903 640 q 907 749 907 735 l 896 749 q 883 692 893 733 q 860 606 872 651 q 839 526 849 560 l 690 0 l 510 0 l 360 525 q 341 594 351 554 q 322 676 331 633 q 304 749 313 718 l 293 749 q 296 659 294 711 q 299 552 297 607 q 300 451 300 497 l 300 0 l 106 0 z "},"N":{"ha":1047,"x_min":106,"x_max":942,"o":"m 106 0 l 106 953 l 296 953 l 679 439 q 700 412 688 429 q 724 378 713 394 q 739 351 735 361 l 746 351 q 746 398 746 375 q 746 439 746 421 l 746 953 l 942 953 l 942 0 l 751 0 l 360 526 q 331 569 346 546 q 308 606 315 593 l 301 606 q 301 565 301 585 q 301 526 301 544 l 301 0 l 106 0 z "},"Ǌ":{"ha":1885,"x_min":106,"x_max":1783,"o":"m 106 0 l 106 953 l 296 953 l 679 439 q 700 412 688 429 q 724 378 713 394 q 739 351 735 361 l 746 351 q 746 398 746 375 q 746 439 746 421 l 746 953 l 942 953 l 942 0 l 751 0 l 360 526 q 331 569 346 546 q 308 606 315 593 l 301 606 q 301 565 301 585 q 301 526 301 544 l 301 0 l 106 0 m 1439 -17 q 1252 16 1329 -17 q 1134 114 1175 49 q 1093 279 1093 179 l 1093 322 l 1296 322 l 1296 279 q 1331 184 1296 215 q 1438 153 1367 153 q 1540 198 1506 153 q 1575 328 1575 243 l 1575 953 l 1783 953 l 1783 328 q 1743 135 1783 213 q 1626 21 1703 58 q 1439 -17 1549 -17 z "},"Ń":{"ha":1047,"x_min":106,"x_max":942,"o":"m 106 0 l 106 953 l 296 953 l 679 439 q 700 412 688 429 q 724 378 713 394 q 739 351 735 361 l 746 351 q 746 398 746 375 q 746 439 746 421 l 746 953 l 942 953 l 942 0 l 751 0 l 360 526 q 331 569 346 546 q 308 606 315 593 l 301 606 q 301 565 301 585 q 301 526 301 544 l 301 0 l 106 0 m 432 1026 l 549 1211 l 754 1211 l 756 1206 l 590 1026 l 432 1026 z "},"Ň":{"ha":1047,"x_min":106,"x_max":942,"o":"m 106 0 l 106 953 l 296 953 l 679 439 q 700 412 688 429 q 724 378 713 394 q 739 351 735 361 l 746 351 q 746 398 746 375 q 746 439 746 421 l 746 953 l 942 953 l 942 0 l 751 0 l 360 526 q 331 569 346 546 q 308 606 315 593 l 301 606 q 301 565 301 585 q 301 526 301 544 l 301 0 l 106 0 m 274 1211 l 440 1211 l 563 1071 l 485 1069 l 607 1211 l 772 1211 l 618 1026 l 429 1026 l 274 1211 z "},"Ņ":{"ha":1047,"x_min":106,"x_max":942,"o":"m 106 0 l 106 953 l 296 953 l 679 439 q 700 412 688 429 q 724 378 713 394 q 739 351 735 361 l 746 351 q 746 398 746 375 q 746 439 746 421 l 746 953 l 942 953 l 942 0 l 751 0 l 360 526 q 331 569 346 546 q 308 606 315 593 l 301 606 q 301 565 301 585 q 301 526 301 544 l 301 0 l 106 0 m 426 -436 l 426 -361 q 494 -335 472 -361 q 515 -272 515 -310 l 435 -272 l 435 -99 l 611 -99 l 611 -235 q 587 -353 611 -308 q 521 -417 563 -397 q 426 -436 479 -436 z "},"Ŋ":{"ha":1047,"x_min":106,"x_max":942,"o":"m 746 -261 q 700 -258 725 -261 q 651 -249 675 -254 q 611 -239 628 -244 l 611 -111 l 681 -111 q 730 -94 714 -111 q 746 -44 746 -78 l 746 7 l 360 526 q 331 568 346 544 q 310 603 317 592 l 303 601 q 303 565 303 583 q 303 526 303 546 l 303 0 l 106 0 l 106 953 l 297 953 l 681 439 q 699 413 688 429 q 722 380 711 396 q 738 354 733 364 l 744 354 q 744 397 744 376 q 744 439 744 418 l 744 953 l 942 953 l 942 -60 q 932 -137 942 -100 q 899 -201 922 -174 q 838 -245 875 -229 q 746 -261 800 -261 z "},"Ɲ":{"ha":1047,"x_min":-29,"x_max":942,"o":"m 104 -261 q 58 -258 83 -261 q 10 -249 33 -254 q -29 -239 -12 -244 l -29 -111 l 39 -111 q 89 -94 72 -111 q 106 -44 106 -78 l 106 953 l 297 953 l 681 439 q 699 413 688 429 q 722 380 711 396 q 738 354 733 364 l 744 356 q 744 397 744 376 q 744 439 744 418 l 744 953 l 942 953 l 942 0 l 751 0 l 360 526 q 331 568 346 544 q 310 603 317 592 l 303 601 q 303 565 303 583 q 303 526 303 546 l 303 -60 q 292 -137 303 -100 q 257 -201 281 -174 q 196 -245 233 -229 q 104 -261 158 -261 z "},"ǋ":{"ha":1414,"x_min":106,"x_max":1329,"o":"m 106 0 l 106 953 l 296 953 l 679 439 q 700 412 688 429 q 724 378 713 394 q 739 351 735 361 l 746 351 q 746 398 746 375 q 746 439 746 421 l 746 953 l 942 953 l 942 0 l 751 0 l 360 526 q 331 569 346 546 q 308 606 315 593 l 301 606 q 301 565 301 585 q 301 526 301 544 l 301 0 l 106 0 m 1136 838 l 1136 1004 l 1329 1004 l 1329 838 l 1136 838 m 1132 -261 q 1088 -258 1113 -261 q 1040 -251 1064 -256 q 1001 -239 1017 -246 l 1001 -112 l 1071 -112 q 1119 -95 1103 -112 q 1136 -44 1136 -78 l 1136 731 l 1329 731 l 1329 -60 q 1310 -161 1329 -115 q 1249 -234 1292 -207 q 1132 -261 1207 -261 z "},"Ñ":{"ha":1047,"x_min":106,"x_max":942,"o":"m 106 0 l 106 953 l 296 953 l 679 439 q 700 412 688 429 q 724 378 713 394 q 739 351 735 361 l 746 351 q 746 398 746 375 q 746 439 746 421 l 746 953 l 942 953 l 942 0 l 751 0 l 360 526 q 331 569 346 546 q 308 606 315 593 l 301 606 q 301 565 301 585 q 301 526 301 544 l 301 0 l 106 0 m 275 1046 q 291 1131 275 1092 q 339 1193 307 1169 q 419 1217 371 1217 q 490 1204 457 1217 q 556 1179 524 1192 q 622 1167 589 1167 q 656 1178 643 1167 q 672 1217 669 1189 l 771 1217 q 756 1133 771 1172 q 708 1070 740 1094 q 626 1046 676 1046 q 556 1058 590 1046 q 490 1084 522 1071 q 425 1097 458 1097 q 392 1085 406 1097 q 375 1046 378 1072 l 275 1046 z "},"O":{"ha":1101,"x_min":63,"x_max":1039,"o":"m 550 -17 q 289 38 399 -17 q 121 201 179 92 q 63 476 63 311 q 121 753 63 644 q 289 916 179 863 q 550 969 399 969 q 813 916 704 969 q 981 753 922 863 q 1039 476 1039 644 q 981 201 1039 311 q 813 38 922 92 q 550 -17 704 -17 m 550 153 q 669 172 618 153 q 756 231 721 192 q 808 326 790 269 q 826 454 826 382 l 826 497 q 808 628 826 571 q 756 723 790 685 q 669 781 721 761 q 550 800 618 800 q 432 781 483 800 q 346 723 381 761 q 294 628 311 685 q 276 497 276 571 l 276 454 q 294 326 276 382 q 346 231 311 269 q 432 172 381 192 q 550 153 483 153 z "},"Ó":{"ha":1101,"x_min":63,"x_max":1039,"o":"m 550 -17 q 289 38 399 -17 q 121 201 179 92 q 63 476 63 311 q 121 753 63 644 q 289 916 179 863 q 550 969 399 969 q 813 916 704 969 q 981 753 922 863 q 1039 476 1039 644 q 981 201 1039 311 q 813 38 922 92 q 550 -17 704 -17 m 550 153 q 669 172 618 153 q 756 231 721 192 q 808 326 790 269 q 826 454 826 382 l 826 497 q 808 628 826 571 q 756 723 790 685 q 669 781 721 761 q 550 800 618 800 q 432 781 483 800 q 346 723 381 761 q 294 628 311 685 q 276 497 276 571 l 276 454 q 294 326 276 382 q 346 231 311 269 q 432 172 381 192 q 550 153 483 153 m 460 1026 l 575 1211 l 782 1211 l 783 1206 l 617 1026 l 460 1026 z "},"Ŏ":{"ha":1101,"x_min":63,"x_max":1039,"o":"m 550 -17 q 289 38 399 -17 q 121 201 179 92 q 63 476 63 311 q 121 753 63 644 q 289 916 179 863 q 550 969 399 969 q 813 916 704 969 q 981 753 922 863 q 1039 476 1039 644 q 981 201 1039 311 q 813 38 922 92 q 550 -17 704 -17 m 550 153 q 669 172 618 153 q 756 231 721 192 q 808 326 790 269 q 826 454 826 382 l 826 497 q 808 628 826 571 q 756 723 790 685 q 669 781 721 761 q 550 800 618 800 q 432 781 483 800 q 346 723 381 761 q 294 628 311 685 q 276 497 276 571 l 276 454 q 294 326 276 382 q 346 231 311 269 q 432 172 381 192 q 550 153 483 153 m 550 1025 q 421 1053 471 1025 q 348 1125 371 1082 q 325 1211 325 1168 l 443 1211 q 457 1181 446 1197 q 492 1153 468 1164 q 550 1142 515 1142 q 610 1153 586 1142 q 647 1181 635 1164 q 660 1211 658 1197 l 778 1211 q 753 1125 778 1168 q 680 1053 729 1082 q 550 1025 631 1025 z "},"Ǒ":{"ha":1101,"x_min":63,"x_max":1039,"o":"m 550 -17 q 289 38 399 -17 q 121 201 179 92 q 63 476 63 311 q 121 753 63 644 q 289 916 179 863 q 550 969 399 969 q 813 916 704 969 q 981 753 922 863 q 1039 476 1039 644 q 981 201 1039 311 q 813 38 922 92 q 550 -17 704 -17 m 550 153 q 669 172 618 153 q 756 231 721 192 q 808 326 790 269 q 826 454 826 382 l 826 497 q 808 628 826 571 q 756 723 790 685 q 669 781 721 761 q 550 800 618 800 q 432 781 483 800 q 346 723 381 761 q 294 628 311 685 q 276 497 276 571 l 276 454 q 294 326 276 382 q 346 231 311 269 q 432 172 381 192 q 550 153 483 153 m 301 1211 l 467 1211 l 590 1071 l 511 1069 l 633 1211 l 800 1211 l 646 1026 l 457 1026 l 301 1211 z "},"Ô":{"ha":1101,"x_min":63,"x_max":1039,"o":"m 550 -17 q 289 38 399 -17 q 121 201 179 92 q 63 476 63 311 q 121 753 63 644 q 289 916 179 863 q 550 969 399 969 q 813 916 704 969 q 981 753 922 863 q 1039 476 1039 644 q 981 201 1039 311 q 813 38 922 92 q 550 -17 704 -17 m 550 153 q 669 172 618 153 q 756 231 721 192 q 808 326 790 269 q 826 454 826 382 l 826 497 q 808 628 826 571 q 756 723 790 685 q 669 781 721 761 q 550 800 618 800 q 432 781 483 800 q 346 723 381 761 q 294 628 311 685 q 276 497 276 571 l 276 454 q 294 326 276 382 q 346 231 311 269 q 432 172 381 192 q 550 153 483 153 m 301 1026 l 457 1211 l 646 1211 l 800 1026 l 633 1026 l 511 1168 l 590 1167 l 467 1026 l 301 1026 z "},"Ố":{"ha":1101,"x_min":63,"x_max":1039,"o":"m 550 -17 q 289 38 399 -17 q 121 201 179 92 q 63 476 63 311 q 121 753 63 644 q 289 916 179 863 q 550 969 399 969 q 813 916 704 969 q 981 753 922 863 q 1039 476 1039 644 q 981 201 1039 311 q 813 38 922 92 q 550 -17 704 -17 m 550 153 q 669 172 618 153 q 756 231 721 192 q 808 326 790 269 q 826 454 826 382 l 826 497 q 808 628 826 571 q 756 723 790 685 q 669 781 721 761 q 550 800 618 800 q 432 781 483 800 q 346 723 381 761 q 294 628 311 685 q 276 497 276 571 l 276 454 q 294 326 276 382 q 346 231 311 269 q 432 172 381 192 q 550 153 483 153 m 301 1026 l 457 1211 l 646 1211 l 800 1026 l 633 1026 l 511 1168 l 590 1167 l 467 1026 l 301 1026 m 460 1254 l 575 1438 l 782 1438 l 783 1433 l 617 1254 l 460 1254 z "},"Ộ":{"ha":1101,"x_min":63,"x_max":1039,"o":"m 550 -17 q 289 38 399 -17 q 121 201 179 92 q 63 476 63 311 q 121 753 63 644 q 289 916 179 863 q 550 969 399 969 q 813 916 704 969 q 981 753 922 863 q 1039 476 1039 644 q 981 201 1039 311 q 813 38 922 92 q 550 -17 704 -17 m 550 153 q 669 172 618 153 q 756 231 721 192 q 808 326 790 269 q 826 454 826 382 l 826 497 q 808 628 826 571 q 756 723 790 685 q 669 781 721 761 q 550 800 618 800 q 432 781 483 800 q 346 723 381 761 q 294 628 311 685 q 276 497 276 571 l 276 454 q 294 326 276 382 q 346 231 311 269 q 432 172 381 192 q 550 153 483 153 m 463 -272 l 463 -106 l 639 -106 l 639 -272 l 463 -272 m 301 1026 l 457 1211 l 646 1211 l 800 1026 l 633 1026 l 511 1168 l 590 1167 l 467 1026 l 301 1026 z "},"Ồ":{"ha":1101,"x_min":63,"x_max":1039,"o":"m 550 -17 q 289 38 399 -17 q 121 201 179 92 q 63 476 63 311 q 121 753 63 644 q 289 916 179 863 q 550 969 399 969 q 813 916 704 969 q 981 753 922 863 q 1039 476 1039 644 q 981 201 1039 311 q 813 38 922 92 q 550 -17 704 -17 m 550 153 q 669 172 618 153 q 756 231 721 192 q 808 326 790 269 q 826 454 826 382 l 826 497 q 808 628 826 571 q 756 723 790 685 q 669 781 721 761 q 550 800 618 800 q 432 781 483 800 q 346 723 381 761 q 294 628 311 685 q 276 497 276 571 l 276 454 q 294 326 276 382 q 346 231 311 269 q 432 172 381 192 q 550 153 483 153 m 301 1026 l 457 1211 l 646 1211 l 800 1026 l 633 1026 l 511 1168 l 590 1167 l 467 1026 l 301 1026 m 654 1254 l 496 1254 l 331 1433 l 332 1438 l 538 1438 l 654 1254 z "},"Ổ":{"ha":1101,"x_min":63,"x_max":1039,"o":"m 550 -17 q 289 38 399 -17 q 121 201 179 92 q 63 476 63 311 q 121 753 63 644 q 289 916 179 863 q 550 969 399 969 q 813 916 704 969 q 981 753 922 863 q 1039 476 1039 644 q 981 201 1039 311 q 813 38 922 92 q 550 -17 704 -17 m 550 153 q 669 172 618 153 q 756 231 721 192 q 808 326 790 269 q 826 454 826 382 l 826 497 q 808 628 826 571 q 756 723 790 685 q 669 781 721 761 q 550 800 618 800 q 432 781 483 800 q 346 723 381 761 q 294 628 311 685 q 276 497 276 571 l 276 454 q 294 326 276 382 q 346 231 311 269 q 432 172 381 192 q 550 153 483 153 m 301 1026 l 457 1211 l 646 1211 l 800 1026 l 633 1026 l 511 1168 l 590 1167 l 467 1026 l 301 1026 m 504 1253 l 504 1331 l 522 1331 q 556 1337 546 1331 q 565 1357 565 1343 q 553 1377 565 1372 q 518 1382 542 1382 l 438 1382 l 438 1443 q 474 1449 454 1447 q 515 1453 494 1451 q 551 1454 535 1454 q 603 1451 576 1454 q 654 1438 631 1447 q 693 1411 678 1428 q 708 1368 708 1394 q 692 1325 708 1342 q 651 1300 676 1308 q 599 1289 626 1292 l 599 1253 l 504 1253 z "},"Ỗ":{"ha":1101,"x_min":63,"x_max":1039,"o":"m 550 -17 q 289 38 399 -17 q 121 201 179 92 q 63 476 63 311 q 121 753 63 644 q 289 916 179 863 q 550 969 399 969 q 813 916 704 969 q 981 753 922 863 q 1039 476 1039 644 q 981 201 1039 311 q 813 38 922 92 q 550 -17 704 -17 m 550 153 q 669 172 618 153 q 756 231 721 192 q 808 326 790 269 q 826 454 826 382 l 826 497 q 808 628 826 571 q 756 723 790 685 q 669 781 721 761 q 550 800 618 800 q 432 781 483 800 q 346 723 381 761 q 294 628 311 685 q 276 497 276 571 l 276 454 q 294 326 276 382 q 346 231 311 269 q 432 172 381 192 q 550 153 483 153 m 301 1026 l 457 1211 l 646 1211 l 800 1026 l 633 1026 l 511 1168 l 590 1167 l 467 1026 l 301 1026 m 301 1274 q 317 1357 301 1318 q 366 1419 333 1396 q 446 1443 399 1443 q 518 1431 485 1443 q 583 1406 551 1419 q 649 1393 615 1393 q 683 1405 669 1393 q 700 1443 696 1417 l 799 1443 q 783 1360 799 1399 q 735 1297 767 1321 q 654 1274 703 1274 q 583 1286 617 1274 q 517 1311 549 1299 q 453 1324 486 1324 q 419 1312 432 1324 q 401 1274 406 1300 l 301 1274 z "},"Ȍ":{"ha":1101,"x_min":63,"x_max":1039,"o":"m 550 -17 q 289 38 399 -17 q 121 201 179 92 q 63 476 63 311 q 121 753 63 644 q 289 916 179 863 q 550 969 399 969 q 813 916 704 969 q 981 753 922 863 q 1039 476 1039 644 q 981 201 1039 311 q 813 38 922 92 q 550 -17 704 -17 m 550 153 q 669 172 618 153 q 756 231 721 192 q 808 326 790 269 q 826 454 826 382 l 826 497 q 808 628 826 571 q 756 723 790 685 q 669 781 721 761 q 550 800 618 800 q 432 781 483 800 q 346 723 381 761 q 294 628 311 685 q 276 497 276 571 l 276 454 q 294 326 276 382 q 346 231 311 269 q 432 172 381 192 q 550 153 483 153 m 632 1026 l 479 1206 l 481 1211 l 681 1211 l 783 1026 l 632 1026 m 363 1026 l 208 1206 l 211 1211 l 411 1211 l 514 1026 l 363 1026 z "},"Ö":{"ha":1101,"x_min":63,"x_max":1039,"o":"m 550 -17 q 289 38 399 -17 q 121 201 179 92 q 63 476 63 311 q 121 753 63 644 q 289 916 179 863 q 550 969 399 969 q 813 916 704 969 q 981 753 922 863 q 1039 476 1039 644 q 981 201 1039 311 q 813 38 922 92 q 550 -17 704 -17 m 550 153 q 669 172 618 153 q 756 231 721 192 q 808 326 790 269 q 826 454 826 382 l 826 497 q 808 628 826 571 q 756 723 790 685 q 669 781 721 761 q 550 800 618 800 q 432 781 483 800 q 346 723 381 761 q 294 628 311 685 q 276 497 276 571 l 276 454 q 294 326 276 382 q 346 231 311 269 q 432 172 381 192 q 550 153 483 153 m 325 1049 l 325 1211 l 489 1211 l 489 1049 l 325 1049 m 613 1049 l 613 1211 l 776 1211 l 776 1049 l 613 1049 z "},"Ȫ":{"ha":1101,"x_min":63,"x_max":1039,"o":"m 550 -17 q 289 38 399 -17 q 121 201 179 92 q 63 476 63 311 q 121 753 63 644 q 289 916 179 863 q 550 969 399 969 q 813 916 704 969 q 981 753 922 863 q 1039 476 1039 644 q 981 201 1039 311 q 813 38 922 92 q 550 -17 704 -17 m 550 153 q 669 172 618 153 q 756 231 721 192 q 808 326 790 269 q 826 454 826 382 l 826 497 q 808 628 826 571 q 756 723 790 685 q 669 781 721 761 q 550 800 618 800 q 432 781 483 800 q 346 723 381 761 q 294 628 311 685 q 276 497 276 571 l 276 454 q 294 326 276 382 q 346 231 311 269 q 432 172 381 192 q 550 153 483 153 m 325 1049 l 325 1211 l 489 1211 l 489 1049 l 325 1049 m 613 1049 l 613 1211 l 776 1211 l 776 1049 l 613 1049 m 336 1292 l 336 1413 l 764 1413 l 764 1292 l 336 1292 z "},"Ȱ":{"ha":1101,"x_min":63,"x_max":1039,"o":"m 550 -17 q 289 38 399 -17 q 121 201 179 92 q 63 476 63 311 q 121 753 63 644 q 289 916 179 863 q 550 969 399 969 q 813 916 704 969 q 981 753 922 863 q 1039 476 1039 644 q 981 201 1039 311 q 813 38 922 92 q 550 -17 704 -17 m 550 153 q 669 172 618 153 q 756 231 721 192 q 808 326 790 269 q 826 454 826 382 l 826 497 q 808 628 826 571 q 756 723 790 685 q 669 781 721 761 q 550 800 618 800 q 432 781 483 800 q 346 723 381 761 q 294 628 311 685 q 276 497 276 571 l 276 454 q 294 326 276 382 q 346 231 311 269 q 432 172 381 192 q 550 153 483 153 m 463 1049 l 463 1221 l 639 1221 l 639 1049 l 463 1049 m 338 1292 l 338 1413 l 764 1413 l 764 1292 l 338 1292 z "},"Ọ":{"ha":1101,"x_min":63,"x_max":1039,"o":"m 550 -17 q 289 38 399 -17 q 121 201 179 92 q 63 476 63 311 q 121 753 63 644 q 289 916 179 863 q 550 969 399 969 q 813 916 704 969 q 981 753 922 863 q 1039 476 1039 644 q 981 201 1039 311 q 813 38 922 92 q 550 -17 704 -17 m 550 153 q 669 172 618 153 q 756 231 721 192 q 808 326 790 269 q 826 454 826 382 l 826 497 q 808 628 826 571 q 756 723 790 685 q 669 781 721 761 q 550 800 618 800 q 432 781 483 800 q 346 723 381 761 q 294 628 311 685 q 276 497 276 571 l 276 454 q 294 326 276 382 q 346 231 311 269 q 432 172 381 192 q 550 153 483 153 m 463 -272 l 463 -106 l 639 -106 l 639 -272 l 463 -272 z "},"Ò":{"ha":1101,"x_min":63,"x_max":1039,"o":"m 550 -17 q 289 38 399 -17 q 121 201 179 92 q 63 476 63 311 q 121 753 63 644 q 289 916 179 863 q 550 969 399 969 q 813 916 704 969 q 981 753 922 863 q 1039 476 1039 644 q 981 201 1039 311 q 813 38 922 92 q 550 -17 704 -17 m 550 153 q 669 172 618 153 q 756 231 721 192 q 808 326 790 269 q 826 454 826 382 l 826 497 q 808 628 826 571 q 756 723 790 685 q 669 781 721 761 q 550 800 618 800 q 432 781 483 800 q 346 723 381 761 q 294 628 311 685 q 276 497 276 571 l 276 454 q 294 326 276 382 q 346 231 311 269 q 432 172 381 192 q 550 153 483 153 m 654 1026 l 496 1026 l 331 1206 l 332 1211 l 538 1211 l 654 1026 z "},"Ỏ":{"ha":1101,"x_min":63,"x_max":1039,"o":"m 550 -17 q 289 38 399 -17 q 121 201 179 92 q 63 476 63 311 q 121 753 63 644 q 289 916 179 863 q 550 969 399 969 q 813 916 704 969 q 981 753 922 863 q 1039 476 1039 644 q 981 201 1039 311 q 813 38 922 92 q 550 -17 704 -17 m 550 153 q 669 172 618 153 q 756 231 721 192 q 808 326 790 269 q 826 454 826 382 l 826 497 q 808 628 826 571 q 756 723 790 685 q 669 781 721 761 q 550 800 618 800 q 432 781 483 800 q 346 723 381 761 q 294 628 311 685 q 276 497 276 571 l 276 454 q 294 326 276 382 q 346 231 311 269 q 432 172 381 192 q 550 153 483 153 m 504 1026 l 504 1104 l 522 1104 q 556 1110 546 1104 q 565 1129 565 1115 q 553 1149 565 1144 q 518 1154 542 1154 l 438 1154 l 438 1217 q 474 1223 454 1221 q 515 1226 494 1225 q 551 1228 535 1228 q 603 1224 576 1228 q 654 1210 631 1219 q 693 1185 678 1201 q 708 1142 708 1168 q 692 1098 708 1115 q 651 1072 676 1081 q 599 1061 626 1064 l 599 1026 l 504 1026 z "},"Ơ":{"ha":1101,"x_min":63,"x_max":1131,"o":"m 550 -17 q 289 38 399 -17 q 121 201 179 92 q 63 476 63 311 q 121 753 63 644 q 289 916 179 863 q 550 969 399 969 q 813 916 704 969 q 981 753 922 863 q 1039 476 1039 644 q 981 201 1039 311 q 813 38 922 92 q 550 -17 704 -17 m 550 153 q 669 172 618 153 q 756 231 721 192 q 808 326 790 269 q 826 454 826 382 l 826 497 q 808 628 826 571 q 756 723 790 685 q 669 781 721 761 q 550 800 618 800 q 432 781 483 800 q 346 723 381 761 q 294 628 311 685 q 276 497 276 571 l 276 454 q 294 326 276 382 q 346 231 311 269 q 432 172 381 192 q 550 153 483 153 m 839 769 l 839 865 q 960 892 915 865 q 1008 968 1006 919 l 917 968 l 917 1151 l 1131 1151 l 1131 1024 q 1095 888 1131 944 q 995 800 1060 831 q 839 769 931 769 z "},"Ớ":{"ha":1101,"x_min":63,"x_max":1131,"o":"m 550 -17 q 289 38 399 -17 q 121 201 179 92 q 63 476 63 311 q 121 753 63 644 q 289 916 179 863 q 550 969 399 969 q 813 916 704 969 q 981 753 922 863 q 1039 476 1039 644 q 981 201 1039 311 q 813 38 922 92 q 550 -17 704 -17 m 550 153 q 669 172 618 153 q 756 231 721 192 q 808 326 790 269 q 826 454 826 382 l 826 497 q 808 628 826 571 q 756 723 790 685 q 669 781 721 761 q 550 800 618 800 q 432 781 483 800 q 346 723 381 761 q 294 628 311 685 q 276 497 276 571 l 276 454 q 294 326 276 382 q 346 231 311 269 q 432 172 381 192 q 550 153 483 153 m 839 769 l 839 865 q 960 892 915 865 q 1008 968 1006 919 l 917 968 l 917 1151 l 1131 1151 l 1131 1024 q 1095 888 1131 944 q 995 800 1060 831 q 839 769 931 769 m 460 1026 l 575 1211 l 782 1211 l 783 1206 l 618 1026 l 460 1026 z "},"Ợ":{"ha":1101,"x_min":63,"x_max":1131,"o":"m 550 -17 q 289 38 399 -17 q 121 201 179 92 q 63 476 63 311 q 121 753 63 644 q 289 916 179 863 q 550 969 399 969 q 813 916 704 969 q 981 753 922 863 q 1039 476 1039 644 q 981 201 1039 311 q 813 38 922 92 q 550 -17 704 -17 m 550 153 q 669 172 618 153 q 756 231 721 192 q 808 326 790 269 q 826 454 826 382 l 826 497 q 808 628 826 571 q 756 723 790 685 q 669 781 721 761 q 550 800 618 800 q 432 781 483 800 q 346 723 381 761 q 294 628 311 685 q 276 497 276 571 l 276 454 q 294 326 276 382 q 346 231 311 269 q 432 172 381 192 q 550 153 483 153 m 839 769 l 839 865 q 960 892 915 865 q 1008 968 1006 919 l 917 968 l 917 1151 l 1131 1151 l 1131 1024 q 1095 888 1131 944 q 995 800 1060 831 q 839 769 931 769 m 463 -272 l 463 -106 l 639 -106 l 639 -272 l 463 -272 z "},"Ờ":{"ha":1101,"x_min":63,"x_max":1131,"o":"m 550 -17 q 289 38 399 -17 q 121 201 179 92 q 63 476 63 311 q 121 753 63 644 q 289 916 179 863 q 550 969 399 969 q 813 916 704 969 q 981 753 922 863 q 1039 476 1039 644 q 981 201 1039 311 q 813 38 922 92 q 550 -17 704 -17 m 550 153 q 669 172 618 153 q 756 231 721 192 q 808 326 790 269 q 826 454 826 382 l 826 497 q 808 628 826 571 q 756 723 790 685 q 669 781 721 761 q 550 800 618 800 q 432 781 483 800 q 346 723 381 761 q 294 628 311 685 q 276 497 276 571 l 276 454 q 294 326 276 382 q 346 231 311 269 q 432 172 381 192 q 550 153 483 153 m 839 769 l 839 865 q 960 892 915 865 q 1008 968 1006 919 l 917 968 l 917 1151 l 1131 1151 l 1131 1024 q 1095 888 1131 944 q 995 800 1060 831 q 839 769 931 769 m 654 1026 l 496 1026 l 331 1206 l 332 1211 l 539 1211 l 654 1026 z "},"Ở":{"ha":1101,"x_min":63,"x_max":1131,"o":"m 550 -17 q 289 38 399 -17 q 121 201 179 92 q 63 476 63 311 q 121 753 63 644 q 289 916 179 863 q 550 969 399 969 q 813 916 704 969 q 981 753 922 863 q 1039 476 1039 644 q 981 201 1039 311 q 813 38 922 92 q 550 -17 704 -17 m 550 153 q 669 172 618 153 q 756 231 721 192 q 808 326 790 269 q 826 454 826 382 l 826 497 q 808 628 826 571 q 756 723 790 685 q 669 781 721 761 q 550 800 618 800 q 432 781 483 800 q 346 723 381 761 q 294 628 311 685 q 276 497 276 571 l 276 454 q 294 326 276 382 q 346 231 311 269 q 432 172 381 192 q 550 153 483 153 m 839 769 l 839 865 q 960 892 915 865 q 1008 968 1006 919 l 917 968 l 917 1151 l 1131 1151 l 1131 1024 q 1095 888 1131 944 q 995 800 1060 831 q 839 769 931 769 m 506 1026 l 506 1104 l 522 1104 q 556 1110 546 1104 q 565 1129 565 1115 q 553 1149 565 1144 q 519 1154 542 1154 l 438 1154 l 438 1217 q 474 1223 454 1221 q 515 1226 494 1225 q 553 1228 536 1228 q 603 1224 576 1228 q 654 1210 631 1219 q 694 1185 678 1201 q 710 1142 710 1168 q 694 1098 710 1115 q 653 1072 678 1081 q 599 1061 628 1064 l 599 1026 l 506 1026 z "},"Ỡ":{"ha":1101,"x_min":63,"x_max":1131,"o":"m 550 -17 q 289 38 399 -17 q 121 201 179 92 q 63 476 63 311 q 121 753 63 644 q 289 916 179 863 q 550 969 399 969 q 813 916 704 969 q 981 753 922 863 q 1039 476 1039 644 q 981 201 1039 311 q 813 38 922 92 q 550 -17 704 -17 m 550 153 q 669 172 618 153 q 756 231 721 192 q 808 326 790 269 q 826 454 826 382 l 826 497 q 808 628 826 571 q 756 723 790 685 q 669 781 721 761 q 550 800 618 800 q 432 781 483 800 q 346 723 381 761 q 294 628 311 685 q 276 497 276 571 l 276 454 q 294 326 276 382 q 346 231 311 269 q 432 172 381 192 q 550 153 483 153 m 839 769 l 839 865 q 960 892 915 865 q 1008 968 1006 919 l 917 968 l 917 1151 l 1131 1151 l 1131 1024 q 1095 888 1131 944 q 995 800 1060 831 q 839 769 931 769 m 303 1046 q 318 1131 303 1092 q 366 1193 333 1169 q 447 1217 399 1217 q 518 1204 485 1217 q 583 1179 551 1192 q 649 1167 615 1167 q 683 1178 669 1167 q 700 1217 696 1189 l 799 1217 q 783 1133 799 1172 q 735 1070 767 1094 q 654 1046 704 1046 q 583 1058 617 1046 q 517 1084 549 1071 q 453 1097 486 1097 q 419 1085 433 1097 q 401 1046 406 1072 l 303 1046 z "},"Ő":{"ha":1101,"x_min":63,"x_max":1039,"o":"m 550 -17 q 289 38 399 -17 q 121 201 179 92 q 63 476 63 311 q 121 753 63 644 q 289 916 179 863 q 550 969 399 969 q 813 916 704 969 q 981 753 922 863 q 1039 476 1039 644 q 981 201 1039 311 q 813 38 922 92 q 550 -17 704 -17 m 550 153 q 669 172 618 153 q 756 231 721 192 q 808 326 790 269 q 826 454 826 382 l 826 497 q 808 628 826 571 q 756 723 790 685 q 669 781 721 761 q 550 800 618 800 q 432 781 483 800 q 346 723 381 761 q 294 628 311 685 q 276 497 276 571 l 276 454 q 294 326 276 382 q 346 231 311 269 q 432 172 381 192 q 550 153 483 153 m 604 1026 l 707 1211 l 908 1211 l 910 1206 l 756 1026 l 604 1026 m 335 1026 l 438 1211 l 638 1211 l 640 1206 l 486 1026 l 335 1026 z "},"Ȏ":{"ha":1101,"x_min":63,"x_max":1039,"o":"m 550 -17 q 289 38 399 -17 q 121 201 179 92 q 63 476 63 311 q 121 753 63 644 q 289 916 179 863 q 550 969 399 969 q 813 916 704 969 q 981 753 922 863 q 1039 476 1039 644 q 981 201 1039 311 q 813 38 922 92 q 550 -17 704 -17 m 550 153 q 669 172 618 153 q 756 231 721 192 q 808 326 790 269 q 826 454 826 382 l 826 497 q 808 628 826 571 q 756 723 790 685 q 669 781 721 761 q 550 800 618 800 q 432 781 483 800 q 346 723 381 761 q 294 628 311 685 q 276 497 276 571 l 276 454 q 294 326 276 382 q 346 231 311 269 q 432 172 381 192 q 550 153 483 153 m 325 1025 q 349 1112 325 1069 q 423 1183 372 1154 q 551 1211 474 1211 q 681 1183 632 1211 q 754 1112 731 1154 q 778 1025 778 1069 l 660 1025 q 646 1056 657 1040 q 611 1082 635 1071 q 551 1093 588 1093 q 492 1082 517 1093 q 456 1056 468 1071 q 442 1025 444 1040 l 325 1025 z "},"Ō":{"ha":1101,"x_min":63,"x_max":1039,"o":"m 550 -17 q 289 38 399 -17 q 121 201 179 92 q 63 476 63 311 q 121 753 63 644 q 289 916 179 863 q 550 969 399 969 q 813 916 704 969 q 981 753 922 863 q 1039 476 1039 644 q 981 201 1039 311 q 813 38 922 92 q 550 -17 704 -17 m 550 153 q 669 172 618 153 q 756 231 721 192 q 808 326 790 269 q 826 454 826 382 l 826 497 q 808 628 826 571 q 756 723 790 685 q 669 781 721 761 q 550 800 618 800 q 432 781 483 800 q 346 723 381 761 q 294 628 311 685 q 276 497 276 571 l 276 454 q 294 326 276 382 q 346 231 311 269 q 432 172 381 192 q 550 153 483 153 m 336 1049 l 336 1168 l 764 1168 l 764 1049 l 336 1049 z "},"Ǫ":{"ha":1101,"x_min":63,"x_max":1039,"o":"m 550 -17 q 289 38 399 -17 q 121 201 179 92 q 63 476 63 311 q 121 753 63 644 q 289 916 179 863 q 550 969 399 969 q 813 916 704 969 q 981 753 922 863 q 1039 476 1039 644 q 981 201 1039 311 q 813 38 922 92 q 550 -17 704 -17 m 550 153 q 669 172 618 153 q 756 231 721 192 q 808 326 790 269 q 826 454 826 382 l 826 497 q 808 628 826 571 q 756 723 790 685 q 669 781 721 761 q 550 800 618 800 q 432 781 483 800 q 346 723 381 761 q 294 628 311 685 q 276 497 276 571 l 276 454 q 294 326 276 382 q 346 231 311 269 q 432 172 381 192 q 550 153 483 153 m 708 -261 q 636 -249 671 -261 q 578 -208 601 -237 q 556 -131 556 -179 q 578 -44 556 -79 q 629 17 601 -10 l 746 17 l 746 11 q 713 -30 729 -3 q 697 -86 697 -57 q 714 -137 697 -115 q 768 -160 731 -160 l 828 -160 l 828 -242 q 767 -256 801 -251 q 708 -261 733 -261 z "},"Ø":{"ha":1101,"x_min":63,"x_max":1039,"o":"m 550 -17 q 289 38 399 -17 q 121 201 179 92 q 63 476 63 311 q 121 753 63 644 q 289 916 179 863 q 550 969 399 969 q 813 916 704 969 q 981 753 922 863 q 1039 476 1039 644 q 981 201 1039 311 q 813 38 922 92 q 550 -17 704 -17 m 550 153 q 669 172 618 153 q 756 231 721 192 q 808 326 790 269 q 826 454 826 382 l 826 497 q 808 628 826 571 q 756 723 790 685 q 669 781 721 761 q 550 800 618 800 q 432 781 483 800 q 346 723 381 761 q 294 628 311 685 q 276 497 276 571 l 276 454 q 294 326 276 382 q 346 231 311 269 q 432 172 381 192 q 550 153 483 153 m 68 -64 l 888 1018 l 1032 1018 l 213 -64 l 68 -64 z "},"Ǿ":{"ha":1101,"x_min":63,"x_max":1039,"o":"m 550 -17 q 289 38 399 -17 q 121 201 179 92 q 63 476 63 311 q 121 753 63 644 q 289 916 179 863 q 550 969 399 969 q 813 916 704 969 q 981 753 922 863 q 1039 476 1039 644 q 981 201 1039 311 q 813 38 922 92 q 550 -17 704 -17 m 550 153 q 669 172 618 153 q 756 231 721 192 q 808 326 790 269 q 826 454 826 382 l 826 497 q 808 628 826 571 q 756 723 790 685 q 669 781 721 761 q 550 800 618 800 q 432 781 483 800 q 346 723 381 761 q 294 628 311 685 q 276 497 276 571 l 276 454 q 294 326 276 382 q 346 231 311 269 q 432 172 381 192 q 550 153 483 153 m 68 -64 l 888 1018 l 1032 1018 l 213 -64 l 68 -64 m 460 1026 l 575 1211 l 782 1211 l 783 1206 l 617 1026 l 460 1026 z "},"Õ":{"ha":1101,"x_min":63,"x_max":1039,"o":"m 550 -17 q 289 38 399 -17 q 121 201 179 92 q 63 476 63 311 q 121 753 63 644 q 289 916 179 863 q 550 969 399 969 q 813 916 704 969 q 981 753 922 863 q 1039 476 1039 644 q 981 201 1039 311 q 813 38 922 92 q 550 -17 704 -17 m 550 153 q 669 172 618 153 q 756 231 721 192 q 808 326 790 269 q 826 454 826 382 l 826 497 q 808 628 826 571 q 756 723 790 685 q 669 781 721 761 q 550 800 618 800 q 432 781 483 800 q 346 723 381 761 q 294 628 311 685 q 276 497 276 571 l 276 454 q 294 326 276 382 q 346 231 311 269 q 432 172 381 192 q 550 153 483 153 m 301 1046 q 317 1131 301 1092 q 366 1193 333 1169 q 446 1217 399 1217 q 518 1204 485 1217 q 583 1179 551 1192 q 649 1167 615 1167 q 683 1178 669 1167 q 700 1217 696 1189 l 799 1217 q 783 1133 799 1172 q 735 1070 767 1094 q 654 1046 703 1046 q 583 1058 617 1046 q 517 1084 549 1071 q 453 1097 486 1097 q 419 1085 432 1097 q 401 1046 406 1072 l 301 1046 z "},"Ȭ":{"ha":1101,"x_min":63,"x_max":1039,"o":"m 550 -17 q 289 38 399 -17 q 121 201 179 92 q 63 476 63 311 q 121 753 63 644 q 289 916 179 863 q 550 969 399 969 q 813 916 704 969 q 981 753 922 863 q 1039 476 1039 644 q 981 201 1039 311 q 813 38 922 92 q 550 -17 704 -17 m 550 153 q 669 172 618 153 q 756 231 721 192 q 808 326 790 269 q 826 454 826 382 l 826 497 q 808 628 826 571 q 756 723 790 685 q 669 781 721 761 q 550 800 618 800 q 432 781 483 800 q 346 723 381 761 q 294 628 311 685 q 276 497 276 571 l 276 454 q 294 326 276 382 q 346 231 311 269 q 432 172 381 192 q 550 153 483 153 m 301 1046 q 317 1131 301 1092 q 366 1193 333 1169 q 446 1217 399 1217 q 518 1204 485 1217 q 583 1179 551 1192 q 649 1167 615 1167 q 683 1178 669 1167 q 700 1217 696 1189 l 799 1217 q 783 1133 799 1172 q 735 1070 767 1094 q 654 1046 703 1046 q 583 1058 617 1046 q 517 1084 549 1071 q 453 1097 486 1097 q 419 1085 432 1097 q 401 1046 406 1072 l 301 1046 m 336 1282 l 336 1401 l 764 1401 l 764 1282 l 336 1282 z "},"Œ":{"ha":1669,"x_min":63,"x_max":1596,"o":"m 539 -17 q 281 38 388 -17 q 118 201 174 92 q 63 476 63 311 q 118 753 63 644 q 281 916 174 863 q 539 969 388 969 q 699 950 626 969 q 826 890 772 931 l 826 953 l 1588 953 l 1588 783 l 1033 783 l 1033 571 l 1524 571 l 1524 403 l 1033 403 l 1033 171 l 1596 171 l 1596 0 l 826 0 l 826 63 q 699 3 772 24 q 539 -17 626 -17 m 550 153 q 669 172 618 153 q 756 231 721 192 q 808 326 790 269 q 826 454 826 382 l 826 497 q 808 628 826 571 q 756 723 790 685 q 669 781 721 761 q 550 800 618 800 q 432 781 483 800 q 346 723 381 761 q 294 628 311 685 q 276 497 276 571 l 276 454 q 294 326 276 382 q 346 231 311 269 q 432 172 381 192 q 550 153 483 153 z "},"P":{"ha":946,"x_min":106,"x_max":913,"o":"m 106 0 l 106 953 l 601 953 q 773 915 704 953 q 877 808 842 876 q 913 644 913 739 q 876 480 913 550 q 768 371 839 410 q 594 332 697 332 l 313 332 l 313 0 l 106 0 m 313 501 l 567 501 q 667 539 632 501 q 703 643 703 576 q 688 719 703 689 q 642 767 672 750 q 567 783 613 783 l 313 783 l 313 501 z "},"Þ":{"ha":968,"x_min":110,"x_max":896,"o":"m 110 0 l 110 953 l 318 953 l 318 803 l 585 803 q 755 765 686 803 q 860 657 824 726 q 896 494 896 588 q 859 328 896 399 q 751 220 822 258 q 576 182 681 182 l 318 182 l 318 0 l 110 0 m 318 350 l 550 350 q 651 388 615 350 q 686 494 686 426 q 671 569 686 538 q 626 617 656 600 q 550 633 596 633 l 318 633 l 318 350 z "},"Q":{"ha":1101,"x_min":63,"x_max":1039,"o":"m 739 -181 l 583 -14 q 563 -16 574 -15 q 542 -17 551 -17 q 285 38 393 -17 q 120 203 178 93 q 63 476 63 313 q 121 753 63 644 q 289 916 179 863 q 550 969 399 969 q 813 916 704 969 q 981 753 922 863 q 1039 476 1039 644 q 975 192 1039 303 q 794 28 911 81 l 1008 -181 l 739 -181 m 550 153 q 669 172 618 153 q 756 231 721 192 q 808 326 790 269 q 826 454 826 382 l 826 497 q 808 628 826 571 q 756 723 790 685 q 669 781 721 761 q 550 800 618 800 q 432 781 483 800 q 346 723 381 761 q 294 628 311 685 q 276 497 276 571 l 276 454 q 294 326 276 382 q 346 231 311 269 q 432 172 381 192 q 550 153 483 153 z "},"R":{"ha":1014,"x_min":106,"x_max":975,"o":"m 106 0 l 106 953 l 628 953 q 803 915 733 953 q 908 810 874 878 q 943 656 943 743 q 901 491 943 563 q 781 382 860 419 l 975 0 l 746 0 l 578 347 l 313 347 l 313 0 l 106 0 m 313 511 l 600 511 q 697 549 663 511 q 732 653 732 588 q 717 724 732 694 q 672 769 701 754 q 600 785 643 785 l 313 785 l 313 511 z "},"Ŕ":{"ha":1014,"x_min":106,"x_max":975,"o":"m 106 0 l 106 953 l 628 953 q 803 915 733 953 q 908 810 874 878 q 943 656 943 743 q 901 491 943 563 q 781 382 860 419 l 975 0 l 746 0 l 578 347 l 313 347 l 313 0 l 106 0 m 313 511 l 600 511 q 697 549 663 511 q 732 653 732 588 q 717 724 732 694 q 672 769 701 754 q 600 785 643 785 l 313 785 l 313 511 m 413 1026 l 529 1211 l 735 1211 l 736 1206 l 571 1026 l 413 1026 z "},"Ř":{"ha":1014,"x_min":106,"x_max":975,"o":"m 106 0 l 106 953 l 628 953 q 803 915 733 953 q 908 810 874 878 q 943 656 943 743 q 901 491 943 563 q 781 382 860 419 l 975 0 l 746 0 l 578 347 l 313 347 l 313 0 l 106 0 m 313 511 l 600 511 q 697 549 663 511 q 732 653 732 588 q 717 724 732 694 q 672 769 701 754 q 600 785 643 785 l 313 785 l 313 511 m 254 1211 l 421 1211 l 543 1071 l 465 1069 l 588 1211 l 754 1211 l 599 1026 l 410 1026 l 254 1211 z "},"Ŗ":{"ha":1014,"x_min":106,"x_max":975,"o":"m 106 0 l 106 953 l 628 953 q 803 915 733 953 q 908 810 874 878 q 943 656 943 743 q 901 491 943 563 q 781 382 860 419 l 975 0 l 746 0 l 578 347 l 313 347 l 313 0 l 106 0 m 313 511 l 600 511 q 697 549 663 511 q 732 653 732 588 q 717 724 732 694 q 672 769 701 754 q 600 785 643 785 l 313 785 l 313 511 m 413 -436 l 413 -361 q 480 -335 458 -361 q 501 -272 501 -310 l 421 -272 l 421 -99 l 597 -99 l 597 -235 q 573 -353 597 -308 q 507 -417 549 -397 q 413 -436 465 -436 z "},"Ȑ":{"ha":1014,"x_min":106,"x_max":975,"o":"m 106 0 l 106 953 l 628 953 q 803 915 733 953 q 908 810 874 878 q 943 656 943 743 q 901 491 943 563 q 781 382 860 419 l 975 0 l 746 0 l 578 347 l 313 347 l 313 0 l 106 0 m 313 511 l 600 511 q 697 549 663 511 q 732 653 732 588 q 717 724 732 694 q 672 769 701 754 q 600 785 643 785 l 313 785 l 313 511 m 586 1026 l 432 1206 l 433 1211 l 635 1211 l 738 1026 l 586 1026 m 317 1026 l 163 1206 l 164 1211 l 364 1211 l 468 1026 l 317 1026 z "},"Ȓ":{"ha":1014,"x_min":106,"x_max":975,"o":"m 106 0 l 106 953 l 628 953 q 803 915 733 953 q 908 810 874 878 q 943 656 943 743 q 901 491 943 563 q 781 382 860 419 l 975 0 l 746 0 l 578 347 l 313 347 l 313 0 l 106 0 m 313 511 l 600 511 q 697 549 663 511 q 732 653 732 588 q 717 724 732 694 q 672 769 701 754 q 600 785 643 785 l 313 785 l 313 511 m 279 1025 q 303 1112 279 1069 q 376 1183 326 1154 q 506 1211 426 1211 q 635 1183 586 1211 q 708 1112 685 1154 q 731 1025 731 1069 l 614 1025 q 599 1056 611 1040 q 565 1082 588 1071 q 506 1093 542 1093 q 447 1082 471 1093 q 410 1056 422 1071 q 396 1025 397 1040 l 279 1025 z "},"S":{"ha":943,"x_min":63,"x_max":883,"o":"m 476 -17 q 318 0 393 -17 q 185 53 243 17 q 95 147 128 90 q 63 283 63 203 q 63 298 63 290 q 64 310 63 306 l 269 310 q 268 299 268 306 q 268 286 268 292 q 292 211 268 242 q 364 165 317 181 q 474 150 411 150 q 545 155 514 150 q 601 169 576 160 q 641 190 625 178 q 665 219 657 203 q 672 257 672 236 q 648 318 672 294 q 581 358 624 342 q 486 389 539 375 q 378 417 433 403 q 269 453 322 432 q 175 506 217 475 q 108 583 133 536 q 83 697 83 631 q 113 819 83 768 q 197 904 143 871 q 322 953 251 938 q 476 969 393 969 q 624 953 554 969 q 746 903 693 938 q 828 815 799 868 q 858 690 858 763 l 858 674 l 657 674 l 657 685 q 635 749 657 722 q 572 790 613 775 q 478 806 532 806 q 378 794 419 806 q 316 762 338 783 q 294 711 294 740 q 319 656 294 678 q 385 619 343 635 q 481 590 428 603 q 589 563 533 578 q 697 526 644 547 q 792 474 750 506 q 858 397 833 443 q 883 288 883 351 q 831 111 883 178 q 686 14 778 44 q 476 -17 594 -17 z "},"Ś":{"ha":943,"x_min":63,"x_max":883,"o":"m 476 -17 q 318 0 393 -17 q 185 53 243 17 q 95 147 128 90 q 63 283 63 203 q 63 298 63 290 q 64 310 63 306 l 269 310 q 268 299 268 306 q 268 286 268 292 q 292 211 268 242 q 364 165 317 181 q 474 150 411 150 q 545 155 514 150 q 601 169 576 160 q 641 190 625 178 q 665 219 657 203 q 672 257 672 236 q 648 318 672 294 q 581 358 624 342 q 486 389 539 375 q 378 417 433 403 q 269 453 322 432 q 175 506 217 475 q 108 583 133 536 q 83 697 83 631 q 113 819 83 768 q 197 904 143 871 q 322 953 251 938 q 476 969 393 969 q 624 953 554 969 q 746 903 693 938 q 828 815 799 868 q 858 690 858 763 l 858 674 l 657 674 l 657 685 q 635 749 657 722 q 572 790 613 775 q 478 806 532 806 q 378 794 419 806 q 316 762 338 783 q 294 711 294 740 q 319 656 294 678 q 385 619 343 635 q 481 590 428 603 q 589 563 533 578 q 697 526 644 547 q 792 474 750 506 q 858 397 833 443 q 883 288 883 351 q 831 111 883 178 q 686 14 778 44 q 476 -17 594 -17 m 383 1026 l 499 1211 l 706 1211 l 707 1206 l 542 1026 l 383 1026 z "},"Š":{"ha":943,"x_min":63,"x_max":883,"o":"m 476 -17 q 318 0 393 -17 q 185 53 243 17 q 95 147 128 90 q 63 283 63 203 q 63 298 63 290 q 64 310 63 306 l 269 310 q 268 299 268 306 q 268 286 268 292 q 292 211 268 242 q 364 165 317 181 q 474 150 411 150 q 545 155 514 150 q 601 169 576 160 q 641 190 625 178 q 665 219 657 203 q 672 257 672 236 q 648 318 672 294 q 581 358 624 342 q 486 389 539 375 q 378 417 433 403 q 269 453 322 432 q 175 506 217 475 q 108 583 133 536 q 83 697 83 631 q 113 819 83 768 q 197 904 143 871 q 322 953 251 938 q 476 969 393 969 q 624 953 554 969 q 746 903 693 938 q 828 815 799 868 q 858 690 858 763 l 858 674 l 657 674 l 657 685 q 635 749 657 722 q 572 790 613 775 q 478 806 532 806 q 378 794 419 806 q 316 762 338 783 q 294 711 294 740 q 319 656 294 678 q 385 619 343 635 q 481 590 428 603 q 589 563 533 578 q 697 526 644 547 q 792 474 750 506 q 858 397 833 443 q 883 288 883 351 q 831 111 883 178 q 686 14 778 44 q 476 -17 594 -17 m 225 1211 l 390 1211 l 514 1071 l 435 1069 l 557 1211 l 724 1211 l 569 1026 l 381 1026 l 225 1211 z "},"Ş":{"ha":943,"x_min":63,"x_max":883,"o":"m 476 -17 q 318 0 393 -17 q 185 53 243 17 q 95 147 128 90 q 63 283 63 203 q 63 298 63 290 q 64 310 63 306 l 269 310 q 268 299 268 306 q 268 286 268 292 q 292 211 268 242 q 364 165 317 181 q 474 150 411 150 q 545 155 514 150 q 601 169 576 160 q 641 190 625 178 q 665 219 657 203 q 672 257 672 236 q 648 318 672 294 q 581 358 624 342 q 486 389 539 375 q 378 417 433 403 q 269 453 322 432 q 175 506 217 475 q 108 583 133 536 q 83 697 83 631 q 113 819 83 768 q 197 904 143 871 q 322 953 251 938 q 476 969 393 969 q 624 953 554 969 q 746 903 693 938 q 828 815 799 868 q 858 690 858 763 l 858 674 l 657 674 l 657 685 q 635 749 657 722 q 572 790 613 775 q 478 806 532 806 q 378 794 419 806 q 316 762 338 783 q 294 711 294 740 q 319 656 294 678 q 385 619 343 635 q 481 590 428 603 q 589 563 533 578 q 697 526 644 547 q 792 474 750 506 q 858 397 833 443 q 883 288 883 351 q 831 111 883 178 q 686 14 778 44 q 476 -17 594 -17 m 471 -261 q 392 -258 433 -261 q 321 -249 351 -254 l 321 -178 l 453 -178 q 495 -172 479 -178 q 511 -144 511 -165 q 499 -119 511 -128 q 456 -111 488 -111 l 396 -111 l 417 24 l 531 24 l 521 -46 q 584 -58 554 -47 q 632 -90 614 -69 q 650 -146 650 -111 q 632 -203 650 -181 q 587 -239 614 -226 q 528 -256 560 -251 q 471 -261 497 -261 z "},"Ŝ":{"ha":943,"x_min":63,"x_max":883,"o":"m 476 -17 q 318 0 393 -17 q 185 53 243 17 q 95 147 128 90 q 63 283 63 203 q 63 298 63 290 q 64 310 63 306 l 269 310 q 268 299 268 306 q 268 286 268 292 q 292 211 268 242 q 364 165 317 181 q 474 150 411 150 q 545 155 514 150 q 601 169 576 160 q 641 190 625 178 q 665 219 657 203 q 672 257 672 236 q 648 318 672 294 q 581 358 624 342 q 486 389 539 375 q 378 417 433 403 q 269 453 322 432 q 175 506 217 475 q 108 583 133 536 q 83 697 83 631 q 113 819 83 768 q 197 904 143 871 q 322 953 251 938 q 476 969 393 969 q 624 953 554 969 q 746 903 693 938 q 828 815 799 868 q 858 690 858 763 l 858 674 l 657 674 l 657 685 q 635 749 657 722 q 572 790 613 775 q 478 806 532 806 q 378 794 419 806 q 316 762 338 783 q 294 711 294 740 q 319 656 294 678 q 385 619 343 635 q 481 590 428 603 q 589 563 533 578 q 697 526 644 547 q 792 474 750 506 q 858 397 833 443 q 883 288 883 351 q 831 111 883 178 q 686 14 778 44 q 476 -17 594 -17 m 225 1026 l 381 1211 l 569 1211 l 724 1026 l 557 1026 l 435 1168 l 514 1167 l 390 1026 l 225 1026 z "},"Ș":{"ha":943,"x_min":63,"x_max":883,"o":"m 476 -17 q 318 0 393 -17 q 185 53 243 17 q 95 147 128 90 q 63 283 63 203 q 63 298 63 290 q 64 310 63 306 l 269 310 q 268 299 268 306 q 268 286 268 292 q 292 211 268 242 q 364 165 317 181 q 474 150 411 150 q 545 155 514 150 q 601 169 576 160 q 641 190 625 178 q 665 219 657 203 q 672 257 672 236 q 648 318 672 294 q 581 358 624 342 q 486 389 539 375 q 378 417 433 403 q 269 453 322 432 q 175 506 217 475 q 108 583 133 536 q 83 697 83 631 q 113 819 83 768 q 197 904 143 871 q 322 953 251 938 q 476 969 393 969 q 624 953 554 969 q 746 903 693 938 q 828 815 799 868 q 858 690 858 763 l 858 674 l 657 674 l 657 685 q 635 749 657 722 q 572 790 613 775 q 478 806 532 806 q 378 794 419 806 q 316 762 338 783 q 294 711 294 740 q 319 656 294 678 q 385 619 343 635 q 481 590 428 603 q 589 563 533 578 q 697 526 644 547 q 792 474 750 506 q 858 397 833 443 q 883 288 883 351 q 831 111 883 178 q 686 14 778 44 q 476 -17 594 -17 m 376 -436 l 376 -361 q 445 -335 424 -361 q 467 -272 467 -310 l 385 -272 l 385 -99 l 561 -99 l 561 -235 q 538 -353 561 -308 q 472 -417 514 -397 q 376 -436 431 -436 z "},"Ṣ":{"ha":943,"x_min":63,"x_max":883,"o":"m 476 -17 q 318 0 393 -17 q 185 53 243 17 q 95 147 128 90 q 63 283 63 203 q 63 298 63 290 q 64 310 63 306 l 269 310 q 268 299 268 306 q 268 286 268 292 q 292 211 268 242 q 364 165 317 181 q 474 150 411 150 q 545 155 514 150 q 601 169 576 160 q 641 190 625 178 q 665 219 657 203 q 672 257 672 236 q 648 318 672 294 q 581 358 624 342 q 486 389 539 375 q 378 417 433 403 q 269 453 322 432 q 175 506 217 475 q 108 583 133 536 q 83 697 83 631 q 113 819 83 768 q 197 904 143 871 q 322 953 251 938 q 476 969 393 969 q 624 953 554 969 q 746 903 693 938 q 828 815 799 868 q 858 690 858 763 l 858 674 l 657 674 l 657 685 q 635 749 657 722 q 572 790 613 775 q 478 806 532 806 q 378 794 419 806 q 316 762 338 783 q 294 711 294 740 q 319 656 294 678 q 385 619 343 635 q 481 590 428 603 q 589 563 533 578 q 697 526 644 547 q 792 474 750 506 q 858 397 833 443 q 883 288 883 351 q 831 111 883 178 q 686 14 778 44 q 476 -17 594 -17 m 385 -272 l 385 -106 l 561 -106 l 561 -272 l 385 -272 z "},"ẞ":{"ha":1139,"x_min":110,"x_max":1060,"o":"m 110 0 l 110 556 q 167 783 110 690 q 332 923 224 876 q 593 969 440 969 q 760 951 683 969 q 894 898 838 933 q 983 812 951 863 q 1015 697 1015 761 q 998 604 1015 646 q 952 533 981 563 q 890 489 924 503 l 890 482 q 1015 404 969 461 q 1060 261 1060 347 q 1024 128 1060 188 q 920 34 988 68 q 757 0 853 0 l 435 0 l 435 169 l 722 169 q 790 185 763 169 q 833 226 818 201 q 847 281 847 251 q 830 337 847 314 q 780 374 813 360 q 700 388 747 388 l 435 388 l 435 553 l 686 553 q 772 590 742 553 q 803 674 803 626 q 753 770 803 736 q 599 804 703 804 q 440 776 503 804 q 347 690 378 747 q 317 546 317 633 l 317 0 l 110 0 z "},"Ə":{"ha":1074,"x_min":63,"x_max":1011,"o":"m 535 -17 q 335 12 422 -17 q 186 99 247 40 q 94 247 125 157 q 63 458 63 336 l 63 526 l 797 526 q 763 688 793 625 q 672 781 732 750 q 521 813 613 813 q 423 801 468 813 q 344 767 378 790 q 292 708 311 743 q 274 622 274 672 l 63 622 q 99 776 64 711 q 197 885 135 842 q 344 949 260 928 q 529 969 428 969 q 794 916 688 969 q 956 753 901 863 q 1011 472 1011 643 q 958 198 1011 307 q 799 36 904 89 q 535 -17 694 -17 m 540 149 q 673 174 619 149 q 757 251 726 199 q 793 382 788 303 l 275 382 q 294 276 275 321 q 349 203 314 232 q 432 162 383 175 q 540 149 481 149 z "},"T":{"ha":890,"x_min":35,"x_max":856,"o":"m 340 0 l 340 779 l 35 779 l 35 953 l 856 953 l 856 779 l 549 779 l 549 0 l 340 0 z "},"Ŧ":{"ha":890,"x_min":35,"x_max":856,"o":"m 340 0 l 340 779 l 35 779 l 35 953 l 856 953 l 856 779 l 549 779 l 549 0 l 340 0 m 199 381 l 199 514 l 693 514 l 693 381 l 199 381 z "},"Ť":{"ha":890,"x_min":35,"x_max":856,"o":"m 340 0 l 340 779 l 35 779 l 35 953 l 856 953 l 856 779 l 549 779 l 549 0 l 340 0 m 196 1211 l 363 1211 l 485 1071 l 407 1069 l 528 1211 l 694 1211 l 540 1026 l 351 1026 l 196 1211 z "},"Ţ":{"ha":890,"x_min":35,"x_max":856,"o":"m 340 0 l 340 779 l 35 779 l 35 953 l 856 953 l 856 779 l 549 779 l 549 0 l 340 0 m 443 -261 q 365 -258 406 -261 q 293 -249 324 -254 l 293 -178 l 425 -178 q 467 -172 451 -178 q 483 -144 483 -165 q 472 -119 483 -128 q 428 -111 460 -111 l 368 -111 l 389 24 l 503 24 l 493 -46 q 556 -58 526 -47 q 604 -90 586 -69 q 622 -146 622 -111 q 604 -203 622 -181 q 559 -239 586 -226 q 501 -256 532 -251 q 443 -261 469 -261 z "},"Ț":{"ha":890,"x_min":35,"x_max":856,"o":"m 340 0 l 340 779 l 35 779 l 35 953 l 856 953 l 856 779 l 549 779 l 549 0 l 340 0 m 349 -436 l 349 -361 q 417 -335 396 -361 q 439 -272 439 -310 l 357 -272 l 357 -99 l 533 -99 l 533 -235 q 510 -353 533 -308 q 444 -417 486 -397 q 349 -436 403 -436 z "},"Ṭ":{"ha":890,"x_min":35,"x_max":856,"o":"m 340 0 l 340 779 l 35 779 l 35 953 l 856 953 l 856 779 l 549 779 l 549 0 l 340 0 m 357 -272 l 357 -106 l 533 -106 l 533 -272 l 357 -272 z "},"U":{"ha":1039,"x_min":100,"x_max":938,"o":"m 518 -17 q 294 25 388 -17 q 150 151 200 67 q 100 360 100 235 l 100 953 l 308 953 l 308 365 q 363 208 308 263 q 518 153 417 153 q 674 208 619 153 q 729 365 729 263 l 729 953 l 938 953 l 938 360 q 888 151 938 235 q 744 25 838 67 q 518 -17 650 -17 z "},"Ú":{"ha":1039,"x_min":100,"x_max":938,"o":"m 518 -17 q 294 25 388 -17 q 150 151 200 67 q 100 360 100 235 l 100 953 l 308 953 l 308 365 q 363 208 308 263 q 518 153 417 153 q 674 208 619 153 q 729 365 729 263 l 729 953 l 938 953 l 938 360 q 888 151 938 235 q 744 25 838 67 q 518 -17 650 -17 m 428 1026 l 544 1211 l 750 1211 l 751 1206 l 586 1026 l 428 1026 z "},"Ŭ":{"ha":1039,"x_min":100,"x_max":938,"o":"m 518 -17 q 294 25 388 -17 q 150 151 200 67 q 100 360 100 235 l 100 953 l 308 953 l 308 365 q 363 208 308 263 q 518 153 417 153 q 674 208 619 153 q 729 365 729 263 l 729 953 l 938 953 l 938 360 q 888 151 938 235 q 744 25 838 67 q 518 -17 650 -17 m 519 1025 q 390 1053 440 1025 q 317 1125 340 1082 q 294 1211 294 1168 l 411 1211 q 426 1181 414 1197 q 461 1153 438 1164 q 519 1142 485 1142 q 579 1153 556 1142 q 615 1181 603 1164 q 629 1211 628 1197 l 746 1211 q 722 1125 746 1168 q 649 1053 699 1082 q 519 1025 600 1025 z "},"Ǔ":{"ha":1039,"x_min":100,"x_max":938,"o":"m 518 -17 q 294 25 388 -17 q 150 151 200 67 q 100 360 100 235 l 100 953 l 308 953 l 308 365 q 363 208 308 263 q 518 153 417 153 q 674 208 619 153 q 729 365 729 263 l 729 953 l 938 953 l 938 360 q 888 151 938 235 q 744 25 838 67 q 518 -17 650 -17 m 269 1211 l 436 1211 l 558 1071 l 481 1069 l 603 1211 l 769 1211 l 614 1026 l 426 1026 l 269 1211 z "},"Û":{"ha":1039,"x_min":100,"x_max":938,"o":"m 518 -17 q 294 25 388 -17 q 150 151 200 67 q 100 360 100 235 l 100 953 l 308 953 l 308 365 q 363 208 308 263 q 518 153 417 153 q 674 208 619 153 q 729 365 729 263 l 729 953 l 938 953 l 938 360 q 888 151 938 235 q 744 25 838 67 q 518 -17 650 -17 m 269 1026 l 426 1211 l 614 1211 l 769 1026 l 603 1026 l 481 1168 l 558 1167 l 436 1026 l 269 1026 z "},"Ȕ":{"ha":1039,"x_min":100,"x_max":938,"o":"m 518 -17 q 294 25 388 -17 q 150 151 200 67 q 100 360 100 235 l 100 953 l 308 953 l 308 365 q 363 208 308 263 q 518 153 417 153 q 674 208 619 153 q 729 365 729 263 l 729 953 l 938 953 l 938 360 q 888 151 938 235 q 744 25 838 67 q 518 -17 650 -17 m 601 1026 l 447 1206 l 449 1211 l 650 1211 l 753 1026 l 601 1026 m 332 1026 l 178 1206 l 179 1211 l 379 1211 l 483 1026 l 332 1026 z "},"Ü":{"ha":1039,"x_min":100,"x_max":938,"o":"m 518 -17 q 294 25 388 -17 q 150 151 200 67 q 100 360 100 235 l 100 953 l 308 953 l 308 365 q 363 208 308 263 q 518 153 417 153 q 674 208 619 153 q 729 365 729 263 l 729 953 l 938 953 l 938 360 q 888 151 938 235 q 744 25 838 67 q 518 -17 650 -17 m 294 1049 l 294 1211 l 458 1211 l 458 1049 l 294 1049 m 581 1049 l 581 1211 l 746 1211 l 746 1049 l 581 1049 z "},"Ǘ":{"ha":1039,"x_min":100,"x_max":938,"o":"m 518 -17 q 294 25 388 -17 q 150 151 200 67 q 100 360 100 235 l 100 953 l 308 953 l 308 365 q 363 208 308 263 q 518 153 417 153 q 674 208 619 153 q 729 365 729 263 l 729 953 l 938 953 l 938 360 q 888 151 938 235 q 744 25 838 67 q 518 -17 650 -17 m 294 1049 l 294 1211 l 458 1211 l 458 1049 l 294 1049 m 581 1049 l 581 1211 l 746 1211 l 746 1049 l 581 1049 m 428 1271 l 544 1454 l 750 1454 l 751 1450 l 586 1271 l 428 1271 z "},"Ǚ":{"ha":1039,"x_min":100,"x_max":938,"o":"m 518 -17 q 294 25 388 -17 q 150 151 200 67 q 100 360 100 235 l 100 953 l 308 953 l 308 365 q 363 208 308 263 q 518 153 417 153 q 674 208 619 153 q 729 365 729 263 l 729 953 l 938 953 l 938 360 q 888 151 938 235 q 744 25 838 67 q 518 -17 650 -17 m 294 1049 l 294 1211 l 458 1211 l 458 1049 l 294 1049 m 581 1049 l 581 1211 l 746 1211 l 746 1049 l 581 1049 m 269 1454 l 436 1454 l 558 1315 l 481 1314 l 603 1454 l 769 1454 l 614 1271 l 426 1271 l 269 1454 z "},"Ǜ":{"ha":1039,"x_min":100,"x_max":938,"o":"m 518 -17 q 294 25 388 -17 q 150 151 200 67 q 100 360 100 235 l 100 953 l 308 953 l 308 365 q 363 208 308 263 q 518 153 417 153 q 674 208 619 153 q 729 365 729 263 l 729 953 l 938 953 l 938 360 q 888 151 938 235 q 744 25 838 67 q 518 -17 650 -17 m 294 1049 l 294 1211 l 458 1211 l 458 1049 l 294 1049 m 581 1049 l 581 1211 l 746 1211 l 746 1049 l 581 1049 m 624 1271 l 465 1271 l 299 1450 l 301 1454 l 507 1454 l 624 1271 z "},"Ǖ":{"ha":1039,"x_min":100,"x_max":938,"o":"m 518 -17 q 294 25 388 -17 q 150 151 200 67 q 100 360 100 235 l 100 953 l 308 953 l 308 365 q 363 208 308 263 q 518 153 417 153 q 674 208 619 153 q 729 365 729 263 l 729 953 l 938 953 l 938 360 q 888 151 938 235 q 744 25 838 67 q 518 -17 650 -17 m 294 1049 l 294 1211 l 458 1211 l 458 1049 l 294 1049 m 581 1049 l 581 1211 l 746 1211 l 746 1049 l 581 1049 m 306 1292 l 306 1413 l 732 1413 l 732 1292 l 306 1292 z "},"Ụ":{"ha":1039,"x_min":100,"x_max":938,"o":"m 518 -17 q 294 25 388 -17 q 150 151 200 67 q 100 360 100 235 l 100 953 l 308 953 l 308 365 q 363 208 308 263 q 518 153 417 153 q 674 208 619 153 q 729 365 729 263 l 729 953 l 938 953 l 938 360 q 888 151 938 235 q 744 25 838 67 q 518 -17 650 -17 m 431 -272 l 431 -106 l 607 -106 l 607 -272 l 431 -272 z "},"Ù":{"ha":1039,"x_min":100,"x_max":938,"o":"m 518 -17 q 294 25 388 -17 q 150 151 200 67 q 100 360 100 235 l 100 953 l 308 953 l 308 365 q 363 208 308 263 q 518 153 417 153 q 674 208 619 153 q 729 365 729 263 l 729 953 l 938 953 l 938 360 q 888 151 938 235 q 744 25 838 67 q 518 -17 650 -17 m 624 1026 l 465 1026 l 299 1206 l 301 1211 l 507 1211 l 624 1026 z "},"Ủ":{"ha":1039,"x_min":100,"x_max":938,"o":"m 518 -17 q 294 25 388 -17 q 150 151 200 67 q 100 360 100 235 l 100 953 l 308 953 l 308 365 q 363 208 308 263 q 518 153 417 153 q 674 208 619 153 q 729 365 729 263 l 729 953 l 938 953 l 938 360 q 888 151 938 235 q 744 25 838 67 q 518 -17 650 -17 m 474 1026 l 474 1104 l 492 1104 q 525 1110 515 1104 q 535 1129 535 1115 q 522 1149 535 1144 q 488 1154 510 1154 l 406 1154 l 406 1217 q 443 1223 422 1221 q 484 1226 464 1225 q 521 1228 504 1228 q 572 1224 544 1228 q 624 1210 600 1219 q 663 1185 647 1201 q 678 1142 678 1168 q 662 1098 678 1115 q 621 1072 646 1081 q 567 1061 596 1064 l 567 1026 l 474 1026 z "},"Ư":{"ha":1039,"x_min":100,"x_max":1115,"o":"m 518 -17 q 294 25 388 -17 q 150 151 200 67 q 100 360 100 235 l 100 953 l 308 953 l 308 365 q 363 208 308 263 q 518 153 417 153 q 674 208 619 153 q 729 365 729 263 l 729 953 l 938 953 l 938 360 q 888 151 938 235 q 744 25 838 67 q 518 -17 650 -17 m 825 857 l 825 953 q 947 980 901 953 q 993 1056 992 1007 l 901 1056 l 901 1239 l 1115 1239 l 1115 1111 q 1081 976 1115 1033 q 981 888 1046 918 q 825 857 915 857 z "},"Ứ":{"ha":1039,"x_min":100,"x_max":1115,"o":"m 518 -17 q 294 25 388 -17 q 150 151 200 67 q 100 360 100 235 l 100 953 l 308 953 l 308 365 q 363 208 308 263 q 518 153 417 153 q 674 208 619 153 q 729 365 729 263 l 729 953 l 938 953 l 938 360 q 888 151 938 235 q 744 25 838 67 q 518 -17 650 -17 m 825 857 l 825 953 q 947 980 901 953 q 993 1056 992 1007 l 901 1056 l 901 1239 l 1115 1239 l 1115 1111 q 1081 976 1115 1033 q 981 888 1046 918 q 825 857 915 857 m 428 1026 l 544 1211 l 750 1211 l 751 1206 l 586 1026 l 428 1026 z "},"Ự":{"ha":1039,"x_min":100,"x_max":1115,"o":"m 518 -17 q 294 25 388 -17 q 150 151 200 67 q 100 360 100 235 l 100 953 l 308 953 l 308 365 q 363 208 308 263 q 518 153 417 153 q 674 208 619 153 q 729 365 729 263 l 729 953 l 938 953 l 938 360 q 888 151 938 235 q 744 25 838 67 q 518 -17 650 -17 m 825 857 l 825 953 q 947 980 901 953 q 993 1056 992 1007 l 901 1056 l 901 1239 l 1115 1239 l 1115 1111 q 1081 976 1115 1033 q 981 888 1046 918 q 825 857 915 857 m 431 -272 l 431 -106 l 607 -106 l 607 -272 l 431 -272 z "},"Ừ":{"ha":1039,"x_min":100,"x_max":1115,"o":"m 518 -17 q 294 25 388 -17 q 150 151 200 67 q 100 360 100 235 l 100 953 l 308 953 l 308 365 q 363 208 308 263 q 518 153 417 153 q 674 208 619 153 q 729 365 729 263 l 729 953 l 938 953 l 938 360 q 888 151 938 235 q 744 25 838 67 q 518 -17 650 -17 m 825 857 l 825 953 q 947 980 901 953 q 993 1056 992 1007 l 901 1056 l 901 1239 l 1115 1239 l 1115 1111 q 1081 976 1115 1033 q 981 888 1046 918 q 825 857 915 857 m 624 1026 l 465 1026 l 299 1206 l 301 1211 l 507 1211 l 624 1026 z "},"Ử":{"ha":1039,"x_min":100,"x_max":1115,"o":"m 518 -17 q 294 25 388 -17 q 150 151 200 67 q 100 360 100 235 l 100 953 l 308 953 l 308 365 q 363 208 308 263 q 518 153 417 153 q 674 208 619 153 q 729 365 729 263 l 729 953 l 938 953 l 938 360 q 888 151 938 235 q 744 25 838 67 q 518 -17 650 -17 m 825 857 l 825 953 q 947 980 901 953 q 993 1056 992 1007 l 901 1056 l 901 1239 l 1115 1239 l 1115 1111 q 1081 976 1115 1033 q 981 888 1046 918 q 825 857 915 857 m 474 1026 l 474 1104 l 492 1104 q 525 1110 515 1104 q 535 1129 535 1115 q 522 1149 535 1144 q 488 1154 510 1154 l 406 1154 l 406 1217 q 443 1223 422 1221 q 484 1226 464 1225 q 521 1228 504 1228 q 572 1224 544 1228 q 624 1210 600 1219 q 663 1185 647 1201 q 678 1142 678 1168 q 662 1098 678 1115 q 621 1072 646 1081 q 567 1061 596 1064 l 567 1026 l 474 1026 z "},"Ữ":{"ha":1039,"x_min":100,"x_max":1115,"o":"m 518 -17 q 294 25 388 -17 q 150 151 200 67 q 100 360 100 235 l 100 953 l 308 953 l 308 365 q 363 208 308 263 q 518 153 417 153 q 674 208 619 153 q 729 365 729 263 l 729 953 l 938 953 l 938 360 q 888 151 938 235 q 744 25 838 67 q 518 -17 650 -17 m 825 857 l 825 953 q 947 980 901 953 q 993 1056 992 1007 l 901 1056 l 901 1239 l 1115 1239 l 1115 1111 q 1081 976 1115 1033 q 981 888 1046 918 q 825 857 915 857 m 271 1046 q 287 1131 271 1092 q 335 1193 303 1169 q 415 1217 367 1217 q 488 1204 454 1217 q 553 1179 521 1192 q 618 1167 585 1167 q 652 1178 639 1167 q 669 1217 665 1189 l 767 1217 q 751 1133 767 1172 q 704 1070 736 1094 q 622 1046 672 1046 q 552 1058 586 1046 q 486 1084 518 1071 q 422 1097 454 1097 q 388 1085 401 1097 q 371 1046 374 1072 l 271 1046 z "},"Ű":{"ha":1039,"x_min":100,"x_max":938,"o":"m 518 -17 q 294 25 388 -17 q 150 151 200 67 q 100 360 100 235 l 100 953 l 308 953 l 308 365 q 363 208 308 263 q 518 153 417 153 q 674 208 619 153 q 729 365 729 263 l 729 953 l 938 953 l 938 360 q 888 151 938 235 q 744 25 838 67 q 518 -17 650 -17 m 574 1026 l 676 1211 l 876 1211 l 879 1206 l 725 1026 l 574 1026 m 304 1026 l 407 1211 l 607 1211 l 608 1206 l 456 1026 l 304 1026 z "},"Ȗ":{"ha":1039,"x_min":100,"x_max":938,"o":"m 518 -17 q 294 25 388 -17 q 150 151 200 67 q 100 360 100 235 l 100 953 l 308 953 l 308 365 q 363 208 308 263 q 518 153 417 153 q 674 208 619 153 q 729 365 729 263 l 729 953 l 938 953 l 938 360 q 888 151 938 235 q 744 25 838 67 q 518 -17 650 -17 m 294 1025 q 318 1112 294 1069 q 392 1183 342 1154 q 521 1211 442 1211 q 651 1183 601 1211 q 723 1112 700 1154 q 746 1025 746 1069 l 629 1025 q 615 1056 626 1040 q 580 1082 603 1071 q 521 1093 557 1093 q 462 1082 486 1093 q 425 1056 438 1071 q 411 1025 413 1040 l 294 1025 z "},"Ū":{"ha":1039,"x_min":100,"x_max":938,"o":"m 518 -17 q 294 25 388 -17 q 150 151 200 67 q 100 360 100 235 l 100 953 l 308 953 l 308 365 q 363 208 308 263 q 518 153 417 153 q 674 208 619 153 q 729 365 729 263 l 729 953 l 938 953 l 938 360 q 888 151 938 235 q 744 25 838 67 q 518 -17 650 -17 m 306 1049 l 306 1168 l 732 1168 l 732 1049 l 306 1049 z "},"Ų":{"ha":1039,"x_min":100,"x_max":938,"o":"m 518 -17 q 294 25 388 -17 q 150 151 200 67 q 100 360 100 235 l 100 953 l 308 953 l 308 365 q 363 208 308 263 q 518 153 417 153 q 674 208 619 153 q 729 365 729 263 l 729 953 l 938 953 l 938 360 q 888 151 938 235 q 744 25 838 67 q 518 -17 650 -17 m 669 -261 q 597 -249 632 -261 q 540 -208 563 -237 q 517 -131 517 -179 q 540 -44 517 -79 q 590 17 563 -10 l 707 17 l 707 11 q 674 -30 690 -3 q 658 -86 658 -57 q 675 -137 658 -115 q 729 -160 692 -160 l 789 -160 l 789 -242 q 729 -256 763 -251 q 669 -261 696 -261 z "},"Ů":{"ha":1039,"x_min":100,"x_max":938,"o":"m 518 -17 q 294 25 388 -17 q 150 151 200 67 q 100 360 100 235 l 100 953 l 308 953 l 308 365 q 363 208 308 263 q 518 153 417 153 q 674 208 619 153 q 729 365 729 263 l 729 953 l 938 953 l 938 360 q 888 151 938 235 q 744 25 838 67 q 518 -17 650 -17 m 519 1013 q 413 1052 454 1013 q 371 1153 371 1092 q 413 1253 371 1214 q 519 1293 454 1293 q 627 1253 585 1293 q 669 1153 669 1214 q 627 1052 669 1092 q 519 1013 585 1013 m 519 1094 q 565 1110 547 1094 q 582 1153 582 1126 q 565 1194 582 1178 q 519 1211 547 1211 q 475 1194 493 1211 q 457 1151 457 1178 q 475 1110 457 1126 q 519 1094 493 1094 z "},"Ũ":{"ha":1039,"x_min":100,"x_max":938,"o":"m 518 -17 q 294 25 388 -17 q 150 151 200 67 q 100 360 100 235 l 100 953 l 308 953 l 308 365 q 363 208 308 263 q 518 153 417 153 q 674 208 619 153 q 729 365 729 263 l 729 953 l 938 953 l 938 360 q 888 151 938 235 q 744 25 838 67 q 518 -17 650 -17 m 271 1046 q 287 1131 271 1092 q 335 1193 303 1169 q 415 1217 367 1217 q 488 1204 454 1217 q 553 1179 521 1192 q 618 1167 585 1167 q 652 1178 639 1167 q 669 1217 665 1189 l 767 1217 q 751 1133 767 1172 q 704 1070 736 1094 q 622 1046 672 1046 q 552 1058 586 1046 q 486 1084 518 1071 q 422 1097 454 1097 q 388 1085 401 1097 q 371 1046 374 1072 l 271 1046 z "},"V":{"ha":964,"x_min":17,"x_max":949,"o":"m 361 0 l 17 953 l 240 953 l 446 344 q 458 308 451 329 q 472 265 465 286 q 483 228 479 244 l 492 228 q 503 263 497 243 q 516 304 510 283 q 528 343 522 325 l 733 953 l 949 953 l 603 0 l 361 0 z "},"W":{"ha":1339,"x_min":13,"x_max":1326,"o":"m 263 0 l 13 953 l 232 953 l 371 385 q 379 348 375 372 q 388 297 383 324 q 394 250 392 271 l 401 250 q 406 285 404 265 q 412 323 408 304 q 419 358 415 342 q 424 385 422 375 l 553 953 l 800 953 l 932 385 q 940 347 936 371 q 949 297 944 324 q 956 250 953 271 l 963 250 q 969 283 965 265 q 976 320 972 301 q 983 356 979 339 q 990 385 988 372 l 1128 953 l 1326 953 l 1075 0 l 839 0 l 699 586 q 690 631 694 606 q 681 682 685 657 q 674 726 676 707 l 668 726 q 662 681 665 707 q 653 629 658 654 q 644 586 649 604 l 506 0 l 263 0 z "},"Ẃ":{"ha":1339,"x_min":13,"x_max":1326,"o":"m 263 0 l 13 953 l 232 953 l 371 385 q 379 348 375 372 q 388 297 383 324 q 394 250 392 271 l 401 250 q 406 285 404 265 q 412 323 408 304 q 419 358 415 342 q 424 385 422 375 l 553 953 l 800 953 l 932 385 q 940 347 936 371 q 949 297 944 324 q 956 250 953 271 l 963 250 q 969 283 965 265 q 976 320 972 301 q 983 356 979 339 q 990 385 988 372 l 1128 953 l 1326 953 l 1075 0 l 839 0 l 699 586 q 690 631 694 606 q 681 682 685 657 q 674 726 676 707 l 668 726 q 662 681 665 707 q 653 629 658 654 q 644 586 649 604 l 506 0 l 263 0 m 581 1026 l 697 1211 l 903 1211 l 904 1206 l 739 1026 l 581 1026 z "},"Ŵ":{"ha":1339,"x_min":13,"x_max":1326,"o":"m 263 0 l 13 953 l 232 953 l 371 385 q 379 348 375 372 q 388 297 383 324 q 394 250 392 271 l 401 250 q 406 285 404 265 q 412 323 408 304 q 419 358 415 342 q 424 385 422 375 l 553 953 l 800 953 l 932 385 q 940 347 936 371 q 949 297 944 324 q 956 250 953 271 l 963 250 q 969 283 965 265 q 976 320 972 301 q 983 356 979 339 q 990 385 988 372 l 1128 953 l 1326 953 l 1075 0 l 839 0 l 699 586 q 690 631 694 606 q 681 682 685 657 q 674 726 676 707 l 668 726 q 662 681 665 707 q 653 629 658 654 q 644 586 649 604 l 506 0 l 263 0 m 422 1026 l 578 1211 l 767 1211 l 921 1026 l 754 1026 l 633 1168 l 711 1167 l 589 1026 l 422 1026 z "},"Ẅ":{"ha":1339,"x_min":13,"x_max":1326,"o":"m 263 0 l 13 953 l 232 953 l 371 385 q 379 348 375 372 q 388 297 383 324 q 394 250 392 271 l 401 250 q 406 285 404 265 q 412 323 408 304 q 419 358 415 342 q 424 385 422 375 l 553 953 l 800 953 l 932 385 q 940 347 936 371 q 949 297 944 324 q 956 250 953 271 l 963 250 q 969 283 965 265 q 976 320 972 301 q 983 356 979 339 q 990 385 988 372 l 1128 953 l 1326 953 l 1075 0 l 839 0 l 699 586 q 690 631 694 606 q 681 682 685 657 q 674 726 676 707 l 668 726 q 662 681 665 707 q 653 629 658 654 q 644 586 649 604 l 506 0 l 263 0 m 446 1049 l 446 1211 l 611 1211 l 611 1049 l 446 1049 m 733 1049 l 733 1211 l 899 1211 l 899 1049 l 733 1049 z "},"Ẁ":{"ha":1339,"x_min":13,"x_max":1326,"o":"m 263 0 l 13 953 l 232 953 l 371 385 q 379 348 375 372 q 388 297 383 324 q 394 250 392 271 l 401 250 q 406 285 404 265 q 412 323 408 304 q 419 358 415 342 q 424 385 422 375 l 553 953 l 800 953 l 932 385 q 940 347 936 371 q 949 297 944 324 q 956 250 953 271 l 963 250 q 969 283 965 265 q 976 320 972 301 q 983 356 979 339 q 990 385 988 372 l 1128 953 l 1326 953 l 1075 0 l 839 0 l 699 586 q 690 631 694 606 q 681 682 685 657 q 674 726 676 707 l 668 726 q 662 681 665 707 q 653 629 658 654 q 644 586 649 604 l 506 0 l 263 0 m 775 1026 l 618 1026 l 451 1206 l 454 1211 l 660 1211 l 775 1026 z "},"X":{"ha":981,"x_min":13,"x_max":968,"o":"m 13 0 l 356 501 l 46 953 l 299 953 l 496 651 l 503 651 l 699 953 l 936 953 l 625 501 l 968 0 l 715 0 l 486 353 l 479 353 l 251 0 l 13 0 z "},"Y":{"ha":971,"x_min":13,"x_max":957,"o":"m 382 0 l 382 383 l 13 953 l 253 953 l 489 569 l 496 569 l 731 953 l 957 953 l 590 383 l 590 0 l 382 0 z "},"Ý":{"ha":971,"x_min":13,"x_max":957,"o":"m 382 0 l 382 383 l 13 953 l 253 953 l 489 569 l 496 569 l 731 953 l 957 953 l 590 383 l 590 0 l 382 0 m 397 1026 l 513 1211 l 719 1211 l 721 1206 l 556 1026 l 397 1026 z "},"Ŷ":{"ha":971,"x_min":13,"x_max":957,"o":"m 382 0 l 382 383 l 13 953 l 253 953 l 489 569 l 496 569 l 731 953 l 957 953 l 590 383 l 590 0 l 382 0 m 239 1026 l 394 1211 l 583 1211 l 738 1026 l 571 1026 l 449 1168 l 528 1167 l 404 1026 l 239 1026 z "},"Ÿ":{"ha":971,"x_min":13,"x_max":957,"o":"m 382 0 l 382 383 l 13 953 l 253 953 l 489 569 l 496 569 l 731 953 l 957 953 l 590 383 l 590 0 l 382 0 m 263 1049 l 263 1211 l 426 1211 l 426 1049 l 263 1049 m 550 1049 l 550 1211 l 714 1211 l 714 1049 l 550 1049 z "},"Ỵ":{"ha":971,"x_min":13,"x_max":957,"o":"m 382 0 l 382 383 l 13 953 l 253 953 l 489 569 l 496 569 l 731 953 l 957 953 l 590 383 l 590 0 l 382 0 m 400 -272 l 400 -106 l 576 -106 l 576 -272 l 400 -272 z "},"Ỳ":{"ha":971,"x_min":13,"x_max":957,"o":"m 382 0 l 382 383 l 13 953 l 253 953 l 489 569 l 496 569 l 731 953 l 957 953 l 590 383 l 590 0 l 382 0 m 592 1026 l 433 1026 l 268 1206 l 269 1211 l 476 1211 l 592 1026 z "},"Ỷ":{"ha":971,"x_min":13,"x_max":957,"o":"m 382 0 l 382 383 l 13 953 l 253 953 l 489 569 l 496 569 l 731 953 l 957 953 l 590 383 l 590 0 l 382 0 m 443 1026 l 443 1104 l 460 1104 q 493 1110 483 1104 q 503 1129 503 1115 q 491 1149 503 1144 q 457 1154 479 1154 l 375 1154 l 375 1217 q 412 1223 392 1221 q 453 1226 432 1225 q 490 1228 474 1228 q 541 1224 514 1228 q 592 1210 568 1219 q 631 1185 615 1201 q 647 1142 647 1168 q 631 1098 647 1115 q 590 1072 615 1081 q 536 1061 565 1064 l 536 1026 l 443 1026 z "},"Ȳ":{"ha":971,"x_min":13,"x_max":957,"o":"m 382 0 l 382 383 l 13 953 l 253 953 l 489 569 l 496 569 l 731 953 l 957 953 l 590 383 l 590 0 l 382 0 m 274 1049 l 274 1168 l 701 1168 l 701 1049 l 274 1049 z "},"Ỹ":{"ha":971,"x_min":13,"x_max":957,"o":"m 382 0 l 382 383 l 13 953 l 253 953 l 489 569 l 496 569 l 731 953 l 957 953 l 590 383 l 590 0 l 382 0 m 240 1046 q 256 1131 240 1092 q 303 1193 271 1169 q 385 1217 336 1217 q 456 1204 422 1217 q 521 1179 489 1192 q 586 1167 553 1167 q 620 1178 607 1167 q 638 1217 633 1189 l 736 1217 q 720 1133 736 1172 q 673 1070 704 1094 q 592 1046 642 1046 q 520 1058 554 1046 q 455 1084 486 1071 q 390 1097 424 1097 q 357 1085 371 1097 q 339 1046 343 1072 l 240 1046 z "},"Z":{"ha":907,"x_min":39,"x_max":857,"o":"m 39 0 l 39 89 l 533 783 l 74 783 l 74 953 l 846 953 l 846 864 l 351 171 l 857 171 l 857 0 l 39 0 z "},"Ź":{"ha":907,"x_min":39,"x_max":857,"o":"m 39 0 l 39 89 l 533 783 l 74 783 l 74 953 l 846 953 l 846 864 l 351 171 l 857 171 l 857 0 l 39 0 m 363 1026 l 479 1211 l 685 1211 l 688 1206 l 521 1026 l 363 1026 z "},"Ž":{"ha":907,"x_min":39,"x_max":857,"o":"m 39 0 l 39 89 l 533 783 l 74 783 l 74 953 l 846 953 l 846 864 l 351 171 l 857 171 l 857 0 l 39 0 m 204 1211 l 371 1211 l 493 1071 l 415 1069 l 538 1211 l 704 1211 l 549 1026 l 361 1026 l 204 1211 z "},"Ż":{"ha":907,"x_min":39,"x_max":857,"o":"m 39 0 l 39 89 l 533 783 l 74 783 l 74 953 l 846 953 l 846 864 l 351 171 l 857 171 l 857 0 l 39 0 m 367 1049 l 367 1221 l 543 1221 l 543 1049 l 367 1049 z "},"a":{"ha":806,"x_min":46,"x_max":799,"o":"m 282 -17 q 205 -8 246 -17 q 128 22 164 0 q 69 84 92 43 q 46 189 46 125 q 79 315 46 265 q 174 394 113 365 q 322 433 236 422 q 513 444 408 444 l 513 499 q 502 554 513 531 q 466 592 492 578 q 394 606 440 606 q 320 594 349 606 q 280 566 292 583 q 268 528 268 549 l 268 511 l 81 511 q 79 524 79 518 q 79 540 79 531 q 118 651 79 604 q 228 722 157 697 q 393 747 299 747 q 563 721 494 747 q 669 643 632 694 q 706 514 706 592 l 706 182 q 720 145 706 157 q 753 133 735 133 l 799 133 l 799 7 q 756 -8 785 0 q 685 -15 726 -15 q 613 -3 644 -15 q 561 30 582 8 q 532 82 540 51 l 522 82 q 465 31 499 53 q 385 -4 431 8 q 282 -17 340 -17 m 347 129 q 417 141 386 129 q 468 173 447 153 q 501 222 489 193 q 513 285 513 251 l 513 325 q 374 315 435 325 q 277 279 313 304 q 242 210 242 254 q 254 167 242 185 q 290 139 267 149 q 347 129 314 129 z "},"á":{"ha":806,"x_min":46,"x_max":799,"o":"m 282 -17 q 205 -8 246 -17 q 128 22 164 0 q 69 84 92 43 q 46 189 46 125 q 79 315 46 265 q 174 394 113 365 q 322 433 236 422 q 513 444 408 444 l 513 499 q 502 554 513 531 q 466 592 492 578 q 394 606 440 606 q 320 594 349 606 q 280 566 292 583 q 268 528 268 549 l 268 511 l 81 511 q 79 524 79 518 q 79 540 79 531 q 118 651 79 604 q 228 722 157 697 q 393 747 299 747 q 563 721 494 747 q 669 643 632 694 q 706 514 706 592 l 706 182 q 720 145 706 157 q 753 133 735 133 l 799 133 l 799 7 q 756 -8 785 0 q 685 -15 726 -15 q 613 -3 644 -15 q 561 30 582 8 q 532 82 540 51 l 522 82 q 465 31 499 53 q 385 -4 431 8 q 282 -17 340 -17 m 347 129 q 417 141 386 129 q 468 173 447 153 q 501 222 489 193 q 513 285 513 251 l 513 325 q 374 315 435 325 q 277 279 313 304 q 242 210 242 254 q 254 167 242 185 q 290 139 267 149 q 347 129 314 129 m 293 821 l 408 1004 l 608 1004 l 610 1000 l 443 821 l 293 821 z "},"ă":{"ha":806,"x_min":46,"x_max":799,"o":"m 282 -17 q 205 -8 246 -17 q 128 22 164 0 q 69 84 92 43 q 46 189 46 125 q 79 315 46 265 q 174 394 113 365 q 322 433 236 422 q 513 444 408 444 l 513 499 q 502 554 513 531 q 466 592 492 578 q 394 606 440 606 q 320 594 349 606 q 280 566 292 583 q 268 528 268 549 l 268 511 l 81 511 q 79 524 79 518 q 79 540 79 531 q 118 651 79 604 q 228 722 157 697 q 393 747 299 747 q 563 721 494 747 q 669 643 632 694 q 706 514 706 592 l 706 182 q 720 145 706 157 q 753 133 735 133 l 799 133 l 799 7 q 756 -8 785 0 q 685 -15 726 -15 q 613 -3 644 -15 q 561 30 582 8 q 532 82 540 51 l 522 82 q 465 31 499 53 q 385 -4 431 8 q 282 -17 340 -17 m 347 129 q 417 141 386 129 q 468 173 447 153 q 501 222 489 193 q 513 285 513 251 l 513 325 q 374 315 435 325 q 277 279 313 304 q 242 210 242 254 q 254 167 242 185 q 290 139 267 149 q 347 129 314 129 m 392 818 q 263 847 313 818 q 190 918 213 875 q 167 1004 167 961 l 283 1004 q 300 972 288 989 q 335 945 313 956 q 392 935 358 935 q 451 946 428 935 q 488 974 475 957 q 501 1004 500 990 l 618 1004 q 594 918 618 961 q 522 847 571 875 q 392 818 472 818 z "},"ắ":{"ha":806,"x_min":46,"x_max":799,"o":"m 282 -17 q 205 -8 246 -17 q 128 22 164 0 q 69 84 92 43 q 46 189 46 125 q 79 315 46 265 q 174 394 113 365 q 322 433 236 422 q 513 444 408 444 l 513 499 q 502 554 513 531 q 466 592 492 578 q 394 606 440 606 q 320 594 349 606 q 280 566 292 583 q 268 528 268 549 l 268 511 l 81 511 q 79 524 79 518 q 79 540 79 531 q 118 651 79 604 q 228 722 157 697 q 393 747 299 747 q 563 721 494 747 q 669 643 632 694 q 706 514 706 592 l 706 182 q 720 145 706 157 q 753 133 735 133 l 799 133 l 799 7 q 756 -8 785 0 q 685 -15 726 -15 q 613 -3 644 -15 q 561 30 582 8 q 532 82 540 51 l 522 82 q 465 31 499 53 q 385 -4 431 8 q 282 -17 340 -17 m 347 129 q 417 141 386 129 q 468 173 447 153 q 501 222 489 193 q 513 285 513 251 l 513 325 q 374 315 435 325 q 277 279 313 304 q 242 210 242 254 q 254 167 242 185 q 290 139 267 149 q 347 129 314 129 m 392 818 q 263 847 313 818 q 190 918 213 875 q 167 1004 167 961 l 283 1004 q 300 972 288 989 q 335 945 313 956 q 392 935 358 935 q 451 946 428 935 q 488 974 475 957 q 501 1004 500 990 l 618 1004 q 594 918 618 961 q 522 847 571 875 q 392 818 472 818 m 293 1075 l 408 1260 l 608 1260 l 610 1254 l 443 1075 l 293 1075 z "},"ặ":{"ha":806,"x_min":46,"x_max":799,"o":"m 282 -17 q 205 -8 246 -17 q 128 22 164 0 q 69 84 92 43 q 46 189 46 125 q 79 315 46 265 q 174 394 113 365 q 322 433 236 422 q 513 444 408 444 l 513 499 q 502 554 513 531 q 466 592 492 578 q 394 606 440 606 q 320 594 349 606 q 280 566 292 583 q 268 528 268 549 l 268 511 l 81 511 q 79 524 79 518 q 79 540 79 531 q 118 651 79 604 q 228 722 157 697 q 393 747 299 747 q 563 721 494 747 q 669 643 632 694 q 706 514 706 592 l 706 182 q 720 145 706 157 q 753 133 735 133 l 799 133 l 799 7 q 756 -8 785 0 q 685 -15 726 -15 q 613 -3 644 -15 q 561 30 582 8 q 532 82 540 51 l 522 82 q 465 31 499 53 q 385 -4 431 8 q 282 -17 340 -17 m 347 129 q 417 141 386 129 q 468 173 447 153 q 501 222 489 193 q 513 285 513 251 l 513 325 q 374 315 435 325 q 277 279 313 304 q 242 210 242 254 q 254 167 242 185 q 290 139 267 149 q 347 129 314 129 m 304 -272 l 304 -106 l 481 -106 l 481 -272 l 304 -272 m 392 818 q 263 847 313 818 q 190 918 213 875 q 167 1004 167 961 l 283 1004 q 300 972 288 989 q 335 945 313 956 q 392 935 358 935 q 451 946 428 935 q 488 974 475 957 q 501 1004 500 990 l 618 1004 q 594 918 618 961 q 522 847 571 875 q 392 818 472 818 z "},"ằ":{"ha":806,"x_min":46,"x_max":799,"o":"m 282 -17 q 205 -8 246 -17 q 128 22 164 0 q 69 84 92 43 q 46 189 46 125 q 79 315 46 265 q 174 394 113 365 q 322 433 236 422 q 513 444 408 444 l 513 499 q 502 554 513 531 q 466 592 492 578 q 394 606 440 606 q 320 594 349 606 q 280 566 292 583 q 268 528 268 549 l 268 511 l 81 511 q 79 524 79 518 q 79 540 79 531 q 118 651 79 604 q 228 722 157 697 q 393 747 299 747 q 563 721 494 747 q 669 643 632 694 q 706 514 706 592 l 706 182 q 720 145 706 157 q 753 133 735 133 l 799 133 l 799 7 q 756 -8 785 0 q 685 -15 726 -15 q 613 -3 644 -15 q 561 30 582 8 q 532 82 540 51 l 522 82 q 465 31 499 53 q 385 -4 431 8 q 282 -17 340 -17 m 347 129 q 417 141 386 129 q 468 173 447 153 q 501 222 489 193 q 513 285 513 251 l 513 325 q 374 315 435 325 q 277 279 313 304 q 242 210 242 254 q 254 167 242 185 q 290 139 267 149 q 347 129 314 129 m 392 818 q 263 847 313 818 q 190 918 213 875 q 167 1004 167 961 l 283 1004 q 300 972 288 989 q 335 945 313 956 q 392 935 358 935 q 451 946 428 935 q 488 974 475 957 q 501 1004 500 990 l 618 1004 q 594 918 618 961 q 522 847 571 875 q 392 818 472 818 m 497 1075 l 346 1075 l 181 1254 l 182 1260 l 382 1260 l 497 1075 z "},"ẳ":{"ha":806,"x_min":46,"x_max":799,"o":"m 282 -17 q 205 -8 246 -17 q 128 22 164 0 q 69 84 92 43 q 46 189 46 125 q 79 315 46 265 q 174 394 113 365 q 322 433 236 422 q 513 444 408 444 l 513 499 q 502 554 513 531 q 466 592 492 578 q 394 606 440 606 q 320 594 349 606 q 280 566 292 583 q 268 528 268 549 l 268 511 l 81 511 q 79 524 79 518 q 79 540 79 531 q 118 651 79 604 q 228 722 157 697 q 393 747 299 747 q 563 721 494 747 q 669 643 632 694 q 706 514 706 592 l 706 182 q 720 145 706 157 q 753 133 735 133 l 799 133 l 799 7 q 756 -8 785 0 q 685 -15 726 -15 q 613 -3 644 -15 q 561 30 582 8 q 532 82 540 51 l 522 82 q 465 31 499 53 q 385 -4 431 8 q 282 -17 340 -17 m 347 129 q 417 141 386 129 q 468 173 447 153 q 501 222 489 193 q 513 285 513 251 l 513 325 q 374 315 435 325 q 277 279 313 304 q 242 210 242 254 q 254 167 242 185 q 290 139 267 149 q 347 129 314 129 m 392 818 q 263 847 313 818 q 190 918 213 875 q 167 1004 167 961 l 283 1004 q 300 972 288 989 q 335 945 313 956 q 392 935 358 935 q 451 946 428 935 q 488 974 475 957 q 501 1004 500 990 l 618 1004 q 594 918 618 961 q 522 847 571 875 q 392 818 472 818 m 349 1075 l 349 1153 l 367 1153 q 400 1159 390 1153 q 410 1179 410 1165 q 397 1199 410 1194 q 363 1203 385 1203 l 281 1203 l 281 1265 q 318 1272 297 1269 q 359 1275 339 1274 q 396 1276 379 1276 q 447 1273 419 1276 q 499 1260 475 1269 q 538 1233 522 1250 q 553 1190 553 1217 q 537 1147 553 1164 q 496 1122 521 1131 q 443 1111 471 1114 l 443 1075 l 349 1075 z "},"ẵ":{"ha":806,"x_min":46,"x_max":799,"o":"m 282 -17 q 205 -8 246 -17 q 128 22 164 0 q 69 84 92 43 q 46 189 46 125 q 79 315 46 265 q 174 394 113 365 q 322 433 236 422 q 513 444 408 444 l 513 499 q 502 554 513 531 q 466 592 492 578 q 394 606 440 606 q 320 594 349 606 q 280 566 292 583 q 268 528 268 549 l 268 511 l 81 511 q 79 524 79 518 q 79 540 79 531 q 118 651 79 604 q 228 722 157 697 q 393 747 299 747 q 563 721 494 747 q 669 643 632 694 q 706 514 706 592 l 706 182 q 720 145 706 157 q 753 133 735 133 l 799 133 l 799 7 q 756 -8 785 0 q 685 -15 726 -15 q 613 -3 644 -15 q 561 30 582 8 q 532 82 540 51 l 522 82 q 465 31 499 53 q 385 -4 431 8 q 282 -17 340 -17 m 347 129 q 417 141 386 129 q 468 173 447 153 q 501 222 489 193 q 513 285 513 251 l 513 325 q 374 315 435 325 q 277 279 313 304 q 242 210 242 254 q 254 167 242 185 q 290 139 267 149 q 347 129 314 129 m 392 818 q 263 847 313 818 q 190 918 213 875 q 167 1004 167 961 l 283 1004 q 300 972 288 989 q 335 945 313 956 q 392 935 358 935 q 451 946 428 935 q 488 974 475 957 q 501 1004 500 990 l 618 1004 q 594 918 618 961 q 522 847 571 875 q 392 818 472 818 m 144 1089 q 160 1174 144 1135 q 208 1236 176 1213 q 289 1260 240 1260 q 361 1247 328 1260 q 426 1222 394 1235 q 492 1208 458 1208 q 526 1220 513 1208 q 543 1260 539 1232 l 640 1260 q 625 1176 640 1214 q 578 1113 610 1138 q 496 1089 546 1089 q 426 1101 460 1089 q 360 1127 392 1114 q 296 1140 328 1140 q 262 1128 275 1140 q 244 1089 249 1115 l 144 1089 z "},"ǎ":{"ha":806,"x_min":46,"x_max":799,"o":"m 282 -17 q 205 -8 246 -17 q 128 22 164 0 q 69 84 92 43 q 46 189 46 125 q 79 315 46 265 q 174 394 113 365 q 322 433 236 422 q 513 444 408 444 l 513 499 q 502 554 513 531 q 466 592 492 578 q 394 606 440 606 q 320 594 349 606 q 280 566 292 583 q 268 528 268 549 l 268 511 l 81 511 q 79 524 79 518 q 79 540 79 531 q 118 651 79 604 q 228 722 157 697 q 393 747 299 747 q 563 721 494 747 q 669 643 632 694 q 706 514 706 592 l 706 182 q 720 145 706 157 q 753 133 735 133 l 799 133 l 799 7 q 756 -8 785 0 q 685 -15 726 -15 q 613 -3 644 -15 q 561 30 582 8 q 532 82 540 51 l 522 82 q 465 31 499 53 q 385 -4 431 8 q 282 -17 340 -17 m 347 129 q 417 141 386 129 q 468 173 447 153 q 501 222 489 193 q 513 285 513 251 l 513 325 q 374 315 435 325 q 277 279 313 304 q 242 210 242 254 q 254 167 242 185 q 290 139 267 149 q 347 129 314 129 m 150 1004 l 310 1004 l 432 864 l 354 863 l 476 1004 l 636 1004 l 481 821 l 307 821 l 150 1004 z "},"â":{"ha":806,"x_min":46,"x_max":799,"o":"m 282 -17 q 205 -8 246 -17 q 128 22 164 0 q 69 84 92 43 q 46 189 46 125 q 79 315 46 265 q 174 394 113 365 q 322 433 236 422 q 513 444 408 444 l 513 499 q 502 554 513 531 q 466 592 492 578 q 394 606 440 606 q 320 594 349 606 q 280 566 292 583 q 268 528 268 549 l 268 511 l 81 511 q 79 524 79 518 q 79 540 79 531 q 118 651 79 604 q 228 722 157 697 q 393 747 299 747 q 563 721 494 747 q 669 643 632 694 q 706 514 706 592 l 706 182 q 720 145 706 157 q 753 133 735 133 l 799 133 l 799 7 q 756 -8 785 0 q 685 -15 726 -15 q 613 -3 644 -15 q 561 30 582 8 q 532 82 540 51 l 522 82 q 465 31 499 53 q 385 -4 431 8 q 282 -17 340 -17 m 347 129 q 417 141 386 129 q 468 173 447 153 q 501 222 489 193 q 513 285 513 251 l 513 325 q 374 315 435 325 q 277 279 313 304 q 242 210 242 254 q 254 167 242 185 q 290 139 267 149 q 347 129 314 129 m 150 821 l 307 1004 l 481 1004 l 636 821 l 476 821 l 354 961 l 432 961 l 310 821 l 150 821 z "},"ấ":{"ha":806,"x_min":46,"x_max":799,"o":"m 282 -17 q 205 -8 246 -17 q 128 22 164 0 q 69 84 92 43 q 46 189 46 125 q 79 315 46 265 q 174 394 113 365 q 322 433 236 422 q 513 444 408 444 l 513 499 q 502 554 513 531 q 466 592 492 578 q 394 606 440 606 q 320 594 349 606 q 280 566 292 583 q 268 528 268 549 l 268 511 l 81 511 q 79 524 79 518 q 79 540 79 531 q 118 651 79 604 q 228 722 157 697 q 393 747 299 747 q 563 721 494 747 q 669 643 632 694 q 706 514 706 592 l 706 182 q 720 145 706 157 q 753 133 735 133 l 799 133 l 799 7 q 756 -8 785 0 q 685 -15 726 -15 q 613 -3 644 -15 q 561 30 582 8 q 532 82 540 51 l 522 82 q 465 31 499 53 q 385 -4 431 8 q 282 -17 340 -17 m 347 129 q 417 141 386 129 q 468 173 447 153 q 501 222 489 193 q 513 285 513 251 l 513 325 q 374 315 435 325 q 277 279 313 304 q 242 210 242 254 q 254 167 242 185 q 290 139 267 149 q 347 129 314 129 m 150 821 l 307 1004 l 481 1004 l 636 821 l 476 821 l 354 961 l 432 961 l 310 821 l 150 821 m 293 1075 l 408 1260 l 608 1260 l 610 1254 l 443 1075 l 293 1075 z "},"ậ":{"ha":806,"x_min":46,"x_max":799,"o":"m 282 -17 q 205 -8 246 -17 q 128 22 164 0 q 69 84 92 43 q 46 189 46 125 q 79 315 46 265 q 174 394 113 365 q 322 433 236 422 q 513 444 408 444 l 513 499 q 502 554 513 531 q 466 592 492 578 q 394 606 440 606 q 320 594 349 606 q 280 566 292 583 q 268 528 268 549 l 268 511 l 81 511 q 79 524 79 518 q 79 540 79 531 q 118 651 79 604 q 228 722 157 697 q 393 747 299 747 q 563 721 494 747 q 669 643 632 694 q 706 514 706 592 l 706 182 q 720 145 706 157 q 753 133 735 133 l 799 133 l 799 7 q 756 -8 785 0 q 685 -15 726 -15 q 613 -3 644 -15 q 561 30 582 8 q 532 82 540 51 l 522 82 q 465 31 499 53 q 385 -4 431 8 q 282 -17 340 -17 m 347 129 q 417 141 386 129 q 468 173 447 153 q 501 222 489 193 q 513 285 513 251 l 513 325 q 374 315 435 325 q 277 279 313 304 q 242 210 242 254 q 254 167 242 185 q 290 139 267 149 q 347 129 314 129 m 304 -272 l 304 -106 l 481 -106 l 481 -272 l 304 -272 m 150 821 l 307 1004 l 481 1004 l 636 821 l 476 821 l 354 961 l 432 961 l 310 821 l 150 821 z "},"ầ":{"ha":806,"x_min":46,"x_max":799,"o":"m 282 -17 q 205 -8 246 -17 q 128 22 164 0 q 69 84 92 43 q 46 189 46 125 q 79 315 46 265 q 174 394 113 365 q 322 433 236 422 q 513 444 408 444 l 513 499 q 502 554 513 531 q 466 592 492 578 q 394 606 440 606 q 320 594 349 606 q 280 566 292 583 q 268 528 268 549 l 268 511 l 81 511 q 79 524 79 518 q 79 540 79 531 q 118 651 79 604 q 228 722 157 697 q 393 747 299 747 q 563 721 494 747 q 669 643 632 694 q 706 514 706 592 l 706 182 q 720 145 706 157 q 753 133 735 133 l 799 133 l 799 7 q 756 -8 785 0 q 685 -15 726 -15 q 613 -3 644 -15 q 561 30 582 8 q 532 82 540 51 l 522 82 q 465 31 499 53 q 385 -4 431 8 q 282 -17 340 -17 m 347 129 q 417 141 386 129 q 468 173 447 153 q 501 222 489 193 q 513 285 513 251 l 513 325 q 374 315 435 325 q 277 279 313 304 q 242 210 242 254 q 254 167 242 185 q 290 139 267 149 q 347 129 314 129 m 150 821 l 307 1004 l 481 1004 l 636 821 l 476 821 l 354 961 l 432 961 l 310 821 l 150 821 m 497 1075 l 346 1075 l 181 1254 l 182 1260 l 382 1260 l 497 1075 z "},"ẩ":{"ha":806,"x_min":46,"x_max":799,"o":"m 282 -17 q 205 -8 246 -17 q 128 22 164 0 q 69 84 92 43 q 46 189 46 125 q 79 315 46 265 q 174 394 113 365 q 322 433 236 422 q 513 444 408 444 l 513 499 q 502 554 513 531 q 466 592 492 578 q 394 606 440 606 q 320 594 349 606 q 280 566 292 583 q 268 528 268 549 l 268 511 l 81 511 q 79 524 79 518 q 79 540 79 531 q 118 651 79 604 q 228 722 157 697 q 393 747 299 747 q 563 721 494 747 q 669 643 632 694 q 706 514 706 592 l 706 182 q 720 145 706 157 q 753 133 735 133 l 799 133 l 799 7 q 756 -8 785 0 q 685 -15 726 -15 q 613 -3 644 -15 q 561 30 582 8 q 532 82 540 51 l 522 82 q 465 31 499 53 q 385 -4 431 8 q 282 -17 340 -17 m 347 129 q 417 141 386 129 q 468 173 447 153 q 501 222 489 193 q 513 285 513 251 l 513 325 q 374 315 435 325 q 277 279 313 304 q 242 210 242 254 q 254 167 242 185 q 290 139 267 149 q 347 129 314 129 m 150 821 l 307 1004 l 481 1004 l 636 821 l 476 821 l 354 961 l 432 961 l 310 821 l 150 821 m 349 1075 l 349 1153 l 367 1153 q 400 1159 390 1153 q 410 1179 410 1165 q 397 1199 410 1194 q 363 1203 385 1203 l 281 1203 l 281 1265 q 318 1272 297 1269 q 359 1275 339 1274 q 396 1276 379 1276 q 447 1273 419 1276 q 499 1260 475 1269 q 538 1233 522 1250 q 553 1190 553 1217 q 537 1147 553 1164 q 496 1122 521 1131 q 443 1111 471 1114 l 443 1075 l 349 1075 z "},"ẫ":{"ha":806,"x_min":46,"x_max":799,"o":"m 282 -17 q 205 -8 246 -17 q 128 22 164 0 q 69 84 92 43 q 46 189 46 125 q 79 315 46 265 q 174 394 113 365 q 322 433 236 422 q 513 444 408 444 l 513 499 q 502 554 513 531 q 466 592 492 578 q 394 606 440 606 q 320 594 349 606 q 280 566 292 583 q 268 528 268 549 l 268 511 l 81 511 q 79 524 79 518 q 79 540 79 531 q 118 651 79 604 q 228 722 157 697 q 393 747 299 747 q 563 721 494 747 q 669 643 632 694 q 706 514 706 592 l 706 182 q 720 145 706 157 q 753 133 735 133 l 799 133 l 799 7 q 756 -8 785 0 q 685 -15 726 -15 q 613 -3 644 -15 q 561 30 582 8 q 532 82 540 51 l 522 82 q 465 31 499 53 q 385 -4 431 8 q 282 -17 340 -17 m 347 129 q 417 141 386 129 q 468 173 447 153 q 501 222 489 193 q 513 285 513 251 l 513 325 q 374 315 435 325 q 277 279 313 304 q 242 210 242 254 q 254 167 242 185 q 290 139 267 149 q 347 129 314 129 m 150 821 l 307 1004 l 481 1004 l 636 821 l 476 821 l 354 961 l 432 961 l 310 821 l 150 821 m 144 1089 q 160 1174 144 1135 q 208 1236 176 1213 q 289 1260 240 1260 q 361 1247 328 1260 q 426 1222 394 1235 q 492 1208 458 1208 q 526 1220 513 1208 q 543 1260 539 1232 l 640 1260 q 625 1176 640 1214 q 578 1113 610 1138 q 496 1089 546 1089 q 426 1101 460 1089 q 360 1127 392 1114 q 296 1140 328 1140 q 262 1128 275 1140 q 244 1089 249 1115 l 144 1089 z "},"ȁ":{"ha":806,"x_min":46,"x_max":799,"o":"m 282 -17 q 205 -8 246 -17 q 128 22 164 0 q 69 84 92 43 q 46 189 46 125 q 79 315 46 265 q 174 394 113 365 q 322 433 236 422 q 513 444 408 444 l 513 499 q 502 554 513 531 q 466 592 492 578 q 394 606 440 606 q 320 594 349 606 q 280 566 292 583 q 268 528 268 549 l 268 511 l 81 511 q 79 524 79 518 q 79 540 79 531 q 118 651 79 604 q 228 722 157 697 q 393 747 299 747 q 563 721 494 747 q 669 643 632 694 q 706 514 706 592 l 706 182 q 720 145 706 157 q 753 133 735 133 l 799 133 l 799 7 q 756 -8 785 0 q 685 -15 726 -15 q 613 -3 644 -15 q 561 30 582 8 q 532 82 540 51 l 522 82 q 465 31 499 53 q 385 -4 431 8 q 282 -17 340 -17 m 347 129 q 417 141 386 129 q 468 173 447 153 q 501 222 489 193 q 513 285 513 251 l 513 325 q 374 315 435 325 q 277 279 313 304 q 242 210 242 254 q 254 167 242 185 q 290 139 267 149 q 347 129 314 129 m 461 821 l 310 1000 l 311 1004 l 497 1004 l 601 821 l 461 821 m 219 821 l 68 1000 l 69 1004 l 256 1004 l 360 821 l 219 821 z "},"ä":{"ha":806,"x_min":46,"x_max":799,"o":"m 282 -17 q 205 -8 246 -17 q 128 22 164 0 q 69 84 92 43 q 46 189 46 125 q 79 315 46 265 q 174 394 113 365 q 322 433 236 422 q 513 444 408 444 l 513 499 q 502 554 513 531 q 466 592 492 578 q 394 606 440 606 q 320 594 349 606 q 280 566 292 583 q 268 528 268 549 l 268 511 l 81 511 q 79 524 79 518 q 79 540 79 531 q 118 651 79 604 q 228 722 157 697 q 393 747 299 747 q 563 721 494 747 q 669 643 632 694 q 706 514 706 592 l 706 182 q 720 145 706 157 q 753 133 735 133 l 799 133 l 799 7 q 756 -8 785 0 q 685 -15 726 -15 q 613 -3 644 -15 q 561 30 582 8 q 532 82 540 51 l 522 82 q 465 31 499 53 q 385 -4 431 8 q 282 -17 340 -17 m 347 129 q 417 141 386 129 q 468 173 447 153 q 501 222 489 193 q 513 285 513 251 l 513 325 q 374 315 435 325 q 277 279 313 304 q 242 210 242 254 q 254 167 242 185 q 290 139 267 149 q 347 129 314 129 m 167 842 l 167 1004 l 331 1004 l 331 842 l 167 842 m 454 842 l 454 1004 l 619 1004 l 619 842 l 454 842 z "},"ạ":{"ha":806,"x_min":46,"x_max":799,"o":"m 282 -17 q 205 -8 246 -17 q 128 22 164 0 q 69 84 92 43 q 46 189 46 125 q 79 315 46 265 q 174 394 113 365 q 322 433 236 422 q 513 444 408 444 l 513 499 q 502 554 513 531 q 466 592 492 578 q 394 606 440 606 q 320 594 349 606 q 280 566 292 583 q 268 528 268 549 l 268 511 l 81 511 q 79 524 79 518 q 79 540 79 531 q 118 651 79 604 q 228 722 157 697 q 393 747 299 747 q 563 721 494 747 q 669 643 632 694 q 706 514 706 592 l 706 182 q 720 145 706 157 q 753 133 735 133 l 799 133 l 799 7 q 756 -8 785 0 q 685 -15 726 -15 q 613 -3 644 -15 q 561 30 582 8 q 532 82 540 51 l 522 82 q 465 31 499 53 q 385 -4 431 8 q 282 -17 340 -17 m 347 129 q 417 141 386 129 q 468 173 447 153 q 501 222 489 193 q 513 285 513 251 l 513 325 q 374 315 435 325 q 277 279 313 304 q 242 210 242 254 q 254 167 242 185 q 290 139 267 149 q 347 129 314 129 m 304 -272 l 304 -106 l 481 -106 l 481 -272 l 304 -272 z "},"à":{"ha":806,"x_min":46,"x_max":799,"o":"m 282 -17 q 205 -8 246 -17 q 128 22 164 0 q 69 84 92 43 q 46 189 46 125 q 79 315 46 265 q 174 394 113 365 q 322 433 236 422 q 513 444 408 444 l 513 499 q 502 554 513 531 q 466 592 492 578 q 394 606 440 606 q 320 594 349 606 q 280 566 292 583 q 268 528 268 549 l 268 511 l 81 511 q 79 524 79 518 q 79 540 79 531 q 118 651 79 604 q 228 722 157 697 q 393 747 299 747 q 563 721 494 747 q 669 643 632 694 q 706 514 706 592 l 706 182 q 720 145 706 157 q 753 133 735 133 l 799 133 l 799 7 q 756 -8 785 0 q 685 -15 726 -15 q 613 -3 644 -15 q 561 30 582 8 q 532 82 540 51 l 522 82 q 465 31 499 53 q 385 -4 431 8 q 282 -17 340 -17 m 347 129 q 417 141 386 129 q 468 173 447 153 q 501 222 489 193 q 513 285 513 251 l 513 325 q 374 315 435 325 q 277 279 313 304 q 242 210 242 254 q 254 167 242 185 q 290 139 267 149 q 347 129 314 129 m 497 821 l 346 821 l 181 1000 l 182 1004 l 382 1004 l 497 821 z "},"ả":{"ha":806,"x_min":46,"x_max":799,"o":"m 282 -17 q 205 -8 246 -17 q 128 22 164 0 q 69 84 92 43 q 46 189 46 125 q 79 315 46 265 q 174 394 113 365 q 322 433 236 422 q 513 444 408 444 l 513 499 q 502 554 513 531 q 466 592 492 578 q 394 606 440 606 q 320 594 349 606 q 280 566 292 583 q 268 528 268 549 l 268 511 l 81 511 q 79 524 79 518 q 79 540 79 531 q 118 651 79 604 q 228 722 157 697 q 393 747 299 747 q 563 721 494 747 q 669 643 632 694 q 706 514 706 592 l 706 182 q 720 145 706 157 q 753 133 735 133 l 799 133 l 799 7 q 756 -8 785 0 q 685 -15 726 -15 q 613 -3 644 -15 q 561 30 582 8 q 532 82 540 51 l 522 82 q 465 31 499 53 q 385 -4 431 8 q 282 -17 340 -17 m 347 129 q 417 141 386 129 q 468 173 447 153 q 501 222 489 193 q 513 285 513 251 l 513 325 q 374 315 435 325 q 277 279 313 304 q 242 210 242 254 q 254 167 242 185 q 290 139 267 149 q 347 129 314 129 m 349 821 l 349 899 l 367 899 q 400 904 390 899 q 410 924 410 910 q 397 944 410 939 q 363 949 385 949 l 281 949 l 281 1011 q 318 1017 297 1015 q 359 1021 339 1019 q 396 1022 379 1022 q 447 1018 419 1022 q 499 1005 475 1014 q 538 979 522 996 q 553 936 553 963 q 537 892 553 910 q 496 867 521 875 q 443 856 471 858 l 443 821 l 349 821 z "},"ȃ":{"ha":806,"x_min":46,"x_max":799,"o":"m 282 -17 q 205 -8 246 -17 q 128 22 164 0 q 69 84 92 43 q 46 189 46 125 q 79 315 46 265 q 174 394 113 365 q 322 433 236 422 q 513 444 408 444 l 513 499 q 502 554 513 531 q 466 592 492 578 q 394 606 440 606 q 320 594 349 606 q 280 566 292 583 q 268 528 268 549 l 268 511 l 81 511 q 79 524 79 518 q 79 540 79 531 q 118 651 79 604 q 228 722 157 697 q 393 747 299 747 q 563 721 494 747 q 669 643 632 694 q 706 514 706 592 l 706 182 q 720 145 706 157 q 753 133 735 133 l 799 133 l 799 7 q 756 -8 785 0 q 685 -15 726 -15 q 613 -3 644 -15 q 561 30 582 8 q 532 82 540 51 l 522 82 q 465 31 499 53 q 385 -4 431 8 q 282 -17 340 -17 m 347 129 q 417 141 386 129 q 468 173 447 153 q 501 222 489 193 q 513 285 513 251 l 513 325 q 374 315 435 325 q 277 279 313 304 q 242 210 242 254 q 254 167 242 185 q 290 139 267 149 q 347 129 314 129 m 392 1004 q 522 976 472 1004 q 594 905 571 947 q 618 818 618 863 l 501 818 q 488 849 500 833 q 451 876 475 865 q 392 888 428 888 q 335 877 358 888 q 300 851 313 867 q 283 818 288 835 l 167 818 q 190 905 167 863 q 263 976 213 947 q 392 1004 313 1004 z "},"ā":{"ha":806,"x_min":46,"x_max":799,"o":"m 282 -17 q 205 -8 246 -17 q 128 22 164 0 q 69 84 92 43 q 46 189 46 125 q 79 315 46 265 q 174 394 113 365 q 322 433 236 422 q 513 444 408 444 l 513 499 q 502 554 513 531 q 466 592 492 578 q 394 606 440 606 q 320 594 349 606 q 280 566 292 583 q 268 528 268 549 l 268 511 l 81 511 q 79 524 79 518 q 79 540 79 531 q 118 651 79 604 q 228 722 157 697 q 393 747 299 747 q 563 721 494 747 q 669 643 632 694 q 706 514 706 592 l 706 182 q 720 145 706 157 q 753 133 735 133 l 799 133 l 799 7 q 756 -8 785 0 q 685 -15 726 -15 q 613 -3 644 -15 q 561 30 582 8 q 532 82 540 51 l 522 82 q 465 31 499 53 q 385 -4 431 8 q 282 -17 340 -17 m 347 129 q 417 141 386 129 q 468 173 447 153 q 501 222 489 193 q 513 285 513 251 l 513 325 q 374 315 435 325 q 277 279 313 304 q 242 210 242 254 q 254 167 242 185 q 290 139 267 149 q 347 129 314 129 m 179 851 l 179 972 l 607 972 l 607 851 l 179 851 z "},"ą":{"ha":806,"x_min":46,"x_max":799,"o":"m 282 -17 q 205 -8 246 -17 q 128 22 164 0 q 69 84 92 43 q 46 189 46 125 q 79 315 46 265 q 174 394 113 365 q 322 433 236 422 q 513 444 408 444 l 513 499 q 502 554 513 531 q 466 592 492 578 q 394 606 440 606 q 320 594 349 606 q 280 566 292 583 q 268 528 268 549 l 268 511 l 81 511 q 79 524 79 518 q 79 540 79 531 q 118 651 79 604 q 228 722 157 697 q 393 747 299 747 q 563 721 494 747 q 669 643 632 694 q 706 514 706 592 l 706 182 q 720 145 706 157 q 753 133 735 133 l 799 133 l 799 7 q 756 -8 785 0 q 685 -15 726 -15 q 613 -3 644 -15 q 561 30 582 8 q 532 82 540 51 l 522 82 q 465 31 499 53 q 385 -4 431 8 q 282 -17 340 -17 m 347 129 q 417 141 386 129 q 468 173 447 153 q 501 222 489 193 q 513 285 513 251 l 513 325 q 374 315 435 325 q 277 279 313 304 q 242 210 242 254 q 254 167 242 185 q 290 139 267 149 q 347 129 314 129 m 679 -261 q 607 -249 642 -261 q 549 -208 572 -237 q 526 -131 526 -179 q 549 -44 526 -79 q 599 17 572 -10 l 717 17 l 717 11 q 684 -30 700 -3 q 668 -86 668 -57 q 685 -137 668 -115 q 739 -160 701 -160 l 799 -160 l 799 -242 q 738 -256 772 -251 q 679 -261 704 -261 z "},"å":{"ha":806,"x_min":46,"x_max":799,"o":"m 282 -17 q 205 -8 246 -17 q 128 22 164 0 q 69 84 92 43 q 46 189 46 125 q 79 315 46 265 q 174 394 113 365 q 322 433 236 422 q 513 444 408 444 l 513 499 q 502 554 513 531 q 466 592 492 578 q 394 606 440 606 q 320 594 349 606 q 280 566 292 583 q 268 528 268 549 l 268 511 l 81 511 q 79 524 79 518 q 79 540 79 531 q 118 651 79 604 q 228 722 157 697 q 393 747 299 747 q 563 721 494 747 q 669 643 632 694 q 706 514 706 592 l 706 182 q 720 145 706 157 q 753 133 735 133 l 799 133 l 799 7 q 756 -8 785 0 q 685 -15 726 -15 q 613 -3 644 -15 q 561 30 582 8 q 532 82 540 51 l 522 82 q 465 31 499 53 q 385 -4 431 8 q 282 -17 340 -17 m 347 129 q 417 141 386 129 q 468 173 447 153 q 501 222 489 193 q 513 285 513 251 l 513 325 q 374 315 435 325 q 277 279 313 304 q 242 210 242 254 q 254 167 242 185 q 290 139 267 149 q 347 129 314 129 m 393 803 q 292 842 332 803 q 251 943 251 882 q 292 1045 251 1006 q 393 1085 332 1085 q 495 1045 456 1085 q 535 943 535 1006 q 495 842 535 882 q 393 803 456 803 m 393 881 q 438 899 421 881 q 456 943 456 917 q 438 989 456 971 q 393 1007 421 1007 q 349 989 367 1007 q 332 943 332 971 q 349 898 332 915 q 393 881 367 881 z "},"ǻ":{"ha":806,"x_min":46,"x_max":799,"o":"m 282 -17 q 205 -8 246 -17 q 128 22 164 0 q 69 84 92 43 q 46 189 46 125 q 79 315 46 265 q 174 394 113 365 q 322 433 236 422 q 513 444 408 444 l 513 499 q 502 554 513 531 q 466 592 492 578 q 394 606 440 606 q 320 594 349 606 q 280 566 292 583 q 268 528 268 549 l 268 511 l 81 511 q 79 524 79 518 q 79 540 79 531 q 118 651 79 604 q 228 722 157 697 q 393 747 299 747 q 563 721 494 747 q 669 643 632 694 q 706 514 706 592 l 706 182 q 720 145 706 157 q 753 133 735 133 l 799 133 l 799 7 q 756 -8 785 0 q 685 -15 726 -15 q 613 -3 644 -15 q 561 30 582 8 q 532 82 540 51 l 522 82 q 465 31 499 53 q 385 -4 431 8 q 282 -17 340 -17 m 347 129 q 417 141 386 129 q 468 173 447 153 q 501 222 489 193 q 513 285 513 251 l 513 325 q 374 315 435 325 q 277 279 313 304 q 242 210 242 254 q 254 167 242 185 q 290 139 267 149 q 347 129 314 129 m 393 803 q 292 842 332 803 q 251 943 251 882 q 292 1045 251 1006 q 393 1085 332 1085 q 495 1045 456 1085 q 535 943 535 1006 q 495 842 535 882 q 393 803 456 803 m 393 881 q 438 899 421 881 q 456 943 456 917 q 438 989 456 971 q 393 1007 421 1007 q 349 989 367 1007 q 332 943 332 971 q 349 898 332 915 q 393 881 367 881 m 293 1139 l 408 1324 l 608 1324 l 610 1318 l 443 1139 l 293 1139 z "},"ã":{"ha":806,"x_min":46,"x_max":799,"o":"m 282 -17 q 205 -8 246 -17 q 128 22 164 0 q 69 84 92 43 q 46 189 46 125 q 79 315 46 265 q 174 394 113 365 q 322 433 236 422 q 513 444 408 444 l 513 499 q 502 554 513 531 q 466 592 492 578 q 394 606 440 606 q 320 594 349 606 q 280 566 292 583 q 268 528 268 549 l 268 511 l 81 511 q 79 524 79 518 q 79 540 79 531 q 118 651 79 604 q 228 722 157 697 q 393 747 299 747 q 563 721 494 747 q 669 643 632 694 q 706 514 706 592 l 706 182 q 720 145 706 157 q 753 133 735 133 l 799 133 l 799 7 q 756 -8 785 0 q 685 -15 726 -15 q 613 -3 644 -15 q 561 30 582 8 q 532 82 540 51 l 522 82 q 465 31 499 53 q 385 -4 431 8 q 282 -17 340 -17 m 347 129 q 417 141 386 129 q 468 173 447 153 q 501 222 489 193 q 513 285 513 251 l 513 325 q 374 315 435 325 q 277 279 313 304 q 242 210 242 254 q 254 167 242 185 q 290 139 267 149 q 347 129 314 129 m 144 833 q 160 918 144 879 q 208 981 176 957 q 289 1004 240 1004 q 361 992 328 1004 q 426 967 394 979 q 492 954 458 954 q 526 966 513 954 q 543 1004 539 978 l 640 1004 q 625 921 640 960 q 578 858 610 882 q 496 833 546 833 q 426 847 460 833 q 360 872 392 860 q 296 885 328 885 q 262 873 275 885 q 244 833 249 861 l 144 833 z "},"æ":{"ha":1278,"x_min":46,"x_max":1224,"o":"m 328 -17 q 235 -8 285 -17 q 143 22 186 0 q 73 85 100 43 q 46 192 46 126 q 81 317 46 268 q 179 394 115 365 q 333 433 243 422 q 531 444 422 444 l 531 499 q 520 554 531 531 q 482 592 510 578 q 403 606 454 606 q 324 594 354 606 q 281 566 293 583 q 268 528 268 549 l 268 511 l 81 511 q 79 524 79 518 q 79 540 79 531 q 118 651 79 604 q 230 722 157 697 q 401 747 303 747 q 549 728 486 747 q 651 671 611 708 q 756 728 696 710 q 890 747 815 747 q 1074 708 1000 747 q 1185 585 1147 668 q 1224 372 1224 503 l 1224 322 l 725 322 q 744 214 728 258 q 797 148 761 169 q 892 126 833 126 q 950 135 924 126 q 996 160 976 143 q 1025 201 1015 176 q 1035 258 1035 226 l 1224 258 q 1199 138 1224 189 q 1131 52 1175 86 q 1027 1 1088 18 q 893 -17 967 -17 q 728 9 799 -17 q 614 86 658 35 q 541 33 583 56 q 446 -3 499 10 q 328 -17 393 -17 m 356 126 q 428 138 396 126 q 484 169 461 149 q 519 219 507 190 q 531 285 531 249 l 531 322 q 383 313 449 322 q 280 278 318 303 q 242 210 242 254 q 255 163 242 182 q 294 135 268 144 q 356 126 319 126 m 728 444 l 1025 444 q 1015 517 1025 486 q 988 567 1006 547 q 944 595 969 586 q 888 604 919 604 q 803 587 838 604 q 751 534 769 569 q 728 444 733 499 z "},"ǽ":{"ha":1278,"x_min":46,"x_max":1224,"o":"m 328 -17 q 235 -8 285 -17 q 143 22 186 0 q 73 85 100 43 q 46 192 46 126 q 81 317 46 268 q 179 394 115 365 q 333 433 243 422 q 531 444 422 444 l 531 499 q 520 554 531 531 q 482 592 510 578 q 403 606 454 606 q 324 594 354 606 q 281 566 293 583 q 268 528 268 549 l 268 511 l 81 511 q 79 524 79 518 q 79 540 79 531 q 118 651 79 604 q 230 722 157 697 q 401 747 303 747 q 549 728 486 747 q 651 671 611 708 q 756 728 696 710 q 890 747 815 747 q 1074 708 1000 747 q 1185 585 1147 668 q 1224 372 1224 503 l 1224 322 l 725 322 q 744 214 728 258 q 797 148 761 169 q 892 126 833 126 q 950 135 924 126 q 996 160 976 143 q 1025 201 1015 176 q 1035 258 1035 226 l 1224 258 q 1199 138 1224 189 q 1131 52 1175 86 q 1027 1 1088 18 q 893 -17 967 -17 q 728 9 799 -17 q 614 86 658 35 q 541 33 583 56 q 446 -3 499 10 q 328 -17 393 -17 m 356 126 q 428 138 396 126 q 484 169 461 149 q 519 219 507 190 q 531 285 531 249 l 531 322 q 383 313 449 322 q 280 278 318 303 q 242 210 242 254 q 255 163 242 182 q 294 135 268 144 q 356 126 319 126 m 728 444 l 1025 444 q 1015 517 1025 486 q 988 567 1006 547 q 944 595 969 586 q 888 604 919 604 q 803 587 838 604 q 751 534 769 569 q 728 444 733 499 m 549 821 l 665 1004 l 864 1004 l 867 1000 l 700 821 l 549 821 z "},"b":{"ha":844,"x_min":89,"x_max":792,"o":"m 497 -17 q 367 12 426 -17 q 272 99 308 40 l 263 99 l 247 0 l 89 0 l 89 1004 l 282 1004 l 282 650 l 290 650 q 344 704 313 682 q 417 737 376 726 q 504 747 457 747 q 655 707 590 747 q 756 583 719 667 q 792 367 792 499 q 756 150 792 235 q 655 24 721 65 q 497 -17 589 -17 m 438 142 q 530 165 496 142 q 579 233 564 188 q 594 349 594 279 l 594 381 q 579 497 594 450 q 530 566 564 543 q 438 589 496 589 q 367 574 396 589 q 319 533 338 560 q 290 465 300 506 q 281 376 281 425 l 281 351 q 297 239 281 286 q 349 167 314 192 q 438 142 383 142 z "},"c":{"ha":796,"x_min":53,"x_max":740,"o":"m 410 -17 q 214 24 293 -17 q 94 151 135 65 q 53 365 53 236 q 94 581 53 497 q 215 707 135 665 q 410 749 294 749 q 545 731 485 749 q 650 675 606 713 q 717 583 694 638 q 740 453 740 528 l 547 453 q 532 535 547 503 q 485 583 517 567 q 407 600 454 600 q 317 575 351 600 q 265 501 282 550 q 249 381 249 453 l 249 349 q 266 229 249 278 q 319 156 283 181 q 414 132 356 132 q 492 149 461 132 q 540 199 524 165 q 557 279 557 232 l 740 279 q 717 153 740 208 q 651 60 694 97 q 546 3 607 22 q 410 -17 485 -17 z "},"ć":{"ha":796,"x_min":53,"x_max":740,"o":"m 410 -17 q 214 24 293 -17 q 94 151 135 65 q 53 365 53 236 q 94 581 53 497 q 215 707 135 665 q 410 749 294 749 q 545 731 485 749 q 650 675 606 713 q 717 583 694 638 q 740 453 740 528 l 547 453 q 532 535 547 503 q 485 583 517 567 q 407 600 454 600 q 317 575 351 600 q 265 501 282 550 q 249 381 249 453 l 249 349 q 266 229 249 278 q 319 156 283 181 q 414 132 356 132 q 492 149 461 132 q 540 199 524 165 q 557 279 557 232 l 740 279 q 717 153 740 208 q 651 60 694 97 q 546 3 607 22 q 410 -17 485 -17 m 307 821 l 424 1004 l 622 1004 l 624 1000 l 458 821 l 307 821 z "},"č":{"ha":796,"x_min":53,"x_max":740,"o":"m 410 -17 q 214 24 293 -17 q 94 151 135 65 q 53 365 53 236 q 94 581 53 497 q 215 707 135 665 q 410 749 294 749 q 545 731 485 749 q 650 675 606 713 q 717 583 694 638 q 740 453 740 528 l 547 453 q 532 535 547 503 q 485 583 517 567 q 407 600 454 600 q 317 575 351 600 q 265 501 282 550 q 249 381 249 453 l 249 349 q 266 229 249 278 q 319 156 283 181 q 414 132 356 132 q 492 149 461 132 q 540 199 524 165 q 557 279 557 232 l 740 279 q 717 153 740 208 q 651 60 694 97 q 546 3 607 22 q 410 -17 485 -17 m 165 1004 l 325 1004 l 447 864 l 369 863 l 490 1004 l 650 1004 l 496 821 l 321 821 l 165 1004 z "},"ç":{"ha":796,"x_min":53,"x_max":740,"o":"m 410 -17 q 214 24 293 -17 q 94 151 135 65 q 53 365 53 236 q 94 581 53 497 q 215 707 135 665 q 410 749 294 749 q 545 731 485 749 q 650 675 606 713 q 717 583 694 638 q 740 453 740 528 l 547 453 q 532 535 547 503 q 485 583 517 567 q 407 600 454 600 q 317 575 351 600 q 265 501 282 550 q 249 381 249 453 l 249 349 q 266 229 249 278 q 319 156 283 181 q 414 132 356 132 q 492 149 461 132 q 540 199 524 165 q 557 279 557 232 l 740 279 q 717 153 740 208 q 651 60 694 97 q 546 3 607 22 q 410 -17 485 -17 m 399 -261 q 320 -258 361 -261 q 249 -249 279 -254 l 249 -178 l 381 -178 q 424 -172 408 -178 q 439 -144 439 -165 q 428 -119 439 -128 q 383 -111 417 -111 l 324 -111 l 344 24 l 458 24 l 449 -46 q 512 -58 482 -47 q 560 -90 542 -69 q 578 -146 578 -111 q 560 -203 578 -181 q 515 -239 542 -226 q 456 -256 488 -251 q 399 -261 425 -261 z "},"ĉ":{"ha":796,"x_min":53,"x_max":740,"o":"m 410 -17 q 214 24 293 -17 q 94 151 135 65 q 53 365 53 236 q 94 581 53 497 q 215 707 135 665 q 410 749 294 749 q 545 731 485 749 q 650 675 606 713 q 717 583 694 638 q 740 453 740 528 l 547 453 q 532 535 547 503 q 485 583 517 567 q 407 600 454 600 q 317 575 351 600 q 265 501 282 550 q 249 381 249 453 l 249 349 q 266 229 249 278 q 319 156 283 181 q 414 132 356 132 q 492 149 461 132 q 540 199 524 165 q 557 279 557 232 l 740 279 q 717 153 740 208 q 651 60 694 97 q 546 3 607 22 q 410 -17 485 -17 m 165 821 l 321 1004 l 496 1004 l 650 821 l 490 821 l 369 961 l 447 961 l 325 821 l 165 821 z "},"ċ":{"ha":796,"x_min":53,"x_max":740,"o":"m 410 -17 q 214 24 293 -17 q 94 151 135 65 q 53 365 53 236 q 94 581 53 497 q 215 707 135 665 q 410 749 294 749 q 545 731 485 749 q 650 675 606 713 q 717 583 694 638 q 740 453 740 528 l 547 453 q 532 535 547 503 q 485 583 517 567 q 407 600 454 600 q 317 575 351 600 q 265 501 282 550 q 249 381 249 453 l 249 349 q 266 229 249 278 q 319 156 283 181 q 414 132 356 132 q 492 149 461 132 q 540 199 524 165 q 557 279 557 232 l 740 279 q 717 153 740 208 q 651 60 694 97 q 546 3 607 22 q 410 -17 485 -17 m 321 833 l 321 1000 l 497 1000 l 497 833 l 321 833 z "},"d":{"ha":844,"x_min":53,"x_max":756,"o":"m 347 -17 q 191 24 257 -17 q 89 150 125 65 q 53 367 53 235 q 90 583 53 499 q 191 707 126 667 q 340 747 256 747 q 428 737 388 747 q 501 704 469 726 q 554 650 532 682 l 563 650 l 563 1004 l 756 1004 l 756 0 l 597 0 l 582 99 l 572 99 q 478 12 536 40 q 347 -17 419 -17 m 408 142 q 497 167 463 142 q 547 239 531 192 q 564 351 564 286 l 564 376 q 555 465 564 425 q 526 533 546 506 q 478 574 507 560 q 408 589 449 589 q 315 566 350 589 q 265 497 281 543 q 250 381 250 450 l 250 349 q 265 233 250 279 q 315 165 281 188 q 408 142 350 142 z "},"ð":{"ha":869,"x_min":63,"x_max":807,"o":"m 435 -17 q 231 24 314 -17 q 105 149 147 65 q 63 363 63 233 q 100 564 63 481 q 209 691 138 647 q 382 735 281 735 q 440 729 411 735 q 494 713 469 724 l 500 718 q 459 774 481 747 q 414 829 438 801 l 189 810 l 189 908 l 326 919 q 278 962 303 942 q 231 999 254 982 l 236 1004 l 450 1004 q 478 985 464 996 q 506 963 492 974 q 535 938 521 951 l 747 956 l 747 857 l 625 847 q 722 707 682 782 q 785 547 763 632 q 807 363 807 461 q 764 149 807 233 q 638 24 721 65 q 435 -17 556 -17 m 435 133 q 536 157 497 133 q 592 228 575 181 q 610 346 610 275 l 610 378 q 592 496 610 449 q 536 567 575 543 q 435 590 497 590 q 333 567 371 590 q 276 496 294 543 q 258 378 258 449 l 258 349 q 276 228 258 276 q 333 157 294 181 q 435 133 371 133 z "},"ď":{"ha":844,"x_min":53,"x_max":985,"o":"m 347 -17 q 191 24 257 -17 q 89 150 125 65 q 53 367 53 235 q 90 583 53 499 q 191 707 126 667 q 340 747 256 747 q 428 737 388 747 q 501 704 469 726 q 554 650 532 682 l 563 650 l 563 1004 l 756 1004 l 756 0 l 597 0 l 582 99 l 572 99 q 478 12 536 40 q 347 -17 419 -17 m 408 142 q 497 167 463 142 q 547 239 531 192 q 564 351 564 286 l 564 376 q 555 465 564 425 q 526 533 546 506 q 478 574 507 560 q 408 589 449 589 q 315 566 350 589 q 265 497 281 543 q 250 381 250 450 l 250 349 q 265 233 250 279 q 315 165 281 188 q 408 142 350 142 m 811 771 l 811 1004 l 985 1004 l 938 771 l 811 771 z "},"đ":{"ha":844,"x_min":53,"x_max":844,"o":"m 347 -17 q 191 24 257 -17 q 89 150 125 65 q 53 367 53 235 q 90 583 53 499 q 191 707 126 667 q 340 747 256 747 q 428 737 388 747 q 501 704 469 726 q 554 650 532 682 l 563 650 l 563 1004 l 756 1004 l 756 0 l 597 0 l 582 99 l 572 99 q 478 12 536 40 q 347 -17 419 -17 m 408 142 q 497 167 463 142 q 547 239 531 192 q 564 351 564 286 l 564 376 q 555 465 564 425 q 526 533 546 506 q 478 574 507 560 q 408 589 449 589 q 315 566 350 589 q 265 497 281 543 q 250 381 250 450 l 250 349 q 265 233 250 279 q 315 165 281 188 q 408 142 350 142 m 351 801 l 351 922 l 844 922 l 844 801 l 351 801 z "},"ǆ":{"ha":1567,"x_min":53,"x_max":1526,"o":"m 347 -17 q 191 24 257 -17 q 89 150 125 65 q 53 367 53 235 q 90 583 53 499 q 191 707 126 667 q 340 747 256 747 q 428 737 388 747 q 501 704 469 726 q 554 650 532 682 l 563 650 l 563 1004 l 756 1004 l 756 0 l 597 0 l 582 99 l 572 99 q 478 12 536 40 q 347 -17 419 -17 m 408 142 q 497 167 463 142 q 547 239 531 192 q 564 351 564 286 l 564 376 q 555 465 564 425 q 526 533 546 506 q 478 574 507 560 q 408 589 449 589 q 315 566 350 589 q 265 497 281 543 q 250 381 250 450 l 250 349 q 265 233 250 279 q 315 165 281 188 q 408 142 350 142 m 876 0 l 876 82 l 1233 582 l 899 582 l 899 731 l 1513 731 l 1513 651 l 1154 150 l 1526 150 l 1526 0 l 876 0 m 964 1004 l 1122 1004 l 1246 865 l 1167 864 l 1289 1004 l 1449 1004 l 1293 821 l 1119 821 l 964 1004 z "},"e":{"ha":811,"x_min":53,"x_max":758,"o":"m 421 -17 q 218 24 300 -17 q 94 150 136 65 q 53 365 53 235 q 94 581 53 497 q 217 706 136 665 q 417 747 299 747 q 604 708 528 747 q 719 585 681 668 q 758 372 758 503 l 758 322 l 249 322 q 269 214 251 258 q 323 148 286 169 q 421 126 360 126 q 481 135 454 126 q 528 160 508 143 q 558 201 547 176 q 569 258 569 226 l 758 258 q 733 138 758 189 q 664 52 708 86 q 558 1 619 18 q 421 -17 496 -17 m 251 444 l 560 444 q 549 517 560 486 q 521 567 539 547 q 477 595 503 586 q 419 604 451 604 q 331 587 367 604 q 277 534 296 569 q 251 444 258 499 z "},"é":{"ha":811,"x_min":53,"x_max":758,"o":"m 421 -17 q 218 24 300 -17 q 94 150 136 65 q 53 365 53 235 q 94 581 53 497 q 217 706 136 665 q 417 747 299 747 q 604 708 528 747 q 719 585 681 668 q 758 372 758 503 l 758 322 l 249 322 q 269 214 251 258 q 323 148 286 169 q 421 126 360 126 q 481 135 454 126 q 528 160 508 143 q 558 201 547 176 q 569 258 569 226 l 758 258 q 733 138 758 189 q 664 52 708 86 q 558 1 619 18 q 421 -17 496 -17 m 251 444 l 560 444 q 549 517 560 486 q 521 567 539 547 q 477 595 503 586 q 419 604 451 604 q 331 587 367 604 q 277 534 296 569 q 251 444 258 499 m 315 821 l 431 1004 l 629 1004 l 632 1000 l 465 821 l 315 821 z "},"ĕ":{"ha":811,"x_min":53,"x_max":758,"o":"m 421 -17 q 218 24 300 -17 q 94 150 136 65 q 53 365 53 235 q 94 581 53 497 q 217 706 136 665 q 417 747 299 747 q 604 708 528 747 q 719 585 681 668 q 758 372 758 503 l 758 322 l 249 322 q 269 214 251 258 q 323 148 286 169 q 421 126 360 126 q 481 135 454 126 q 528 160 508 143 q 558 201 547 176 q 569 258 569 226 l 758 258 q 733 138 758 189 q 664 52 708 86 q 558 1 619 18 q 421 -17 496 -17 m 251 444 l 560 444 q 549 517 560 486 q 521 567 539 547 q 477 595 503 586 q 419 604 451 604 q 331 587 367 604 q 277 534 296 569 q 251 444 258 499 m 414 819 q 285 847 335 819 q 212 919 235 875 q 189 1004 189 963 l 306 1004 q 322 974 310 990 q 358 946 335 957 q 414 935 381 935 q 474 946 450 935 q 510 974 497 957 q 524 1004 522 990 l 640 1004 q 617 919 640 963 q 544 847 593 875 q 414 819 494 819 z "},"ě":{"ha":811,"x_min":53,"x_max":758,"o":"m 421 -17 q 218 24 300 -17 q 94 150 136 65 q 53 365 53 235 q 94 581 53 497 q 217 706 136 665 q 417 747 299 747 q 604 708 528 747 q 719 585 681 668 q 758 372 758 503 l 758 322 l 249 322 q 269 214 251 258 q 323 148 286 169 q 421 126 360 126 q 481 135 454 126 q 528 160 508 143 q 558 201 547 176 q 569 258 569 226 l 758 258 q 733 138 758 189 q 664 52 708 86 q 558 1 619 18 q 421 -17 496 -17 m 251 444 l 560 444 q 549 517 560 486 q 521 567 539 547 q 477 595 503 586 q 419 604 451 604 q 331 587 367 604 q 277 534 296 569 q 251 444 258 499 m 172 1004 l 332 1004 l 454 865 l 376 864 l 499 1004 l 658 1004 l 503 821 l 328 821 l 172 1004 z "},"ê":{"ha":811,"x_min":53,"x_max":758,"o":"m 421 -17 q 218 24 300 -17 q 94 150 136 65 q 53 365 53 235 q 94 581 53 497 q 217 706 136 665 q 417 747 299 747 q 604 708 528 747 q 719 585 681 668 q 758 372 758 503 l 758 322 l 249 322 q 269 214 251 258 q 323 148 286 169 q 421 126 360 126 q 481 135 454 126 q 528 160 508 143 q 558 201 547 176 q 569 258 569 226 l 758 258 q 733 138 758 189 q 664 52 708 86 q 558 1 619 18 q 421 -17 496 -17 m 251 444 l 560 444 q 549 517 560 486 q 521 567 539 547 q 477 595 503 586 q 419 604 451 604 q 331 587 367 604 q 277 534 296 569 q 251 444 258 499 m 172 821 l 328 1004 l 503 1004 l 658 821 l 499 821 l 376 963 l 454 961 l 332 821 l 172 821 z "},"ế":{"ha":811,"x_min":53,"x_max":758,"o":"m 421 -17 q 218 24 300 -17 q 94 150 136 65 q 53 365 53 235 q 94 581 53 497 q 217 706 136 665 q 417 747 299 747 q 604 708 528 747 q 719 585 681 668 q 758 372 758 503 l 758 322 l 249 322 q 269 214 251 258 q 323 148 286 169 q 421 126 360 126 q 481 135 454 126 q 528 160 508 143 q 558 201 547 176 q 569 258 569 226 l 758 258 q 733 138 758 189 q 664 52 708 86 q 558 1 619 18 q 421 -17 496 -17 m 251 444 l 560 444 q 549 517 560 486 q 521 567 539 547 q 477 595 503 586 q 419 604 451 604 q 331 587 367 604 q 277 534 296 569 q 251 444 258 499 m 172 821 l 328 1004 l 503 1004 l 658 821 l 499 821 l 376 963 l 454 961 l 332 821 l 172 821 m 315 1076 l 431 1260 l 629 1260 l 632 1256 l 465 1076 l 315 1076 z "},"ệ":{"ha":811,"x_min":53,"x_max":758,"o":"m 421 -17 q 218 24 300 -17 q 94 150 136 65 q 53 365 53 235 q 94 581 53 497 q 217 706 136 665 q 417 747 299 747 q 604 708 528 747 q 719 585 681 668 q 758 372 758 503 l 758 322 l 249 322 q 269 214 251 258 q 323 148 286 169 q 421 126 360 126 q 481 135 454 126 q 528 160 508 143 q 558 201 547 176 q 569 258 569 226 l 758 258 q 733 138 758 189 q 664 52 708 86 q 558 1 619 18 q 421 -17 496 -17 m 251 444 l 560 444 q 549 517 560 486 q 521 567 539 547 q 477 595 503 586 q 419 604 451 604 q 331 587 367 604 q 277 534 296 569 q 251 444 258 499 m 329 -272 l 329 -106 l 504 -106 l 504 -272 l 329 -272 m 172 821 l 328 1004 l 503 1004 l 658 821 l 499 821 l 376 963 l 454 961 l 332 821 l 172 821 z "},"ề":{"ha":811,"x_min":53,"x_max":758,"o":"m 421 -17 q 218 24 300 -17 q 94 150 136 65 q 53 365 53 235 q 94 581 53 497 q 217 706 136 665 q 417 747 299 747 q 604 708 528 747 q 719 585 681 668 q 758 372 758 503 l 758 322 l 249 322 q 269 214 251 258 q 323 148 286 169 q 421 126 360 126 q 481 135 454 126 q 528 160 508 143 q 558 201 547 176 q 569 258 569 226 l 758 258 q 733 138 758 189 q 664 52 708 86 q 558 1 619 18 q 421 -17 496 -17 m 251 444 l 560 444 q 549 517 560 486 q 521 567 539 547 q 477 595 503 586 q 419 604 451 604 q 331 587 367 604 q 277 534 296 569 q 251 444 258 499 m 172 821 l 328 1004 l 503 1004 l 658 821 l 499 821 l 376 963 l 454 961 l 332 821 l 172 821 m 519 1076 l 368 1076 l 203 1256 l 204 1260 l 403 1260 l 519 1076 z "},"ể":{"ha":811,"x_min":53,"x_max":758,"o":"m 421 -17 q 218 24 300 -17 q 94 150 136 65 q 53 365 53 235 q 94 581 53 497 q 217 706 136 665 q 417 747 299 747 q 604 708 528 747 q 719 585 681 668 q 758 372 758 503 l 758 322 l 249 322 q 269 214 251 258 q 323 148 286 169 q 421 126 360 126 q 481 135 454 126 q 528 160 508 143 q 558 201 547 176 q 569 258 569 226 l 758 258 q 733 138 758 189 q 664 52 708 86 q 558 1 619 18 q 421 -17 496 -17 m 251 444 l 560 444 q 549 517 560 486 q 521 567 539 547 q 477 595 503 586 q 419 604 451 604 q 331 587 367 604 q 277 534 296 569 q 251 444 258 499 m 172 821 l 328 1004 l 503 1004 l 658 821 l 499 821 l 376 963 l 454 961 l 332 821 l 172 821 m 371 1076 l 371 1154 l 389 1154 q 422 1160 413 1154 q 432 1179 432 1165 q 419 1199 432 1194 q 385 1204 407 1204 l 303 1204 l 303 1267 q 340 1273 319 1271 q 381 1276 361 1275 q 418 1278 401 1278 q 469 1274 442 1278 q 521 1260 497 1269 q 560 1235 544 1251 q 575 1192 575 1218 q 559 1148 575 1165 q 518 1122 543 1131 q 464 1111 493 1114 l 464 1076 l 371 1076 z "},"ễ":{"ha":811,"x_min":53,"x_max":758,"o":"m 421 -17 q 218 24 300 -17 q 94 150 136 65 q 53 365 53 235 q 94 581 53 497 q 217 706 136 665 q 417 747 299 747 q 604 708 528 747 q 719 585 681 668 q 758 372 758 503 l 758 322 l 249 322 q 269 214 251 258 q 323 148 286 169 q 421 126 360 126 q 481 135 454 126 q 528 160 508 143 q 558 201 547 176 q 569 258 569 226 l 758 258 q 733 138 758 189 q 664 52 708 86 q 558 1 619 18 q 421 -17 496 -17 m 251 444 l 560 444 q 549 517 560 486 q 521 567 539 547 q 477 595 503 586 q 419 604 451 604 q 331 587 367 604 q 277 534 296 569 q 251 444 258 499 m 172 821 l 328 1004 l 503 1004 l 658 821 l 499 821 l 376 963 l 454 961 l 332 821 l 172 821 m 167 1089 q 183 1174 167 1135 q 231 1236 199 1213 q 311 1260 263 1260 q 383 1247 349 1260 q 449 1222 417 1235 q 514 1210 481 1210 q 548 1222 535 1210 q 564 1260 561 1233 l 663 1260 q 647 1176 663 1215 q 600 1113 632 1138 q 518 1089 568 1089 q 448 1102 482 1089 q 382 1128 414 1115 q 317 1140 350 1140 q 283 1128 297 1140 q 267 1089 269 1117 l 167 1089 z "},"ȅ":{"ha":811,"x_min":53,"x_max":758,"o":"m 421 -17 q 218 24 300 -17 q 94 150 136 65 q 53 365 53 235 q 94 581 53 497 q 217 706 136 665 q 417 747 299 747 q 604 708 528 747 q 719 585 681 668 q 758 372 758 503 l 758 322 l 249 322 q 269 214 251 258 q 323 148 286 169 q 421 126 360 126 q 481 135 454 126 q 528 160 508 143 q 558 201 547 176 q 569 258 569 226 l 758 258 q 733 138 758 189 q 664 52 708 86 q 558 1 619 18 q 421 -17 496 -17 m 251 444 l 560 444 q 549 517 560 486 q 521 567 539 547 q 477 595 503 586 q 419 604 451 604 q 331 587 367 604 q 277 534 296 569 q 251 444 258 499 m 483 821 l 332 1000 l 333 1006 l 519 1006 l 624 821 l 483 821 m 242 821 l 90 1000 l 92 1006 l 278 1006 l 381 821 l 242 821 z "},"ë":{"ha":811,"x_min":53,"x_max":758,"o":"m 421 -17 q 218 24 300 -17 q 94 150 136 65 q 53 365 53 235 q 94 581 53 497 q 217 706 136 665 q 417 747 299 747 q 604 708 528 747 q 719 585 681 668 q 758 372 758 503 l 758 322 l 249 322 q 269 214 251 258 q 323 148 286 169 q 421 126 360 126 q 481 135 454 126 q 528 160 508 143 q 558 201 547 176 q 569 258 569 226 l 758 258 q 733 138 758 189 q 664 52 708 86 q 558 1 619 18 q 421 -17 496 -17 m 251 444 l 560 444 q 549 517 560 486 q 521 567 539 547 q 477 595 503 586 q 419 604 451 604 q 331 587 367 604 q 277 534 296 569 q 251 444 258 499 m 189 842 l 189 1004 l 353 1004 l 353 842 l 189 842 m 476 842 l 476 1004 l 642 1004 l 642 842 l 476 842 z "},"ė":{"ha":811,"x_min":53,"x_max":758,"o":"m 421 -17 q 218 24 300 -17 q 94 150 136 65 q 53 365 53 235 q 94 581 53 497 q 217 706 136 665 q 417 747 299 747 q 604 708 528 747 q 719 585 681 668 q 758 372 758 503 l 758 322 l 249 322 q 269 214 251 258 q 323 148 286 169 q 421 126 360 126 q 481 135 454 126 q 528 160 508 143 q 558 201 547 176 q 569 258 569 226 l 758 258 q 733 138 758 189 q 664 52 708 86 q 558 1 619 18 q 421 -17 496 -17 m 251 444 l 560 444 q 549 517 560 486 q 521 567 539 547 q 477 595 503 586 q 419 604 451 604 q 331 587 367 604 q 277 534 296 569 q 251 444 258 499 m 328 833 l 328 1000 l 504 1000 l 504 833 l 328 833 z "},"ẹ":{"ha":811,"x_min":53,"x_max":758,"o":"m 421 -17 q 218 24 300 -17 q 94 150 136 65 q 53 365 53 235 q 94 581 53 497 q 217 706 136 665 q 417 747 299 747 q 604 708 528 747 q 719 585 681 668 q 758 372 758 503 l 758 322 l 249 322 q 269 214 251 258 q 323 148 286 169 q 421 126 360 126 q 481 135 454 126 q 528 160 508 143 q 558 201 547 176 q 569 258 569 226 l 758 258 q 733 138 758 189 q 664 52 708 86 q 558 1 619 18 q 421 -17 496 -17 m 251 444 l 560 444 q 549 517 560 486 q 521 567 539 547 q 477 595 503 586 q 419 604 451 604 q 331 587 367 604 q 277 534 296 569 q 251 444 258 499 m 329 -272 l 329 -106 l 504 -106 l 504 -272 l 329 -272 z "},"è":{"ha":811,"x_min":53,"x_max":758,"o":"m 421 -17 q 218 24 300 -17 q 94 150 136 65 q 53 365 53 235 q 94 581 53 497 q 217 706 136 665 q 417 747 299 747 q 604 708 528 747 q 719 585 681 668 q 758 372 758 503 l 758 322 l 249 322 q 269 214 251 258 q 323 148 286 169 q 421 126 360 126 q 481 135 454 126 q 528 160 508 143 q 558 201 547 176 q 569 258 569 226 l 758 258 q 733 138 758 189 q 664 52 708 86 q 558 1 619 18 q 421 -17 496 -17 m 251 444 l 560 444 q 549 517 560 486 q 521 567 539 547 q 477 595 503 586 q 419 604 451 604 q 331 587 367 604 q 277 534 296 569 q 251 444 258 499 m 519 821 l 368 821 l 203 1000 l 204 1004 l 403 1004 l 519 821 z "},"ẻ":{"ha":811,"x_min":53,"x_max":758,"o":"m 421 -17 q 218 24 300 -17 q 94 150 136 65 q 53 365 53 235 q 94 581 53 497 q 217 706 136 665 q 417 747 299 747 q 604 708 528 747 q 719 585 681 668 q 758 372 758 503 l 758 322 l 249 322 q 269 214 251 258 q 323 148 286 169 q 421 126 360 126 q 481 135 454 126 q 528 160 508 143 q 558 201 547 176 q 569 258 569 226 l 758 258 q 733 138 758 189 q 664 52 708 86 q 558 1 619 18 q 421 -17 496 -17 m 251 444 l 560 444 q 549 517 560 486 q 521 567 539 547 q 477 595 503 586 q 419 604 451 604 q 331 587 367 604 q 277 534 296 569 q 251 444 258 499 m 371 821 l 371 899 l 389 899 q 422 905 413 899 q 432 925 432 911 q 419 944 432 940 q 385 949 407 949 l 303 949 l 303 1011 q 340 1017 319 1015 q 381 1021 361 1019 q 418 1022 401 1022 q 469 1019 442 1022 q 521 1006 497 1015 q 560 979 544 996 q 575 936 575 963 q 559 893 575 910 q 518 868 543 876 q 464 857 493 860 l 464 821 l 371 821 z "},"ȇ":{"ha":811,"x_min":53,"x_max":758,"o":"m 421 -17 q 218 24 300 -17 q 94 150 136 65 q 53 365 53 235 q 94 581 53 497 q 217 706 136 665 q 417 747 299 747 q 604 708 528 747 q 719 585 681 668 q 758 372 758 503 l 758 322 l 249 322 q 269 214 251 258 q 323 148 286 169 q 421 126 360 126 q 481 135 454 126 q 528 160 508 143 q 558 201 547 176 q 569 258 569 226 l 758 258 q 733 138 758 189 q 664 52 708 86 q 558 1 619 18 q 421 -17 496 -17 m 251 444 l 560 444 q 549 517 560 486 q 521 567 539 547 q 477 595 503 586 q 419 604 451 604 q 331 587 367 604 q 277 534 296 569 q 251 444 258 499 m 414 1004 q 544 976 494 1004 q 617 906 593 949 q 640 819 640 863 l 524 819 q 510 851 522 835 q 474 878 497 867 q 414 889 450 889 q 358 878 381 889 q 322 851 335 867 q 306 819 310 835 l 189 819 q 212 906 189 863 q 285 976 235 949 q 414 1004 335 1004 z "},"ē":{"ha":811,"x_min":53,"x_max":758,"o":"m 421 -17 q 218 24 300 -17 q 94 150 136 65 q 53 365 53 235 q 94 581 53 497 q 217 706 136 665 q 417 747 299 747 q 604 708 528 747 q 719 585 681 668 q 758 372 758 503 l 758 322 l 249 322 q 269 214 251 258 q 323 148 286 169 q 421 126 360 126 q 481 135 454 126 q 528 160 508 143 q 558 201 547 176 q 569 258 569 226 l 758 258 q 733 138 758 189 q 664 52 708 86 q 558 1 619 18 q 421 -17 496 -17 m 251 444 l 560 444 q 549 517 560 486 q 521 567 539 547 q 477 595 503 586 q 419 604 451 604 q 331 587 367 604 q 277 534 296 569 q 251 444 258 499 m 201 851 l 201 972 l 628 972 l 628 851 l 201 851 z "},"ę":{"ha":811,"x_min":53,"x_max":758,"o":"m 421 -17 q 218 24 300 -17 q 94 150 136 65 q 53 365 53 235 q 94 581 53 497 q 217 706 136 665 q 417 747 299 747 q 604 708 528 747 q 719 585 681 668 q 758 372 758 503 l 758 322 l 249 322 q 269 214 251 258 q 323 148 286 169 q 421 126 360 126 q 481 135 454 126 q 528 160 508 143 q 558 201 547 176 q 569 258 569 226 l 758 258 q 733 138 758 189 q 664 52 708 86 q 558 1 619 18 q 421 -17 496 -17 m 251 444 l 560 444 q 549 517 560 486 q 521 567 539 547 q 477 595 503 586 q 419 604 451 604 q 331 587 367 604 q 277 534 296 569 q 251 444 258 499 m 551 -261 q 479 -249 514 -261 q 422 -208 444 -237 q 399 -131 399 -179 q 422 -44 399 -79 q 471 17 444 -10 l 588 17 l 588 11 q 556 -30 572 -3 q 540 -86 540 -57 q 557 -137 540 -115 q 610 -160 574 -160 l 671 -160 l 671 -242 q 610 -256 644 -251 q 551 -261 576 -261 z "},"ẽ":{"ha":811,"x_min":53,"x_max":758,"o":"m 421 -17 q 218 24 300 -17 q 94 150 136 65 q 53 365 53 235 q 94 581 53 497 q 217 706 136 665 q 417 747 299 747 q 604 708 528 747 q 719 585 681 668 q 758 372 758 503 l 758 322 l 249 322 q 269 214 251 258 q 323 148 286 169 q 421 126 360 126 q 481 135 454 126 q 528 160 508 143 q 558 201 547 176 q 569 258 569 226 l 758 258 q 733 138 758 189 q 664 52 708 86 q 558 1 619 18 q 421 -17 496 -17 m 251 444 l 560 444 q 549 517 560 486 q 521 567 539 547 q 477 595 503 586 q 419 604 451 604 q 331 587 367 604 q 277 534 296 569 q 251 444 258 499 m 167 835 q 183 919 167 881 q 231 981 199 957 q 311 1004 263 1004 q 383 992 349 1004 q 449 967 417 981 q 514 954 481 954 q 548 966 535 954 q 564 1004 561 978 l 663 1004 q 647 922 663 960 q 600 859 632 883 q 518 835 568 835 q 448 847 482 835 q 382 873 414 860 q 317 886 350 886 q 283 874 297 886 q 267 835 269 861 l 167 835 z "},"ə":{"ha":832,"x_min":61,"x_max":765,"o":"m 401 -17 q 215 23 290 -17 q 100 146 139 63 q 61 360 61 229 l 61 408 l 571 408 q 551 517 568 474 q 496 583 533 561 q 399 606 458 606 q 338 597 365 606 q 291 572 311 589 q 260 531 271 556 q 250 474 250 507 l 61 474 q 85 593 61 542 q 155 679 110 644 q 262 731 200 714 q 399 747 324 747 q 601 706 519 747 q 724 581 682 665 q 765 365 765 497 q 724 151 765 236 q 601 24 682 65 q 401 -17 521 -17 m 400 128 q 488 145 453 128 q 543 198 524 163 q 568 286 563 233 l 260 286 q 269 215 260 244 q 298 165 279 185 q 342 136 317 144 q 400 128 368 128 z "},"f":{"ha":451,"x_min":18,"x_max":450,"o":"m 122 0 l 122 582 l 18 582 l 18 731 l 122 731 l 122 811 q 142 917 122 871 q 207 990 163 964 q 325 1017 251 1017 q 369 1014 346 1017 q 413 1006 392 1011 q 450 996 435 1001 l 450 868 l 381 868 q 331 851 347 868 q 315 803 315 835 l 315 731 l 450 731 l 450 582 l 315 582 l 315 0 l 122 0 z "},"g":{"ha":843,"x_min":21,"x_max":826,"o":"m 208 -261 q 117 -241 160 -261 q 47 -182 74 -221 q 21 -89 21 -143 q 56 9 21 -28 q 136 64 92 46 q 84 111 104 82 q 64 179 64 140 q 103 267 64 233 q 194 311 143 301 q 115 392 143 343 q 86 503 86 442 q 126 636 86 582 q 240 719 165 690 q 415 747 314 747 q 491 743 456 747 q 556 729 526 739 q 626 797 607 760 q 646 856 644 833 l 825 856 q 806 767 825 804 q 753 705 788 729 q 669 669 718 681 q 725 596 706 639 q 744 503 744 553 q 707 370 744 425 q 601 286 669 315 q 436 257 532 257 l 325 257 q 275 245 292 257 q 258 211 258 233 q 273 180 258 193 q 321 167 288 167 l 625 167 q 772 110 717 167 q 826 -33 826 54 q 792 -151 826 -100 q 696 -232 757 -203 q 556 -261 635 -261 l 208 -261 m 289 -132 l 546 -132 q 590 -123 571 -132 q 621 -98 610 -114 q 632 -61 632 -82 q 610 -7 632 -25 q 554 11 588 11 l 289 11 q 234 -8 256 11 q 213 -60 213 -28 q 234 -112 213 -92 q 289 -132 256 -132 m 415 382 q 519 413 483 382 q 554 503 554 444 q 519 592 554 561 q 415 624 483 624 q 313 592 349 624 q 278 503 278 561 q 293 438 278 465 q 339 396 308 410 q 415 382 369 382 z "},"ğ":{"ha":843,"x_min":21,"x_max":826,"o":"m 208 -261 q 117 -241 160 -261 q 47 -182 74 -221 q 21 -89 21 -143 q 56 9 21 -28 q 136 64 92 46 q 84 111 104 82 q 64 179 64 140 q 103 267 64 233 q 194 311 143 301 q 115 392 143 343 q 86 503 86 442 q 126 636 86 582 q 240 719 165 690 q 415 747 314 747 q 491 743 456 747 q 556 729 526 739 q 626 797 607 760 q 646 856 644 833 l 825 856 q 806 767 825 804 q 753 705 788 729 q 669 669 718 681 q 725 596 706 639 q 744 503 744 553 q 707 370 744 425 q 601 286 669 315 q 436 257 532 257 l 325 257 q 275 245 292 257 q 258 211 258 233 q 273 180 258 193 q 321 167 288 167 l 625 167 q 772 110 717 167 q 826 -33 826 54 q 792 -151 826 -100 q 696 -232 757 -203 q 556 -261 635 -261 l 208 -261 m 289 -132 l 546 -132 q 590 -123 571 -132 q 621 -98 610 -114 q 632 -61 632 -82 q 610 -7 632 -25 q 554 11 588 11 l 289 11 q 234 -8 256 11 q 213 -60 213 -28 q 234 -112 213 -92 q 289 -132 256 -132 m 415 382 q 519 413 483 382 q 554 503 554 444 q 519 592 554 561 q 415 624 483 624 q 313 592 349 624 q 278 503 278 561 q 293 438 278 465 q 339 396 308 410 q 415 382 369 382 m 407 819 q 278 847 328 819 q 205 919 228 875 q 182 1004 182 963 l 299 1004 q 315 974 303 990 q 351 946 328 957 q 407 935 374 935 q 467 946 443 935 q 503 974 490 957 q 517 1004 515 990 l 633 1004 q 610 919 633 963 q 537 847 586 875 q 407 819 488 819 z "},"ǧ":{"ha":843,"x_min":21,"x_max":826,"o":"m 208 -261 q 117 -241 160 -261 q 47 -182 74 -221 q 21 -89 21 -143 q 56 9 21 -28 q 136 64 92 46 q 84 111 104 82 q 64 179 64 140 q 103 267 64 233 q 194 311 143 301 q 115 392 143 343 q 86 503 86 442 q 126 636 86 582 q 240 719 165 690 q 415 747 314 747 q 491 743 456 747 q 556 729 526 739 q 626 797 607 760 q 646 856 644 833 l 825 856 q 806 767 825 804 q 753 705 788 729 q 669 669 718 681 q 725 596 706 639 q 744 503 744 553 q 707 370 744 425 q 601 286 669 315 q 436 257 532 257 l 325 257 q 275 245 292 257 q 258 211 258 233 q 273 180 258 193 q 321 167 288 167 l 625 167 q 772 110 717 167 q 826 -33 826 54 q 792 -151 826 -100 q 696 -232 757 -203 q 556 -261 635 -261 l 208 -261 m 289 -132 l 546 -132 q 590 -123 571 -132 q 621 -98 610 -114 q 632 -61 632 -82 q 610 -7 632 -25 q 554 11 588 11 l 289 11 q 234 -8 256 11 q 213 -60 213 -28 q 234 -112 213 -92 q 289 -132 256 -132 m 415 382 q 519 413 483 382 q 554 503 554 444 q 519 592 554 561 q 415 624 483 624 q 313 592 349 624 q 278 503 278 561 q 293 438 278 465 q 339 396 308 410 q 415 382 369 382 m 167 1004 l 325 1004 l 447 865 l 369 864 l 492 1004 l 651 1004 l 496 821 l 322 821 l 167 1004 z "},"ĝ":{"ha":843,"x_min":21,"x_max":826,"o":"m 208 -261 q 117 -241 160 -261 q 47 -182 74 -221 q 21 -89 21 -143 q 56 9 21 -28 q 136 64 92 46 q 84 111 104 82 q 64 179 64 140 q 103 267 64 233 q 194 311 143 301 q 115 392 143 343 q 86 503 86 442 q 126 636 86 582 q 240 719 165 690 q 415 747 314 747 q 491 743 456 747 q 556 729 526 739 q 626 797 607 760 q 646 856 644 833 l 825 856 q 806 767 825 804 q 753 705 788 729 q 669 669 718 681 q 725 596 706 639 q 744 503 744 553 q 707 370 744 425 q 601 286 669 315 q 436 257 532 257 l 325 257 q 275 245 292 257 q 258 211 258 233 q 273 180 258 193 q 321 167 288 167 l 625 167 q 772 110 717 167 q 826 -33 826 54 q 792 -151 826 -100 q 696 -232 757 -203 q 556 -261 635 -261 l 208 -261 m 289 -132 l 546 -132 q 590 -123 571 -132 q 621 -98 610 -114 q 632 -61 632 -82 q 610 -7 632 -25 q 554 11 588 11 l 289 11 q 234 -8 256 11 q 213 -60 213 -28 q 234 -112 213 -92 q 289 -132 256 -132 m 415 382 q 519 413 483 382 q 554 503 554 444 q 519 592 554 561 q 415 624 483 624 q 313 592 349 624 q 278 503 278 561 q 293 438 278 465 q 339 396 308 410 q 415 382 369 382 m 167 821 l 322 1004 l 496 1004 l 651 821 l 492 821 l 369 963 l 447 961 l 325 821 l 167 821 z "},"ģ":{"ha":843,"x_min":21,"x_max":826,"o":"m 208 -261 q 117 -241 160 -261 q 47 -182 74 -221 q 21 -89 21 -143 q 56 9 21 -28 q 136 64 92 46 q 84 111 104 82 q 64 179 64 140 q 103 267 64 233 q 194 311 143 301 q 115 392 143 343 q 86 503 86 442 q 126 636 86 582 q 240 719 165 690 q 415 747 314 747 q 491 743 456 747 q 556 729 526 739 q 626 797 607 760 q 646 856 644 833 l 825 856 q 806 767 825 804 q 753 705 788 729 q 669 669 718 681 q 725 596 706 639 q 744 503 744 553 q 707 370 744 425 q 601 286 669 315 q 436 257 532 257 l 325 257 q 275 245 292 257 q 258 211 258 233 q 273 180 258 193 q 321 167 288 167 l 625 167 q 772 110 717 167 q 826 -33 826 54 q 792 -151 826 -100 q 696 -232 757 -203 q 556 -261 635 -261 l 208 -261 m 289 -132 l 546 -132 q 590 -123 571 -132 q 621 -98 610 -114 q 632 -61 632 -82 q 610 -7 632 -25 q 554 11 588 11 l 289 11 q 234 -8 256 11 q 213 -60 213 -28 q 234 -112 213 -92 q 289 -132 256 -132 m 415 382 q 519 413 483 382 q 554 503 554 444 q 519 592 554 561 q 415 624 483 624 q 313 592 349 624 q 278 503 278 561 q 293 438 278 465 q 339 396 308 410 q 415 382 369 382 m 506 1186 l 506 1111 q 437 1085 458 1111 q 415 1021 415 1060 l 497 1021 l 497 849 l 321 849 l 321 985 q 344 1101 321 1057 q 410 1166 368 1146 q 506 1186 451 1186 z "},"ġ":{"ha":843,"x_min":21,"x_max":826,"o":"m 208 -261 q 117 -241 160 -261 q 47 -182 74 -221 q 21 -89 21 -143 q 56 9 21 -28 q 136 64 92 46 q 84 111 104 82 q 64 179 64 140 q 103 267 64 233 q 194 311 143 301 q 115 392 143 343 q 86 503 86 442 q 126 636 86 582 q 240 719 165 690 q 415 747 314 747 q 491 743 456 747 q 556 729 526 739 q 626 797 607 760 q 646 856 644 833 l 825 856 q 806 767 825 804 q 753 705 788 729 q 669 669 718 681 q 725 596 706 639 q 744 503 744 553 q 707 370 744 425 q 601 286 669 315 q 436 257 532 257 l 325 257 q 275 245 292 257 q 258 211 258 233 q 273 180 258 193 q 321 167 288 167 l 625 167 q 772 110 717 167 q 826 -33 826 54 q 792 -151 826 -100 q 696 -232 757 -203 q 556 -261 635 -261 l 208 -261 m 289 -132 l 546 -132 q 590 -123 571 -132 q 621 -98 610 -114 q 632 -61 632 -82 q 610 -7 632 -25 q 554 11 588 11 l 289 11 q 234 -8 256 11 q 213 -60 213 -28 q 234 -112 213 -92 q 289 -132 256 -132 m 415 382 q 519 413 483 382 q 554 503 554 444 q 519 592 554 561 q 415 624 483 624 q 313 592 349 624 q 278 503 278 561 q 293 438 278 465 q 339 396 308 410 q 415 382 369 382 m 321 833 l 321 1000 l 497 1000 l 497 833 l 321 833 z "},"h":{"ha":836,"x_min":89,"x_max":751,"o":"m 89 0 l 89 1004 l 282 1004 l 282 650 l 292 650 q 348 701 315 679 q 422 735 381 722 q 511 747 463 747 q 638 721 583 747 q 722 638 692 694 q 751 489 751 581 l 751 0 l 558 0 l 558 458 q 550 517 558 493 q 526 558 542 542 q 486 581 510 574 q 433 588 463 588 q 356 567 390 588 q 301 510 321 546 q 282 426 282 474 l 282 0 l 89 0 z "},"ħ":{"ha":836,"x_min":0,"x_max":751,"o":"m 89 0 l 89 1004 l 282 1004 l 282 650 l 292 650 q 348 701 315 679 q 422 735 381 722 q 511 747 463 747 q 638 721 583 747 q 722 638 692 694 q 751 489 751 581 l 751 0 l 558 0 l 558 458 q 550 517 558 493 q 526 558 542 542 q 486 581 510 574 q 433 588 463 588 q 356 567 390 588 q 301 510 321 546 q 282 426 282 474 l 282 0 l 89 0 m 0 801 l 0 922 l 494 922 l 494 801 l 0 801 z "},"ĥ":{"ha":836,"x_min":-67,"x_max":751,"o":"m 89 0 l 89 1004 l 282 1004 l 282 650 l 292 650 q 348 701 315 679 q 422 735 381 722 q 511 747 463 747 q 638 721 583 747 q 722 638 692 694 q 751 489 751 581 l 751 0 l 558 0 l 558 458 q 550 517 558 493 q 526 558 542 542 q 486 581 510 574 q 433 588 463 588 q 356 567 390 588 q 301 510 321 546 q 282 426 282 474 l 282 0 l 89 0 m -67 1026 l 90 1211 l 278 1211 l 433 1026 l 267 1026 l 144 1168 l 222 1167 l 100 1026 l -67 1026 z "},"ḥ":{"ha":836,"x_min":89,"x_max":751,"o":"m 89 0 l 89 1004 l 282 1004 l 282 650 l 292 650 q 348 701 315 679 q 422 735 381 722 q 511 747 463 747 q 638 721 583 747 q 722 638 692 694 q 751 489 751 581 l 751 0 l 558 0 l 558 458 q 550 517 558 493 q 526 558 542 542 q 486 581 510 574 q 433 588 463 588 q 356 567 390 588 q 301 510 321 546 q 282 426 282 474 l 282 0 l 89 0 m 332 -272 l 332 -106 l 508 -106 l 508 -272 l 332 -272 z "},"i":{"ha":371,"x_min":89,"x_max":282,"o":"m 89 838 l 89 1004 l 282 1004 l 282 838 l 89 838 m 89 0 l 89 731 l 282 731 l 282 0 l 89 0 z "},"ı":{"ha":371,"x_min":89,"x_max":282,"o":"m 89 0 l 89 731 l 282 731 l 282 0 l 89 0 z "},"í":{"ha":371,"x_min":83,"x_max":400,"o":"m 89 0 l 89 731 l 282 731 l 282 0 l 89 0 m 83 821 l 199 1004 l 399 1004 l 400 1000 l 235 821 l 83 821 z "},"ĭ":{"ha":371,"x_min":-42,"x_max":410,"o":"m 89 0 l 89 731 l 282 731 l 282 0 l 89 0 m 183 819 q 54 847 104 819 q -19 919 4 875 q -42 1004 -42 963 l 75 1004 q 91 974 78 990 q 126 946 104 957 q 183 935 149 935 q 242 946 218 935 q 278 974 267 957 q 293 1004 290 990 l 410 1004 q 386 919 410 963 q 313 847 363 875 q 183 819 263 819 z "},"ǐ":{"ha":371,"x_min":-58,"x_max":426,"o":"m 89 0 l 89 731 l 282 731 l 282 0 l 89 0 m -58 1004 l 100 1004 l 224 865 l 144 864 l 267 1004 l 426 1004 l 272 821 l 97 821 l -58 1004 z "},"î":{"ha":371,"x_min":-58,"x_max":426,"o":"m 89 0 l 89 731 l 282 731 l 282 0 l 89 0 m -58 821 l 97 1004 l 272 1004 l 426 821 l 267 821 l 144 963 l 224 961 l 100 821 l -58 821 z "},"ȉ":{"ha":371,"x_min":-142,"x_max":392,"o":"m 89 0 l 89 731 l 282 731 l 282 0 l 89 0 m 253 821 l 100 1000 l 103 1006 l 289 1006 l 392 821 l 253 821 m 10 821 l -142 1000 l -140 1006 l 46 1006 l 150 821 l 10 821 z "},"ï":{"ha":371,"x_min":-43,"x_max":410,"o":"m 89 0 l 89 731 l 282 731 l 282 0 l 89 0 m -43 842 l -43 1004 l 122 1004 l 122 842 l -43 842 m 244 842 l 244 1004 l 410 1004 l 410 842 l 244 842 z "},"ị":{"ha":371,"x_min":89,"x_max":282,"o":"m 89 838 l 89 1004 l 282 1004 l 282 838 l 89 838 m 89 0 l 89 731 l 282 731 l 282 0 l 89 0 m 96 -272 l 96 -106 l 272 -106 l 272 -272 l 96 -272 z "},"ì":{"ha":371,"x_min":-29,"x_max":288,"o":"m 89 0 l 89 731 l 282 731 l 282 0 l 89 0 m 288 821 l 138 821 l -29 1000 l -28 1004 l 172 1004 l 288 821 z "},"ỉ":{"ha":371,"x_min":72,"x_max":344,"o":"m 89 0 l 89 731 l 282 731 l 282 0 l 89 0 m 140 821 l 140 899 l 157 899 q 190 905 181 899 q 200 925 200 911 q 188 944 200 940 q 154 949 176 949 l 72 949 l 72 1011 q 109 1017 89 1015 q 150 1021 129 1019 q 188 1022 171 1022 q 238 1019 211 1022 q 289 1006 265 1015 q 328 979 313 996 q 344 936 344 963 q 328 893 344 910 q 288 868 313 876 q 233 857 263 860 l 233 821 l 140 821 z "},"ȋ":{"ha":371,"x_min":-42,"x_max":410,"o":"m 89 0 l 89 731 l 282 731 l 282 0 l 89 0 m 183 1004 q 313 976 263 1004 q 386 906 363 949 q 410 819 410 863 l 293 819 q 278 851 290 835 q 242 878 267 867 q 183 889 218 889 q 126 878 149 889 q 91 851 104 867 q 75 819 78 835 l -42 819 q -19 906 -42 863 q 54 976 4 949 q 183 1004 104 1004 z "},"ĳ":{"ha":738,"x_min":89,"x_max":651,"o":"m 89 838 l 89 1004 l 282 1004 l 282 838 l 89 838 m 89 0 l 89 731 l 282 731 l 282 0 l 89 0 m 458 838 l 458 1004 l 651 1004 l 651 838 l 458 838 m 456 -261 q 410 -258 435 -261 q 363 -251 386 -256 q 324 -239 340 -246 l 324 -112 l 394 -112 q 442 -95 426 -112 q 458 -44 458 -78 l 458 731 l 651 731 l 651 -60 q 633 -161 651 -115 q 573 -234 615 -207 q 456 -261 531 -261 z "},"ī":{"ha":371,"x_min":-29,"x_max":397,"o":"m 89 0 l 89 731 l 282 731 l 282 0 l 89 0 m -29 851 l -29 972 l 397 972 l 397 851 l -29 851 z "},"į":{"ha":371,"x_min":19,"x_max":292,"o":"m 89 838 l 89 1004 l 282 1004 l 282 838 l 89 838 m 89 0 l 89 731 l 282 731 l 282 0 l 89 0 m 172 -261 q 100 -249 135 -261 q 42 -208 65 -237 q 19 -131 19 -179 q 42 -44 19 -79 q 93 17 65 -10 l 210 17 l 210 11 q 177 -30 193 -3 q 161 -86 161 -57 q 178 -137 161 -115 q 232 -160 194 -160 l 292 -160 l 292 -242 q 232 -256 265 -251 q 172 -261 199 -261 z "},"ĩ":{"ha":371,"x_min":-64,"x_max":432,"o":"m 89 0 l 89 731 l 282 731 l 282 0 l 89 0 m -64 835 q -49 919 -64 881 q -1 981 -33 957 q 81 1004 32 1004 q 151 992 118 1004 q 217 967 185 981 q 282 954 249 954 q 316 966 303 954 q 333 1004 329 978 l 432 1004 q 416 922 432 960 q 369 859 400 883 q 288 835 338 835 q 216 847 250 835 q 151 873 182 860 q 86 886 119 886 q 53 874 67 886 q 35 835 39 861 l -64 835 z "},"j":{"ha":367,"x_min":-46,"x_max":282,"o":"m 89 838 l 89 1004 l 282 1004 l 282 838 l 89 838 m 85 -261 q 41 -258 65 -261 q -7 -251 17 -256 q -46 -239 -31 -246 l -46 -112 l 24 -112 q 72 -95 56 -112 q 89 -44 89 -78 l 89 731 l 282 731 l 282 -60 q 263 -161 282 -115 q 202 -234 244 -207 q 85 -261 160 -261 z "},"ȷ":{"ha":367,"x_min":-46,"x_max":282,"o":"m 85 -261 q 41 -258 65 -261 q -7 -251 17 -256 q -46 -239 -31 -246 l -46 -112 l 24 -112 q 72 -95 56 -112 q 89 -44 89 -78 l 89 731 l 282 731 l 282 -60 q 263 -161 282 -115 q 202 -234 244 -207 q 85 -261 160 -261 z "},"ĵ":{"ha":367,"x_min":-58,"x_max":426,"o":"m 85 -261 q 41 -258 65 -261 q -7 -251 17 -256 q -46 -239 -31 -246 l -46 -112 l 24 -112 q 72 -95 56 -112 q 89 -44 89 -78 l 89 731 l 282 731 l 282 -60 q 263 -161 282 -115 q 202 -234 244 -207 q 85 -261 160 -261 m -58 821 l 97 1004 l 272 1004 l 426 821 l 267 821 l 144 963 l 224 961 l 100 821 l -58 821 z "},"k":{"ha":792,"x_min":89,"x_max":776,"o":"m 89 0 l 89 1006 l 282 1006 l 282 426 l 538 731 l 764 731 l 514 444 l 776 0 l 556 0 l 388 308 l 282 206 l 282 0 l 89 0 z "},"ķ":{"ha":792,"x_min":89,"x_max":776,"o":"m 89 0 l 89 1006 l 282 1006 l 282 426 l 538 731 l 764 731 l 514 444 l 776 0 l 556 0 l 388 308 l 282 206 l 282 0 l 89 0 m 311 -436 l 311 -361 q 380 -335 358 -361 q 401 -272 401 -310 l 321 -272 l 321 -99 l 497 -99 l 497 -235 q 473 -353 497 -308 q 407 -417 449 -397 q 311 -436 365 -436 z "},"ĸ":{"ha":792,"x_min":89,"x_max":776,"o":"m 89 0 l 89 731 l 282 731 l 282 426 l 538 731 l 764 731 l 514 444 l 776 0 l 556 0 l 388 308 l 282 206 l 282 0 l 89 0 z "},"l":{"ha":371,"x_min":89,"x_max":282,"o":"m 89 0 l 89 1004 l 282 1004 l 282 0 l 89 0 z "},"ĺ":{"ha":371,"x_min":89,"x_max":418,"o":"m 89 0 l 89 1004 l 282 1004 l 282 0 l 89 0 m 94 1026 l 210 1211 l 415 1211 l 418 1206 l 251 1026 l 94 1026 z "},"ľ":{"ha":371,"x_min":89,"x_max":510,"o":"m 89 0 l 89 1004 l 282 1004 l 282 0 l 89 0 m 338 771 l 338 1004 l 510 1004 l 463 771 l 338 771 z "},"ļ":{"ha":371,"x_min":89,"x_max":282,"o":"m 89 0 l 89 1004 l 282 1004 l 282 0 l 89 0 m 89 -436 l 89 -361 q 156 -335 135 -361 q 178 -272 178 -310 l 97 -272 l 97 -99 l 274 -99 l 274 -235 q 249 -353 274 -308 q 183 -417 225 -397 q 89 -436 142 -436 z "},"ŀ":{"ha":371,"x_min":89,"x_max":489,"o":"m 89 0 l 89 1004 l 282 1004 l 282 0 l 89 0 m 322 443 l 322 606 l 489 606 l 489 443 l 322 443 z "},"ǉ":{"ha":738,"x_min":89,"x_max":651,"o":"m 89 0 l 89 1004 l 282 1004 l 282 0 l 89 0 m 458 838 l 458 1004 l 651 1004 l 651 838 l 458 838 m 456 -261 q 410 -258 435 -261 q 363 -251 386 -256 q 324 -239 340 -246 l 324 -112 l 394 -112 q 442 -95 426 -112 q 458 -44 458 -78 l 458 731 l 651 731 l 651 -60 q 633 -161 651 -115 q 573 -234 615 -207 q 456 -261 531 -261 z "},"ł":{"ha":371,"x_min":-14,"x_max":383,"o":"m 89 0 l 89 1004 l 282 1004 l 282 0 l 89 0 m -14 303 l -14 435 l 383 708 l 383 575 l -14 303 z "},"m":{"ha":1238,"x_min":89,"x_max":1154,"o":"m 89 0 l 89 731 l 249 731 l 264 631 l 274 631 q 330 693 297 667 q 403 733 363 719 q 492 747 444 747 q 612 719 561 747 q 690 631 663 692 l 700 631 q 757 693 724 667 q 833 733 790 719 q 925 747 876 747 q 1045 722 994 747 q 1125 641 1096 697 q 1154 496 1154 585 l 1154 0 l 961 0 l 961 461 q 953 520 961 496 q 932 559 946 544 q 897 581 918 574 q 853 588 876 588 q 783 567 814 588 q 735 510 753 546 q 718 426 718 474 l 718 0 l 525 0 l 525 461 q 517 520 525 496 q 496 559 510 544 q 462 581 482 574 q 417 588 442 588 q 348 567 379 588 q 299 510 317 546 q 282 426 282 474 l 282 0 l 89 0 z "},"n":{"ha":836,"x_min":89,"x_max":751,"o":"m 89 0 l 89 731 l 249 731 l 264 631 l 274 631 q 334 693 299 667 q 414 733 369 719 q 511 747 458 747 q 638 721 583 747 q 722 638 692 694 q 751 489 751 581 l 751 0 l 558 0 l 558 458 q 550 517 558 493 q 526 558 542 542 q 486 581 510 574 q 433 588 463 588 q 356 567 390 588 q 301 510 321 546 q 282 426 282 474 l 282 0 l 89 0 z "},"ń":{"ha":836,"x_min":89,"x_max":751,"o":"m 89 0 l 89 731 l 249 731 l 264 631 l 274 631 q 334 693 299 667 q 414 733 369 719 q 511 747 458 747 q 638 721 583 747 q 722 638 692 694 q 751 489 751 581 l 751 0 l 558 0 l 558 458 q 550 517 558 493 q 526 558 542 542 q 486 581 510 574 q 433 588 463 588 q 356 567 390 588 q 301 510 321 546 q 282 426 282 474 l 282 0 l 89 0 m 319 821 l 436 1004 l 635 1004 l 636 1000 l 471 821 l 319 821 z "},"ŉ":{"ha":836,"x_min":-7,"x_max":751,"o":"m 89 0 l 89 731 l 249 731 l 264 631 l 274 631 q 334 693 299 667 q 414 733 369 719 q 511 747 458 747 q 638 721 583 747 q 722 638 692 694 q 751 489 751 581 l 751 0 l 558 0 l 558 458 q 550 517 558 493 q 526 558 542 542 q 486 581 510 574 q 433 588 463 588 q 356 567 390 588 q 301 510 321 546 q 282 426 282 474 l 282 0 l 89 0 m -7 763 l -7 838 q 60 863 39 838 q 82 928 82 889 l 0 928 l 0 1100 l 178 1100 l 178 964 q 153 847 178 892 q 88 783 129 803 q -7 763 46 763 z "},"ň":{"ha":836,"x_min":89,"x_max":751,"o":"m 89 0 l 89 731 l 249 731 l 264 631 l 274 631 q 334 693 299 667 q 414 733 369 719 q 511 747 458 747 q 638 721 583 747 q 722 638 692 694 q 751 489 751 581 l 751 0 l 558 0 l 558 458 q 550 517 558 493 q 526 558 542 542 q 486 581 510 574 q 433 588 463 588 q 356 567 390 588 q 301 510 321 546 q 282 426 282 474 l 282 0 l 89 0 m 178 1004 l 338 1004 l 460 865 l 382 864 l 503 1004 l 663 1004 l 508 821 l 333 821 l 178 1004 z "},"ņ":{"ha":836,"x_min":89,"x_max":751,"o":"m 89 0 l 89 731 l 249 731 l 264 631 l 274 631 q 334 693 299 667 q 414 733 369 719 q 511 747 458 747 q 638 721 583 747 q 722 638 692 694 q 751 489 751 581 l 751 0 l 558 0 l 558 458 q 550 517 558 493 q 526 558 542 542 q 486 581 510 574 q 433 588 463 588 q 356 567 390 588 q 301 510 321 546 q 282 426 282 474 l 282 0 l 89 0 m 324 -436 l 324 -361 q 392 -335 371 -361 q 414 -272 414 -310 l 333 -272 l 333 -99 l 510 -99 l 510 -235 q 485 -353 510 -308 q 419 -417 461 -397 q 324 -436 378 -436 z "},"ŋ":{"ha":835,"x_min":89,"x_max":751,"o":"m 556 -261 q 511 -258 536 -261 q 463 -251 486 -256 q 425 -239 440 -246 l 425 -112 l 493 -112 q 542 -95 526 -112 q 558 -44 558 -78 l 558 458 q 550 517 558 493 q 526 558 542 542 q 486 581 510 574 q 433 588 463 588 q 356 567 390 588 q 301 510 321 546 q 282 426 282 474 l 282 0 l 89 0 l 89 731 l 249 731 l 264 631 l 274 631 q 334 693 299 667 q 414 733 369 719 q 511 747 458 747 q 638 721 583 747 q 722 638 692 694 q 751 489 751 581 l 751 -60 q 741 -138 751 -101 q 708 -203 731 -175 q 647 -246 685 -231 q 556 -261 610 -261 z "},"ɲ":{"ha":836,"x_min":-46,"x_max":751,"o":"m 85 -261 q 41 -258 65 -261 q -7 -251 17 -256 q -46 -239 -31 -246 l -46 -112 l 24 -112 q 72 -95 56 -112 q 89 -44 89 -78 l 89 731 l 249 731 l 264 631 l 274 631 q 334 693 299 667 q 414 733 369 719 q 511 747 458 747 q 638 721 583 747 q 722 638 692 694 q 751 489 751 581 l 751 0 l 558 0 l 558 458 q 550 517 558 493 q 526 558 542 542 q 486 581 510 574 q 433 588 463 588 q 356 567 390 588 q 301 510 321 546 q 282 426 282 474 l 282 -60 q 272 -138 282 -101 q 239 -203 263 -175 q 178 -246 215 -231 q 85 -261 140 -261 z "},"ǌ":{"ha":1203,"x_min":89,"x_max":1118,"o":"m 89 0 l 89 731 l 249 731 l 264 631 l 274 631 q 334 693 299 667 q 414 733 369 719 q 511 747 458 747 q 638 721 583 747 q 722 638 692 694 q 751 489 751 581 l 751 0 l 558 0 l 558 458 q 550 517 558 493 q 526 558 542 542 q 486 581 510 574 q 433 588 463 588 q 356 567 390 588 q 301 510 321 546 q 282 426 282 474 l 282 0 l 89 0 m 925 838 l 925 1004 l 1118 1004 l 1118 838 l 925 838 m 921 -261 q 877 -258 901 -261 q 829 -251 853 -256 q 790 -239 806 -246 l 790 -112 l 860 -112 q 908 -95 892 -112 q 925 -44 925 -78 l 925 731 l 1118 731 l 1118 -60 q 1099 -161 1118 -115 q 1038 -234 1081 -207 q 921 -261 996 -261 z "},"ñ":{"ha":836,"x_min":89,"x_max":751,"o":"m 89 0 l 89 731 l 249 731 l 264 631 l 274 631 q 334 693 299 667 q 414 733 369 719 q 511 747 458 747 q 638 721 583 747 q 722 638 692 694 q 751 489 751 581 l 751 0 l 558 0 l 558 458 q 550 517 558 493 q 526 558 542 542 q 486 581 510 574 q 433 588 463 588 q 356 567 390 588 q 301 510 321 546 q 282 426 282 474 l 282 0 l 89 0 m 172 835 q 188 919 172 881 q 235 981 203 957 q 317 1004 268 1004 q 388 992 354 1004 q 453 967 421 981 q 519 954 486 954 q 553 966 540 954 q 569 1004 567 978 l 668 1004 q 653 922 668 960 q 606 859 638 883 q 524 835 574 835 q 453 847 488 835 q 388 873 419 860 q 322 886 356 886 q 289 874 303 886 q 272 835 275 861 l 172 835 z "},"o":{"ha":851,"x_min":53,"x_max":799,"o":"m 425 -17 q 222 24 306 -17 q 96 151 139 65 q 53 365 53 236 q 96 581 53 497 q 222 706 139 665 q 425 747 306 747 q 630 706 547 747 q 756 581 713 665 q 799 365 799 497 q 756 151 799 236 q 630 24 713 65 q 425 -17 547 -17 m 425 133 q 527 157 489 133 q 583 229 565 181 q 601 349 601 278 l 601 382 q 583 501 601 453 q 527 574 565 550 q 425 599 489 599 q 324 574 363 599 q 268 501 286 550 q 250 382 250 453 l 250 349 q 268 229 250 278 q 324 157 286 181 q 425 133 363 133 z "},"ó":{"ha":851,"x_min":53,"x_max":799,"o":"m 425 -17 q 222 24 306 -17 q 96 151 139 65 q 53 365 53 236 q 96 581 53 497 q 222 706 139 665 q 425 747 306 747 q 630 706 547 747 q 756 581 713 665 q 799 365 799 497 q 756 151 799 236 q 630 24 713 65 q 425 -17 547 -17 m 425 133 q 527 157 489 133 q 583 229 565 181 q 601 349 601 278 l 601 382 q 583 501 601 453 q 527 574 565 550 q 425 599 489 599 q 324 574 363 599 q 268 501 286 550 q 250 382 250 453 l 250 349 q 268 229 250 278 q 324 157 286 181 q 425 133 363 133 m 325 821 l 440 1004 l 640 1004 l 642 1000 l 476 821 l 325 821 z "},"ŏ":{"ha":851,"x_min":53,"x_max":799,"o":"m 425 -17 q 222 24 306 -17 q 96 151 139 65 q 53 365 53 236 q 96 581 53 497 q 222 706 139 665 q 425 747 306 747 q 630 706 547 747 q 756 581 713 665 q 799 365 799 497 q 756 151 799 236 q 630 24 713 65 q 425 -17 547 -17 m 425 133 q 527 157 489 133 q 583 229 565 181 q 601 349 601 278 l 601 382 q 583 501 601 453 q 527 574 565 550 q 425 599 489 599 q 324 574 363 599 q 268 501 286 550 q 250 382 250 453 l 250 349 q 268 229 250 278 q 324 157 286 181 q 425 133 363 133 m 425 819 q 296 847 346 819 q 223 919 246 875 q 200 1004 200 963 l 317 1004 q 333 974 319 990 q 368 946 346 957 q 425 935 390 935 q 484 946 460 935 q 520 974 508 957 q 535 1004 532 990 l 651 1004 q 628 919 651 963 q 554 847 604 875 q 425 819 504 819 z "},"ǒ":{"ha":851,"x_min":53,"x_max":799,"o":"m 425 -17 q 222 24 306 -17 q 96 151 139 65 q 53 365 53 236 q 96 581 53 497 q 222 706 139 665 q 425 747 306 747 q 630 706 547 747 q 756 581 713 665 q 799 365 799 497 q 756 151 799 236 q 630 24 713 65 q 425 -17 547 -17 m 425 133 q 527 157 489 133 q 583 229 565 181 q 601 349 601 278 l 601 382 q 583 501 601 453 q 527 574 565 550 q 425 599 489 599 q 324 574 363 599 q 268 501 286 550 q 250 382 250 453 l 250 349 q 268 229 250 278 q 324 157 286 181 q 425 133 363 133 m 183 1004 l 342 1004 l 465 865 l 386 864 l 508 1004 l 668 1004 l 514 821 l 339 821 l 183 1004 z "},"ô":{"ha":851,"x_min":53,"x_max":799,"o":"m 425 -17 q 222 24 306 -17 q 96 151 139 65 q 53 365 53 236 q 96 581 53 497 q 222 706 139 665 q 425 747 306 747 q 630 706 547 747 q 756 581 713 665 q 799 365 799 497 q 756 151 799 236 q 630 24 713 65 q 425 -17 547 -17 m 425 133 q 527 157 489 133 q 583 229 565 181 q 601 349 601 278 l 601 382 q 583 501 601 453 q 527 574 565 550 q 425 599 489 599 q 324 574 363 599 q 268 501 286 550 q 250 382 250 453 l 250 349 q 268 229 250 278 q 324 157 286 181 q 425 133 363 133 m 183 821 l 339 1004 l 514 1004 l 668 821 l 508 821 l 386 963 l 465 961 l 342 821 l 183 821 z "},"ố":{"ha":851,"x_min":53,"x_max":799,"o":"m 425 -17 q 222 24 306 -17 q 96 151 139 65 q 53 365 53 236 q 96 581 53 497 q 222 706 139 665 q 425 747 306 747 q 630 706 547 747 q 756 581 713 665 q 799 365 799 497 q 756 151 799 236 q 630 24 713 65 q 425 -17 547 -17 m 425 133 q 527 157 489 133 q 583 229 565 181 q 601 349 601 278 l 601 382 q 583 501 601 453 q 527 574 565 550 q 425 599 489 599 q 324 574 363 599 q 268 501 286 550 q 250 382 250 453 l 250 349 q 268 229 250 278 q 324 157 286 181 q 425 133 363 133 m 183 821 l 339 1004 l 514 1004 l 668 821 l 508 821 l 386 963 l 465 961 l 342 821 l 183 821 m 325 1076 l 440 1260 l 640 1260 l 642 1256 l 476 1076 l 325 1076 z "},"ộ":{"ha":851,"x_min":53,"x_max":799,"o":"m 425 -17 q 222 24 306 -17 q 96 151 139 65 q 53 365 53 236 q 96 581 53 497 q 222 706 139 665 q 425 747 306 747 q 630 706 547 747 q 756 581 713 665 q 799 365 799 497 q 756 151 799 236 q 630 24 713 65 q 425 -17 547 -17 m 425 133 q 527 157 489 133 q 583 229 565 181 q 601 349 601 278 l 601 382 q 583 501 601 453 q 527 574 565 550 q 425 599 489 599 q 324 574 363 599 q 268 501 286 550 q 250 382 250 453 l 250 349 q 268 229 250 278 q 324 157 286 181 q 425 133 363 133 m 338 -272 l 338 -106 l 514 -106 l 514 -272 l 338 -272 m 183 821 l 339 1004 l 514 1004 l 668 821 l 508 821 l 386 963 l 465 961 l 342 821 l 183 821 z "},"ồ":{"ha":851,"x_min":53,"x_max":799,"o":"m 425 -17 q 222 24 306 -17 q 96 151 139 65 q 53 365 53 236 q 96 581 53 497 q 222 706 139 665 q 425 747 306 747 q 630 706 547 747 q 756 581 713 665 q 799 365 799 497 q 756 151 799 236 q 630 24 713 65 q 425 -17 547 -17 m 425 133 q 527 157 489 133 q 583 229 565 181 q 601 349 601 278 l 601 382 q 583 501 601 453 q 527 574 565 550 q 425 599 489 599 q 324 574 363 599 q 268 501 286 550 q 250 382 250 453 l 250 349 q 268 229 250 278 q 324 157 286 181 q 425 133 363 133 m 183 821 l 339 1004 l 514 1004 l 668 821 l 508 821 l 386 963 l 465 961 l 342 821 l 183 821 m 529 1076 l 379 1076 l 213 1256 l 214 1260 l 414 1260 l 529 1076 z "},"ổ":{"ha":851,"x_min":53,"x_max":799,"o":"m 425 -17 q 222 24 306 -17 q 96 151 139 65 q 53 365 53 236 q 96 581 53 497 q 222 706 139 665 q 425 747 306 747 q 630 706 547 747 q 756 581 713 665 q 799 365 799 497 q 756 151 799 236 q 630 24 713 65 q 425 -17 547 -17 m 425 133 q 527 157 489 133 q 583 229 565 181 q 601 349 601 278 l 601 382 q 583 501 601 453 q 527 574 565 550 q 425 599 489 599 q 324 574 363 599 q 268 501 286 550 q 250 382 250 453 l 250 349 q 268 229 250 278 q 324 157 286 181 q 425 133 363 133 m 183 821 l 339 1004 l 514 1004 l 668 821 l 508 821 l 386 963 l 465 961 l 342 821 l 183 821 m 382 1076 l 382 1154 l 399 1154 q 432 1160 422 1154 q 442 1179 442 1165 q 430 1199 442 1194 q 396 1204 418 1204 l 314 1204 l 314 1267 q 351 1273 331 1271 q 392 1276 371 1275 q 429 1278 413 1278 q 480 1274 453 1278 q 531 1260 507 1269 q 570 1235 554 1251 q 586 1192 586 1218 q 570 1148 586 1165 q 529 1122 554 1131 q 475 1111 504 1114 l 475 1076 l 382 1076 z "},"ỗ":{"ha":851,"x_min":53,"x_max":799,"o":"m 425 -17 q 222 24 306 -17 q 96 151 139 65 q 53 365 53 236 q 96 581 53 497 q 222 706 139 665 q 425 747 306 747 q 630 706 547 747 q 756 581 713 665 q 799 365 799 497 q 756 151 799 236 q 630 24 713 65 q 425 -17 547 -17 m 425 133 q 527 157 489 133 q 583 229 565 181 q 601 349 601 278 l 601 382 q 583 501 601 453 q 527 574 565 550 q 425 599 489 599 q 324 574 363 599 q 268 501 286 550 q 250 382 250 453 l 250 349 q 268 229 250 278 q 324 157 286 181 q 425 133 363 133 m 183 821 l 339 1004 l 514 1004 l 668 821 l 508 821 l 386 963 l 465 961 l 342 821 l 183 821 m 178 1089 q 193 1174 178 1135 q 241 1236 208 1213 q 322 1260 274 1260 q 393 1247 360 1260 q 458 1222 426 1235 q 524 1210 490 1210 q 558 1222 544 1210 q 575 1260 571 1233 l 674 1260 q 658 1176 674 1215 q 610 1113 642 1138 q 529 1089 579 1089 q 458 1102 492 1089 q 392 1128 424 1115 q 328 1140 361 1140 q 294 1128 308 1140 q 276 1089 281 1117 l 178 1089 z "},"ȍ":{"ha":851,"x_min":53,"x_max":799,"o":"m 425 -17 q 222 24 306 -17 q 96 151 139 65 q 53 365 53 236 q 96 581 53 497 q 222 706 139 665 q 425 747 306 747 q 630 706 547 747 q 756 581 713 665 q 799 365 799 497 q 756 151 799 236 q 630 24 713 65 q 425 -17 547 -17 m 425 133 q 527 157 489 133 q 583 229 565 181 q 601 349 601 278 l 601 382 q 583 501 601 453 q 527 574 565 550 q 425 599 489 599 q 324 574 363 599 q 268 501 286 550 q 250 382 250 453 l 250 349 q 268 229 250 278 q 324 157 286 181 q 425 133 363 133 m 494 821 l 342 1000 l 344 1006 l 531 1006 l 633 821 l 494 821 m 251 821 l 100 1000 l 101 1006 l 288 1006 l 392 821 l 251 821 z "},"ö":{"ha":851,"x_min":53,"x_max":799,"o":"m 425 -17 q 222 24 306 -17 q 96 151 139 65 q 53 365 53 236 q 96 581 53 497 q 222 706 139 665 q 425 747 306 747 q 630 706 547 747 q 756 581 713 665 q 799 365 799 497 q 756 151 799 236 q 630 24 713 65 q 425 -17 547 -17 m 425 133 q 527 157 489 133 q 583 229 565 181 q 601 349 601 278 l 601 382 q 583 501 601 453 q 527 574 565 550 q 425 599 489 599 q 324 574 363 599 q 268 501 286 550 q 250 382 250 453 l 250 349 q 268 229 250 278 q 324 157 286 181 q 425 133 363 133 m 199 842 l 199 1004 l 364 1004 l 364 842 l 199 842 m 486 842 l 486 1004 l 651 1004 l 651 842 l 486 842 z "},"ȫ":{"ha":851,"x_min":53,"x_max":799,"o":"m 425 -17 q 222 24 306 -17 q 96 151 139 65 q 53 365 53 236 q 96 581 53 497 q 222 706 139 665 q 425 747 306 747 q 630 706 547 747 q 756 581 713 665 q 799 365 799 497 q 756 151 799 236 q 630 24 713 65 q 425 -17 547 -17 m 425 133 q 527 157 489 133 q 583 229 565 181 q 601 349 601 278 l 601 382 q 583 501 601 453 q 527 574 565 550 q 425 599 489 599 q 324 574 363 599 q 268 501 286 550 q 250 382 250 453 l 250 349 q 268 229 250 278 q 324 157 286 181 q 425 133 363 133 m 199 842 l 199 1004 l 364 1004 l 364 842 l 199 842 m 486 842 l 486 1004 l 651 1004 l 651 842 l 486 842 m 213 1093 l 213 1214 l 639 1214 l 639 1093 l 213 1093 z "},"ȱ":{"ha":851,"x_min":53,"x_max":799,"o":"m 425 -17 q 222 24 306 -17 q 96 151 139 65 q 53 365 53 236 q 96 581 53 497 q 222 706 139 665 q 425 747 306 747 q 630 706 547 747 q 756 581 713 665 q 799 365 799 497 q 756 151 799 236 q 630 24 713 65 q 425 -17 547 -17 m 425 133 q 527 157 489 133 q 583 229 565 181 q 601 349 601 278 l 601 382 q 583 501 601 453 q 527 574 565 550 q 425 599 489 599 q 324 574 363 599 q 268 501 286 550 q 250 382 250 453 l 250 349 q 268 229 250 278 q 324 157 286 181 q 425 133 363 133 m 338 833 l 338 1000 l 514 1000 l 514 833 l 338 833 m 213 1093 l 213 1214 l 639 1214 l 639 1093 l 213 1093 z "},"ọ":{"ha":851,"x_min":53,"x_max":799,"o":"m 425 -17 q 222 24 306 -17 q 96 151 139 65 q 53 365 53 236 q 96 581 53 497 q 222 706 139 665 q 425 747 306 747 q 630 706 547 747 q 756 581 713 665 q 799 365 799 497 q 756 151 799 236 q 630 24 713 65 q 425 -17 547 -17 m 425 133 q 527 157 489 133 q 583 229 565 181 q 601 349 601 278 l 601 382 q 583 501 601 453 q 527 574 565 550 q 425 599 489 599 q 324 574 363 599 q 268 501 286 550 q 250 382 250 453 l 250 349 q 268 229 250 278 q 324 157 286 181 q 425 133 363 133 m 338 -272 l 338 -106 l 514 -106 l 514 -272 l 338 -272 z "},"ò":{"ha":851,"x_min":53,"x_max":799,"o":"m 425 -17 q 222 24 306 -17 q 96 151 139 65 q 53 365 53 236 q 96 581 53 497 q 222 706 139 665 q 425 747 306 747 q 630 706 547 747 q 756 581 713 665 q 799 365 799 497 q 756 151 799 236 q 630 24 713 65 q 425 -17 547 -17 m 425 133 q 527 157 489 133 q 583 229 565 181 q 601 349 601 278 l 601 382 q 583 501 601 453 q 527 574 565 550 q 425 599 489 599 q 324 574 363 599 q 268 501 286 550 q 250 382 250 453 l 250 349 q 268 229 250 278 q 324 157 286 181 q 425 133 363 133 m 529 821 l 379 821 l 213 1000 l 214 1004 l 414 1004 l 529 821 z "},"ỏ":{"ha":851,"x_min":53,"x_max":799,"o":"m 425 -17 q 222 24 306 -17 q 96 151 139 65 q 53 365 53 236 q 96 581 53 497 q 222 706 139 665 q 425 747 306 747 q 630 706 547 747 q 756 581 713 665 q 799 365 799 497 q 756 151 799 236 q 630 24 713 65 q 425 -17 547 -17 m 425 133 q 527 157 489 133 q 583 229 565 181 q 601 349 601 278 l 601 382 q 583 501 601 453 q 527 574 565 550 q 425 599 489 599 q 324 574 363 599 q 268 501 286 550 q 250 382 250 453 l 250 349 q 268 229 250 278 q 324 157 286 181 q 425 133 363 133 m 382 821 l 382 899 l 399 899 q 432 905 422 899 q 442 925 442 911 q 430 944 442 940 q 396 949 418 949 l 314 949 l 314 1011 q 351 1017 331 1015 q 392 1021 371 1019 q 429 1022 413 1022 q 480 1019 453 1022 q 531 1006 507 1015 q 570 979 554 996 q 586 936 586 963 q 570 893 586 910 q 529 868 554 876 q 475 857 504 860 l 475 821 l 382 821 z "}}}
